<?xml version="1.0" encoding="UTF-8" standalone="no"?>
<!-- Created with Inkscape (http://www.inkscape.org/) -->

<svg
   width="87.723061mm"
   height="22.890564mm"
   viewBox="0 0 87.723061 22.890564"
   version="1.1"
   id="svg5"
   xmlns:inkscape="http://www.inkscape.org/namespaces/inkscape"
   xmlns:sodipodi="http://sodipodi.sourceforge.net/DTD/sodipodi-0.dtd"
   xmlns="http://www.w3.org/2000/svg"
   xmlns:svg="http://www.w3.org/2000/svg">
  <sodipodi:namedview
     id="namedview7"
     pagecolor="#ffffff"
     bordercolor="#000000"
     borderopacity="0.25"
     inkscape:showpageshadow="2"
     inkscape:pageopacity="0.0"
     inkscape:pagecheckerboard="0"
     inkscape:deskcolor="#d1d1d1"
     inkscape:document-units="mm"
     showgrid="false" />
  <defs
     id="defs2" />
  <g
     inkscape:label="Layer 1"
     inkscape:groupmode="layer"
     id="layer1"
     transform="translate(-90.780634,-95.478803)">
    <g
       aria-label="Skills"
       id="text236"
       style="font-size:31.0444px;font-family:'Arial Rounded MT Bold';-inkscape-font-specification:'Arial Rounded MT Bold, ';text-align:center;text-anchor:middle;fill:#f2f2f2;stroke-width:0.705001"
       inkscape:export-filename="skills.svg"
       inkscape:export-xdpi="150"
       inkscape:export-ydpi="150">
      <path
         d="m 48.201387,83.254301 q 0,2.016067 -1.04593,3.622857 -1.030771,1.60679 -3.031679,2.516294 -2.000909,0.909504 -4.744579,0.909504 -3.289372,0 -5.426706,-1.242989 -1.51584,-0.894345 -2.470819,-2.379868 -0.939821,-1.500682 -0.939821,-2.910413 0,-0.818553 0.560861,-1.394572 0.576019,-0.591178 1.455206,-0.591178 0.712445,0 1.197513,0.454752 0.500228,0.454752 0.848871,1.349098 0.424435,1.061087 0.909504,1.773532 0.500227,0.712445 1.394572,1.182355 0.894346,0.454752 2.349552,0.454752 2.000908,0 3.243897,-0.924662 1.258147,-0.939821 1.258147,-2.334393 0,-1.106564 -0.682128,-1.788691 -0.666969,-0.697287 -1.743216,-1.061088 -1.061087,-0.363802 -2.849778,-0.773079 -2.395027,-0.56086 -4.016976,-1.303622 -1.60679,-0.75792 -2.561769,-2.046384 -0.939821,-1.303622 -0.939821,-3.228738 0,-1.834167 1.000454,-3.259056 1.000455,-1.424889 2.895254,-2.182809 1.8948,-0.773079 4.45657,-0.773079 2.046383,0 3.531906,0.515386 1.500682,0.500227 2.485978,1.349097 0.985295,0.833712 1.440047,1.758375 0.454752,0.924662 0.454752,1.803849 0,0.803395 -0.576019,1.455206 -0.560861,0.636653 -1.409731,0.636653 -0.773078,0 -1.182355,-0.37896 -0.394118,-0.394118 -0.864029,-1.273306 -0.606335,-1.258147 -1.455206,-1.955433 -0.84887,-0.712445 -2.728511,-0.712445 -1.743216,0 -2.819462,0.773079 -1.061088,0.75792 -1.061088,1.834166 0,0.666969 0.363801,1.152038 0.363802,0.485069 1.000454,0.833712 0.636653,0.348643 1.288464,0.545702 0.651811,0.19706 2.152493,0.57602 1.879641,0.439593 3.395481,0.970137 1.530998,0.530544 2.592086,1.288464 1.076246,0.75792 1.667424,1.925116 0.606336,1.152039 0.606336,2.834621 z"
         style="fill:#000000;stroke-width:0.705"
         id="path394" />
      <path
         d="m 62.041004,88.408156 -3.653174,-6.002725 -2.243443,2.122175 v 3.289373 q 0,1.197513 -0.636653,1.849324 -0.621494,0.636653 -1.440048,0.636653 -0.954979,0 -1.500681,-0.636653 -0.545702,-0.636653 -0.545702,-1.879641 V 70.142286 q 0,-1.379414 0.530544,-2.091858 0.530544,-0.727604 1.515839,-0.727604 0.954979,0 1.51584,0.651812 0.560861,0.651811 0.560861,1.925116 v 10.03486 l 4.653628,-4.881005 q 0.864029,-0.909503 1.318781,-1.242988 0.454752,-0.333485 1.106563,-0.333485 0.773078,0 1.288464,0.500227 0.515385,0.485069 0.515385,1.22783 0,0.909504 -1.682582,2.425344 l -2.197968,2.016067 4.244352,6.669695 q 0.46991,0.742762 0.666969,1.13688 0.212218,0.37896 0.212218,0.727603 0,0.985296 -0.545702,1.561315 -0.530544,0.560861 -1.409732,0.560861 -0.757919,0 -1.167196,-0.409277 -0.409277,-0.409277 -1.106563,-1.485523 z"
         style="fill:#000000;stroke-width:0.705"
         id="path396" />
      <path
         d="m 72.894416,75.826686 v 11.959976 q 0,1.242988 -0.591177,1.879641 -0.591178,0.636653 -1.500682,0.636653 -0.909503,0 -1.485523,-0.651811 -0.56086,-0.651811 -0.56086,-1.864483 V 75.947953 q 0,-1.22783 0.56086,-1.849325 0.57602,-0.621494 1.485523,-0.621494 0.909504,0 1.500682,0.621494 0.591177,0.621495 0.591177,1.728058 z m -2.046383,-4.274668 q -0.864029,0 -1.485523,-0.530544 -0.606336,-0.530544 -0.606336,-1.500682 0,-0.879187 0.621494,-1.440048 0.636653,-0.576019 1.470365,-0.576019 0.803395,0 1.424889,0.515386 0.621494,0.515385 0.621494,1.500681 0,0.954979 -0.606336,1.500682 -0.606336,0.530544 -1.440047,0.530544 z"
         style="fill:#000000;stroke-width:0.705"
         id="path398" />
      <path
         d="M 77.169084,87.786662 V 69.839119 q 0,-1.242989 0.545702,-1.879642 0.560861,-0.636653 1.500682,-0.636653 0.939821,0 1.51584,0.636653 0.576019,0.621494 0.576019,1.879642 v 17.947543 q 0,1.258147 -0.591178,1.8948 -0.576019,0.621494 -1.500681,0.621494 -0.909504,0 -1.485523,-0.651811 -0.560861,-0.651811 -0.560861,-1.864483 z"
         style="fill:#000000;stroke-width:0.705"
         id="path400" />
      <path
         d="M 85.581995,87.786662 V 69.839119 q 0,-1.242989 0.545702,-1.879642 0.560861,-0.636653 1.500681,-0.636653 0.939821,0 1.51584,0.636653 0.576019,0.621494 0.576019,1.879642 v 17.947543 q 0,1.258147 -0.591177,1.8948 -0.576019,0.621494 -1.500682,0.621494 -0.909504,0 -1.485523,-0.651811 -0.56086,-0.651811 -0.56086,-1.864483 z"
         style="fill:#000000;stroke-width:0.705"
         id="path402" />
      <path
         d="m 107.31914,84.891408 q 0,1.712899 -0.83371,2.940729 -0.83372,1.212672 -2.47082,1.849325 -1.62195,0.621494 -3.95635,0.621494 -2.22828,0 -3.819912,-0.682128 -1.591632,-0.682128 -2.349552,-1.697741 -0.75792,-1.030771 -0.75792,-2.061542 0,-0.682128 0.485069,-1.167196 0.485069,-0.485069 1.22783,-0.485069 0.651811,0 1.000455,0.318326 0.348643,0.318327 0.666969,0.894346 0.636653,1.106563 1.51584,1.652265 0.894345,0.545702 2.425341,0.545702 1.24299,0 2.03123,-0.545702 0.80339,-0.560861 0.80339,-1.273305 0,-1.091405 -0.83371,-1.591632 -0.81855,-0.500227 -2.713352,-0.954979 -2.137334,-0.530544 -3.486432,-1.106563 -1.333939,-0.591178 -2.137334,-1.546157 -0.803395,-0.954979 -0.803395,-2.349552 0,-1.242988 0.742762,-2.349551 0.742761,-1.106563 2.182809,-1.758374 1.455206,-0.66697 3.50159,-0.66697 1.606792,0 2.880092,0.333485 1.28847,0.333485 2.13734,0.894345 0.86403,0.560861 1.30362,1.242989 0.45475,0.682128 0.45475,1.333939 0,0.712445 -0.48507,1.167197 -0.46991,0.454752 -1.34909,0.454752 -0.63666,0 -1.09141,-0.363802 -0.43959,-0.363802 -1.01561,-1.091405 -0.46991,-0.606336 -1.10656,-0.970137 -0.63666,-0.363802 -1.728062,-0.363802 -1.121722,0 -1.864483,0.485069 -0.742762,0.46991 -0.742762,1.182355 0,0.651811 0.545703,1.076246 0.545702,0.409277 1.470364,0.682128 0.92466,0.272851 2.54661,0.66697 1.92512,0.46991 3.13779,1.121721 1.22783,0.651811 1.84932,1.546157 0.63666,0.879187 0.63666,2.016067 z"
         style="fill:#000000;stroke-width:0.705"
         id="path404" />
      <g
         aria-label="SKILLS"
         id="text549"
         style="fill:#000000"
         inkscape:export-filename="skills.svg"
         inkscape:export-xdpi="150"
         inkscape:export-ydpi="150">
        <path
           d="m 101.94548,110.50901 q 0,3.07715 -2.592085,5.27512 -2.273759,1.94028 -5.532815,2.47082 -0.121267,0.0152 -0.197059,0.0152 -0.348643,0 -1.546157,-2.12218 -1.197513,-2.13733 -1.197513,-2.60724 0,-0.16674 0.227376,-0.21222 2.197968,-0.50023 2.910412,-0.84887 1.576474,-0.78824 1.576474,-2.33439 0,-0.9853 -1.030771,-2.19797 -1.788691,-2.06154 -1.940275,-2.28892 -1.04593,-1.57647 -1.04593,-3.48643 0,-2.773986 2.561769,-4.608153 2.091859,-1.515839 5.138697,-1.970591 0.166743,-0.01516 0.257693,-0.01516 0.227376,0 0.363802,0.363802 0.394122,1.106563 1.834162,4.001817 0.0455,0.09095 0.0455,0.151585 0,0.25769 -0.27285,0.25769 -0.12127,0 -0.40928,-0.0455 -0.28801,-0.0455 -0.43959,-0.0455 -1.091407,0 -1.909961,0.50023 -0.985295,0.57602 -0.985295,1.60679 0,0.92466 1.091404,2.27376 1.925112,2.42534 2.016072,2.54661 1.07624,1.66742 1.07624,3.31969 z"
           style="font-family:'Berlin Sans FB Demi';-inkscape-font-specification:'Berlin Sans FB Demi';stroke:#00ffff;stroke-width:0.198437;stroke-dasharray:none"
           id="path551" />
        <path
           d="m 123.12176,116.633 q 0,0.65181 -0.56086,0.84887 -0.45475,0.15159 -2.39502,0.15159 -1.86449,0 -2.72852,-0.15159 -0.40927,-0.0758 -0.5457,-0.15158 -0.12127,-0.091 -0.31832,-0.43959 -1.10657,-2.03123 -2.19797,-4.06246 -1.80385,-3.27421 -2.15249,-3.60769 -1.63711,0.59117 -1.63711,0.84887 0,1.13688 0.091,3.44095 0.0909,2.28892 0.0909,3.44096 0,0.46991 -0.40928,0.53054 -0.78823,0.12127 -2.84978,0.12127 -1.97059,0 -2.60724,-0.12127 -0.43959,-0.091 -0.43959,-0.46991 0,-1.6371 0.15158,-4.94164 0.16674,-3.30453 0.16674,-4.95679 0,-1.75838 -0.15158,-5.27512 -0.15159,-3.531911 -0.15159,-5.290285 0,-0.333485 0.31833,-0.333485 0.46991,0 1.40973,0.04547 0.95498,0.04547 1.42489,0.04547 0.48507,0 1.44005,-0.04547 0.95498,-0.04547 1.42489,-0.04547 0.25769,0 0.25769,0.272851 0,1.121722 -0.12127,3.395481 -0.10611,2.258598 -0.10611,3.380328 0,1.30362 0.71245,1.30362 1.80385,0 2.8043,-0.9853 0.74276,-0.7276 1.50068,-2.65272 0.48507,-1.470363 1.59164,-4.3353 0.16674,-0.37896 0.68212,-0.37896 0.39412,0 1.18236,0.04547 0.80339,0.04547 1.19751,0.04547 0.40928,0 1.21267,-0.03032 0.81856,-0.03032 1.21268,-0.03032 0.3638,0 0.3638,0.348643 0,0.500227 -0.63665,2.440502 -1.87965,5.729875 -4.32015,7.154765 -0.50023,0.28801 -0.50023,0.46991 0,-0.0152 2.78915,4.54752 2.8043,4.56267 2.8043,5.4267 z"
           style="font-family:'Berlin Sans FB Demi';-inkscape-font-specification:'Berlin Sans FB Demi';stroke:#00ffff;stroke-width:0.198437;stroke-dasharray:none"
           id="path553" />
        <path
           d="m 131.01929,106.27982 q 0,1.78869 0.0909,5.38123 0.0909,3.59254 0.0909,5.38123 0,0.30317 -0.13642,0.37896 -0.0303,0.0152 -0.39412,0.0606 -0.9853,0.12127 -2.63756,0.12127 -2.21313,0 -2.81947,-0.12127 -0.43959,-0.091 -0.43959,-0.46991 0,0.24254 0.13643,-2.66788 0.27285,-6.13915 0.27285,-8.06426 0,-1.62195 -0.10611,-4.86585 -0.10611,-3.243897 -0.10611,-4.865845 0,-0.333485 0.34864,-0.333485 0.46991,0 1.40973,0.04547 0.95498,0.04547 1.42489,0.04547 0.46991,0 1.37942,-0.04547 0.92466,-0.04547 1.39457,-0.04547 0.43959,0 0.43959,0.333485 0,1.621948 -0.1819,4.865845 -0.16674,3.2439 -0.16674,4.86585 z"
           style="font-family:'Berlin Sans FB Demi';-inkscape-font-specification:'Berlin Sans FB Demi';stroke:#00ffff;stroke-width:0.198437;stroke-dasharray:none"
           id="path555" />
        <path
           d="m 148.04217,117.73957 q -1.30362,0 -3.39548,-0.0606 -2.72851,-0.0606 -3.39548,-0.0758 l -4.53236,-0.0606 q -0.68213,0.0152 -1.95543,-0.0606 -0.4396,-0.0758 -0.4396,-0.46991 0,-1.65226 0.0455,-4.94164 0.0606,-3.30453 0.0606,-4.95679 0,-1.75838 -0.10611,-5.25997 -0.10611,-3.516744 -0.10611,-5.275118 0,-0.333485 0.45476,-0.333485 0.45475,0 1.34909,0.04547 0.90951,0.04548 1.3491,0.04548 0.50023,0 1.48552,-0.04548 0.9853,-0.06063 1.48553,-0.06063 0.22737,0 0.21221,0.28801 l -0.0152,0.197059 q -0.18191,2.849779 -0.40928,8.564494 l -0.0152,4.00182 q 0,1.94027 0.0152,2.83462 0.0152,0.1819 0.0303,0.3638 0.0152,0.1819 0.22737,0.22738 0.0152,0 0.39412,0 1.36426,0 4.07761,-0.13643 2.72851,-0.15158 4.09277,-0.15158 0.40927,0 0.40927,0.34864 0,2.59209 -0.37896,4.47173 -0.0758,0.39412 -0.31832,0.46991 -0.0758,0.0303 -0.6215,0.0303 z"
           style="font-family:'Berlin Sans FB Demi';-inkscape-font-specification:'Berlin Sans FB Demi';stroke:#00ffff;stroke-width:0.198437;stroke-dasharray:none"
           id="path557" />
        <path
           d="m 165.01957,117.73957 q -1.30362,0 -3.39548,-0.0606 -2.72851,-0.0606 -3.39548,-0.0758 l -4.53236,-0.0606 q -0.68213,0.0152 -1.95543,-0.0606 -0.4396,-0.0758 -0.4396,-0.46991 0,-1.65226 0.0455,-4.94164 0.0606,-3.30453 0.0606,-4.95679 0,-1.75838 -0.10611,-5.25997 -0.10611,-3.516744 -0.10611,-5.275118 0,-0.333485 0.45476,-0.333485 0.45475,0 1.34909,0.04547 0.90951,0.04548 1.3491,0.04548 0.50023,0 1.48552,-0.04548 0.9853,-0.06063 1.48553,-0.06063 0.22737,0 0.21222,0.28801 l -0.0152,0.197059 q -0.1819,2.849779 -0.40928,8.564494 l -0.0152,4.00182 q 0,1.94027 0.0152,2.83462 0.0152,0.1819 0.0303,0.3638 0.0152,0.1819 0.22737,0.22738 0.0152,0 0.39412,0 1.36426,0 4.07761,-0.13643 2.72851,-0.15158 4.09277,-0.15158 0.40927,0 0.40927,0.34864 0,2.59209 -0.37896,4.47173 -0.0758,0.39412 -0.31832,0.46991 -0.0758,0.0303 -0.6215,0.0303 z"
           style="font-family:'Berlin Sans FB Demi';-inkscape-font-specification:'Berlin Sans FB Demi';stroke:#00ffff;stroke-width:0.198437;stroke-dasharray:none"
           id="path559" />
        <path
           d="m 178.40444,110.50901 q 0,3.07715 -2.59208,5.27512 -2.27376,1.94028 -5.53282,2.47082 -0.12127,0.0152 -0.19706,0.0152 -0.34864,0 -1.54615,-2.12218 -1.19752,-2.13733 -1.19752,-2.60724 0,-0.16674 0.22738,-0.21222 2.19797,-0.50023 2.91041,-0.84887 1.57647,-0.78824 1.57647,-2.33439 0,-0.9853 -1.03077,-2.19797 -1.78869,-2.06154 -1.94027,-2.28892 -1.04593,-1.57647 -1.04593,-3.48643 0,-2.773986 2.56177,-4.608153 2.09186,-1.515839 5.13869,-1.970591 0.16675,-0.01516 0.2577,-0.01516 0.22737,0 0.3638,0.363802 0.39412,1.106563 1.83417,4.001817 0.0455,0.09095 0.0455,0.151585 0,0.25769 -0.27285,0.25769 -0.12127,0 -0.40928,-0.0455 -0.28801,-0.0455 -0.43959,-0.0455 -1.09141,0 -1.90996,0.50023 -0.98529,0.57602 -0.98529,1.60679 0,0.92466 1.0914,2.27376 1.92512,2.42534 2.01607,2.54661 1.07624,1.66742 1.07624,3.31969 z"
           style="font-family:'Berlin Sans FB Demi';-inkscape-font-specification:'Berlin Sans FB Demi';stroke:#00ffff;stroke-width:0.198437;stroke-dasharray:none"
           id="path561" />
      </g>
    </g>
  </g>
</svg>
