<?xml version="1.0" encoding="UTF-8" standalone="no"?>
<!-- Created with Inkscape (http://www.inkscape.org/) -->

<svg
   width="152.70432mm"
   height="22.918106mm"
   viewBox="0 0 152.70431 22.918106"
   version="1.1"
   id="svg5"
   xml:space="preserve"
   inkscape:version="1.2.2 (732a01da63, 2022-12-09)"
   sodipodi:docname="VanillaJs.svg"
   xmlns:inkscape="http://www.inkscape.org/namespaces/inkscape"
   xmlns:sodipodi="http://sodipodi.sourceforge.net/DTD/sodipodi-0.dtd"
   xmlns="http://www.w3.org/2000/svg"
   xmlns:svg="http://www.w3.org/2000/svg"><sodipodi:namedview
     id="namedview7"
     pagecolor="#ffffff"
     bordercolor="#000000"
     borderopacity="0.25"
     inkscape:showpageshadow="2"
     inkscape:pageopacity="0.0"
     inkscape:pagecheckerboard="0"
     inkscape:deskcolor="#d1d1d1"
     inkscape:document-units="mm"
     showgrid="false"
     inkscape:zoom="0.09231464"
     inkscape:cx="-10740.442"
     inkscape:cy="-2090.676"
     inkscape:window-width="2560"
     inkscape:window-height="1009"
     inkscape:window-x="-8"
     inkscape:window-y="-8"
     inkscape:window-maximized="1"
     inkscape:current-layer="layer1" /><defs
     id="defs2" /><g
     inkscape:label="Layer 1"
     inkscape:groupmode="layer"
     id="layer1"
     transform="translate(-100.5789,-85.167202)"><g
       id="g87163"
       transform="translate(-246.60628,-186.03099)"
       inkscape:export-filename="..\..\Developing\VanillaPortfolio\assets\images\about-me.png"
       inkscape:export-xdpi="96"
       inkscape:export-ydpi="96"><path
         d="m 368.74731,292.9119 q 0,0.27285 -0.37896,0.37896 -0.45475,0.12127 -2.81946,0.12127 -2.16765,0 -2.78915,-0.12127 -0.51538,-0.10611 -0.65181,-0.68212 -0.51538,-2.18281 -0.80339,-2.3344 -0.24254,-0.10611 -4.06245,-0.10611 -2.57693,0 -2.74367,0.13643 -0.2577,0.24253 -0.57602,1.62195 -0.28801,1.25814 -0.69729,1.36425 -0.51538,0.12127 -3.45611,0.12127 -2.31924,0 -2.31924,-0.43959 0,-0.39412 3.4258,-9.68622 3.71381,-10.05002 4.03213,-11.05047 0.1819,-0.57602 0.42444,-0.57602 0.40927,0 1.25815,0.0758 0.86402,0.0758 1.28846,0.0758 0.40928,0 1.19751,-0.0455 0.8034,-0.0606 1.19752,-0.0606 0.28801,0 0.53054,0.50023 0.74276,1.59163 4.3353,10.91405 3.6077,9.38305 3.6077,9.79232 z m -10.7473,-13.8093 q -0.31833,0.66697 -1.07625,2.89526 -0.81855,2.36471 -0.81855,2.77398 0,0.27285 0.9095,0.30317 0.46991,0.0303 1.54616,0.0303 1.00045,0 1.10656,-0.24254 0.0303,-0.0758 0.0303,-0.21221 0,-0.50023 -0.69729,-2.75883 -0.68213,-2.18281 -1.00045,-2.78915 z"
         id="path35394"
         style="font-size:31.0444px;font-family:'Berlin Sans FB Demi';-inkscape-font-specification:'Berlin Sans FB Demi';text-align:center;text-anchor:middle;stroke:#fea6cc;stroke-width:0.529167;stroke-dasharray:none;stroke-opacity:1"
         inkscape:export-filename="..\..\Developing\VanillaPortfolio\assets\images\about-me.svg"
         inkscape:export-xdpi="150"
         inkscape:export-ydpi="150" /><path
         d="m 388.21069,286.74244 q 0,2.78914 -1.74321,4.62331 -1.98575,2.10701 -6.97287,2.10701 -0.37896,0 -1.0914,-0.0152 -0.7276,0 -1.07625,0 -5.59345,0 -6.65453,-0.22738 -0.4396,-0.091 -0.4396,-0.46991 0,-1.62195 0.1819,-4.91132 0.19706,-3.28937 0.19706,-4.92648 0,-1.75838 -0.1819,-6.60906 -0.0455,-1.24299 -0.16674,-3.72897 l -0.0152,-0.21222 q -0.0152,-0.28801 0.46991,-0.34864 0.50023,-0.0606 3.51675,-0.0606 4.83553,0 5.65408,0.0303 3.72897,0.13643 5.5025,1.21268 2.34955,1.44004 2.34955,4.86584 0,0.89435 -0.5457,1.8948 -0.39412,0.71245 -1.03077,1.42489 -0.56086,0.62149 -0.56086,0.57602 0,0.10611 0.39412,0.33348 1.06108,0.60634 1.66742,1.92512 0.5457,1.18236 0.5457,2.5163 z m -6.51811,-8.53418 q 0,-1.30363 -1.30362,-1.72806 -0.7276,-0.22738 -2.39503,-0.22738 -1.6371,0 -1.6371,0.24254 0,0.28801 -0.0606,0.87919 -0.0455,0.57601 -0.0455,0.86402 0,1.51584 0.25769,1.69774 0.16674,0.13643 1.92512,0.13643 3.25905,0 3.25905,-1.86448 z m 0.45475,8.47354 q 0,-1.36425 -1.13688,-1.84932 -0.7276,-0.30317 -2.36471,-0.30317 -1.95543,0 -2.12217,0.15158 -0.16674,0.13643 -0.16674,1.84933 0,1.78869 0.19705,1.98575 0.19706,0.1819 2.18281,0.1819 1.63711,0 2.30408,-0.25769 1.10656,-0.4396 1.10656,-1.75838 z"
         id="path35396"
         style="font-size:31.0444px;font-family:'Berlin Sans FB Demi';-inkscape-font-specification:'Berlin Sans FB Demi';text-align:center;text-anchor:middle;stroke:#fea6cc;stroke-width:0.529167;stroke-dasharray:none;stroke-opacity:1" /><path
         d="m 411.19082,282.67998 q 0,4.72942 -3.01652,7.92785 -3.07715,3.24389 -7.79142,3.24389 -4.68394,0 -7.77625,-3.27421 -3.03168,-3.19842 -3.03168,-7.89753 0,-4.71426 3.03168,-7.92784 3.09231,-3.28937 7.77625,-3.28937 4.65363,0 7.7611,3.28937 3.04684,3.2439 3.04684,7.92784 z m -5.74503,-0.0303 q 0,-2.27376 -1.37942,-3.86539 -1.44004,-1.66743 -3.68349,-1.66743 -2.13733,0 -3.62285,1.72806 -1.44005,1.66742 -1.44005,3.83507 0,2.31924 1.3491,3.8654 1.42489,1.62194 3.7138,1.62194 2.13734,0 3.63802,-1.71289 1.42489,-1.63711 1.42489,-3.80476 z"
         id="path35398"
         style="font-size:31.0444px;font-family:'Berlin Sans FB Demi';-inkscape-font-specification:'Berlin Sans FB Demi';text-align:center;text-anchor:middle;stroke:#fea6cc;stroke-width:0.529167;stroke-dasharray:none;stroke-opacity:1" /><path
         d="m 431.54856,285.84809 q 0,3.86539 -0.92467,5.27512 -1.69774,2.57693 -8.47354,2.57693 -3.062,0 -4.71426,-0.46991 -2.63756,-0.75792 -3.4258,-2.89525 -0.39412,-1.04593 -0.39412,-3.72897 0,-0.62149 0.0455,-1.84933 0.0455,-1.22783 0.0455,-1.83416 0,-1.75838 -0.16674,-5.27512 -0.16674,-3.51675 -0.16674,-5.25997 0,-0.3638 0.31832,-0.3638 0.92466,0 2.78915,0.0758 1.87964,0.0758 2.8043,0.0758 0.37896,0 0.37896,0.33349 0,2.00091 -0.13642,6.00272 -0.12127,3.98666 -0.12127,5.98757 0,2.37987 0.50023,3.21358 0.66697,1.13688 2.78914,1.13688 3.10747,0 3.10747,-3.01652 0,-2.19797 -0.10611,-6.5939 -0.1061,-4.39594 -0.1061,-6.59391 0,-0.46991 0.37896,-0.46991 0.89434,0 2.69819,-0.0758 1.80385,-0.0758 2.69819,-0.0758 0.4396,0 0.4396,0.3638 0,1.74322 -0.15159,5.25997 -0.13642,3.51674 -0.13642,5.27512 0,0.48507 0.0152,1.47036 0.0152,0.97014 0.0152,1.45521 z"
         id="path35400"
         style="font-size:31.0444px;font-family:'Berlin Sans FB Demi';-inkscape-font-specification:'Berlin Sans FB Demi';text-align:center;text-anchor:middle;stroke:#fea6cc;stroke-width:0.529167;stroke-dasharray:none;stroke-opacity:1" /><path
         d="m 449.29904,276.6621 q 0,0.30317 -0.33349,0.30317 -0.57602,0 -4.56268,-0.22738 -0.091,3.83508 -0.091,5.35092 0,1.78869 0.13643,5.38123 0.15158,3.59254 0.15158,5.38123 0,0.28801 -0.13642,0.3638 -0.0455,0.0303 -0.42444,0.0758 -0.9095,0.12127 -2.66788,0.12127 -1.95543,0 -2.74367,-0.12127 -0.42443,-0.0758 -0.42443,-0.46991 0,-1.78869 0.15158,-5.36607 0.15159,-3.57738 0.15159,-5.36607 0,-1.18236 -0.12127,-5.27513 -3.03168,0.30317 -4.83553,0.30317 -0.24253,0 -0.24253,-0.15158 0,-0.19706 0.21221,-1.1672 0.24254,-1.06109 0.27285,-1.28846 0.0455,-0.71245 0.10611,-1.42489 0.10611,-1.13688 0.3638,-1.13688 0.0303,0 0.21222,0.0152 2.45566,0.31832 7.26087,0.31832 1.36426,0 5.03259,-0.28801 1.97059,-0.15158 1.98575,-0.15158 0.30317,0 0.34865,0.0455 0.0455,0.0303 0.0606,0.28801 0,0.40928 -0.0303,1.13688 -0.0303,0.8034 -0.0303,1.13688 0,0.37896 0.0909,1.12173 0.10611,0.7276 0.10611,1.0914 z"
         id="path35402"
         style="font-size:31.0444px;font-family:'Berlin Sans FB Demi';-inkscape-font-specification:'Berlin Sans FB Demi';text-align:center;text-anchor:middle;stroke:#fea6cc;stroke-width:0.529167;stroke-dasharray:none;stroke-opacity:1" /><path
         d="m 481.28326,292.82095 q 0,0.46991 -0.4396,0.46991 h -5.36607 q -0.43959,0 -0.43959,-0.53054 0,-1.531 0.10611,-4.593 0.12126,-3.06199 0.12126,-4.59299 0,-0.43959 -0.13642,-0.46991 -0.16674,0.091 -2.03123,4.68394 -1.0914,2.6982 -2.18281,5.38124 -0.15158,0.34864 -0.37896,0.40927 -0.0758,0.0152 -0.60633,0.0152 -0.78824,0 -0.93982,-0.30317 -0.81856,-1.66742 -2.1525,-4.85068 -1.42488,-3.36517 -2.13733,-4.86585 -0.0303,-0.0758 -0.13642,-0.16674 -0.10611,0.13642 -0.10611,0.43959 0,1.48552 0.0758,4.45657 0.0758,2.97105 0.0758,4.45657 0,0.53054 -0.42443,0.53054 h -5.06291 q -0.30317,0 -0.37896,-0.091 -0.0606,-0.10611 -0.0606,-0.34864 0,-1.65227 0.15158,-4.9568 0.16674,-3.31969 0.16674,-4.97195 0,-1.75838 -0.15158,-6.5939 -0.0152,-1.25815 -0.13643,-3.74413 l -0.0152,-0.25769 q -0.0152,-0.30317 0.63665,-0.30317 0.83371,0 2.50113,-0.0455 1.66743,-0.0606 2.50114,-0.0606 0.16674,0 0.46991,0.63665 l 4.42625,9.71654 q 0.46991,0.98529 0.78824,0.98529 0.16674,0 0.71244,-1.13688 1.531,-3.18326 4.53236,-9.59526 0.2577,-0.59118 0.56086,-0.59118 0.4396,0 1.31879,0.0455 0.89434,0.0455 1.34909,0.0455 0.37896,0 1.15204,-0.0758 0.78824,-0.0758 1.1672,-0.0758 0.45475,0 0.45475,0.3638 0,1.78869 -0.13643,5.35091 -0.12126,3.54707 -0.12126,5.33576 0,1.65226 0.13642,4.95679 0.13643,3.30454 0.13643,4.94164 z"
         id="path35404"
         style="font-size:31.0444px;font-family:'Berlin Sans FB Demi';-inkscape-font-specification:'Berlin Sans FB Demi';text-align:center;text-anchor:middle;stroke:#fea6cc;stroke-width:0.529167;stroke-dasharray:none;stroke-opacity:1" /><path
         d="m 499.62492,288.5766 q 0,0.65181 -0.25769,2.39503 -0.27286,1.8948 -0.48507,2.2586 -0.1819,0.28801 -0.50023,0.28801 -0.13643,0 -0.45475,-0.0455 -1.10657,-0.15158 -6.45748,-0.15158 -1.1672,0 -3.47127,-0.0152 -2.30408,-0.0152 -3.45612,-0.0152 -0.50023,0 -0.50023,-0.43959 0,-1.69774 0.18191,-5.09322 0.19705,-3.41064 0.19705,-5.10838 0,-1.72806 -0.1819,-6.44232 -0.0455,-1.21267 -0.16674,-3.62286 l -0.0152,-0.21222 q -0.0303,-0.34864 0.37896,-0.34864 1.12172,0 3.36517,0.0606 2.2586,0.0606 3.38032,0.0606 1.10656,0 3.33485,-0.0606 2.22828,-0.0606 3.33485,-0.0606 0.78823,0 0.9095,0.59118 0.0758,0.34864 0.22738,2.12217 0.16674,1.75838 0.16674,2.13734 0,0.31832 -0.30317,0.31832 -0.0909,0 -0.31833,-0.0152 -4.03213,-0.33349 -7.24571,-0.33349 -0.8034,0 -0.9853,0.37896 -0.0758,0.1819 -0.0758,1.1672 0,1.03077 0.30317,1.36425 0.25769,0.28801 0.98529,0.28801 0.15159,0 0.59118,-0.0152 0.4396,-0.0303 0.72761,-0.0303 1.90995,0 3.86539,-0.10611 0.16674,-0.0152 0.83371,-0.0758 0.51538,-0.0606 0.81855,-0.0606 0.3638,0 0.3638,0.34865 0,-0.31833 -0.27285,2.31923 -0.12126,1.21267 -0.12126,2.42535 0,0.30316 -0.4396,0.30316 0,0 -1.36425,-0.15158 -0.86403,-0.0909 -3.94119,-0.0909 h -1.60679 q -0.62149,0 -0.7276,0.30317 -0.0152,0.0758 -0.0152,0.93982 0,1.15204 0.15158,1.48552 0.2577,0.57602 1.94028,0.68213 -0.0303,0 2.21313,0 0.80339,0 2.37986,-0.13643 1.59164,-0.15158 2.37987,-0.15158 0.33349,0 0.33349,0.5457 z"
         id="path35406"
         style="font-size:31.0444px;font-family:'Berlin Sans FB Demi';-inkscape-font-specification:'Berlin Sans FB Demi';text-align:center;text-anchor:middle;stroke:#fea6cc;stroke-width:0.529167;stroke-dasharray:none;stroke-opacity:1" /></g></g></svg>
