<?xml version="1.0" encoding="UTF-8" standalone="no"?>
<!-- Created with Inkscape (http://www.inkscape.org/) -->

<svg
   width="229.21017mm"
   height="29.422394mm"
   viewBox="0 0 229.21017 29.422394"
   version="1.1"
   id="svg5"
   xml:space="preserve"
   inkscape:version="1.2.2 (732a01da63, 2022-12-09)"
   sodipodi:docname="VanillaJs.svg"
   xmlns:inkscape="http://www.inkscape.org/namespaces/inkscape"
   xmlns:sodipodi="http://sodipodi.sourceforge.net/DTD/sodipodi-0.dtd"
   xmlns="http://www.w3.org/2000/svg"
   xmlns:svg="http://www.w3.org/2000/svg"><sodipodi:namedview
     id="namedview7"
     pagecolor="#ffffff"
     bordercolor="#000000"
     borderopacity="0.25"
     inkscape:showpageshadow="2"
     inkscape:pageopacity="0.0"
     inkscape:pagecheckerboard="0"
     inkscape:deskcolor="#d1d1d1"
     inkscape:document-units="mm"
     showgrid="false"
     inkscape:zoom="0.36925856"
     inkscape:cx="901.80712"
     inkscape:cy="446.84137"
     inkscape:window-width="2560"
     inkscape:window-height="1009"
     inkscape:window-x="-8"
     inkscape:window-y="-8"
     inkscape:window-maximized="1"
     inkscape:current-layer="layer1" /><defs
     id="defs2" /><g
     inkscape:label="Layer 1"
     inkscape:groupmode="layer"
     id="layer1"
     transform="translate(-328.11716,-342.85818)"><g
       aria-label="Elizabeth Clohosey"
       id="text28482"
       style="font-size:31.0444px;font-family:script;-inkscape-font-specification:script;text-align:center;text-anchor:middle;fill:#fea6cc;fill-opacity:1;stroke-width:0.198"
       inkscape:export-filename="..\..\Developing\VanillaPortfolio\assets\images\brand_name.svg"
       inkscape:export-xdpi="75"
       inkscape:export-ydpi="75"><path
         d="m 343.7455,361.13916 q -1.95543,1.90996 -3.92602,2.8043 -1.97059,0.89435 -4.45657,0.89435 -3.28937,0 -5.27512,-1.59163 -1.9706,-1.59163 -1.9706,-4.18372 0,-2.2586 1.62195,-3.95634 1.62195,-1.7129 4.97196,-2.37987 -3.22874,-1.22783 -3.22874,-4.13824 0,-2.31924 2.22828,-4.00182 2.22829,-1.69774 5.36608,-1.69774 2.2586,0 3.27421,0.89434 1.01561,0.87919 1.01561,1.60679 0,0.45476 -0.75792,1.40974 -0.75792,0.95497 -1.10656,0.95497 -0.40928,0 -0.59118,-1.15203 -0.42443,-2.57693 -2.0767,-2.57693 -1.28846,0 -2.33439,1.44005 -1.04593,1.44004 -1.04593,3.25905 0,2.91041 2.84978,2.91041 0.46991,0 0.63665,0.0606 0.16674,0.0455 0.16674,0.25769 0,0.57602 -0.22737,1.27331 -0.22738,0.68212 -0.57602,0.68212 -0.10611,0 -0.75792,-0.0758 -0.65181,-0.091 -1.13688,-0.091 -1.60679,0 -2.75883,1.31878 -1.15204,1.31878 -1.15204,3.18327 0,2.01606 1.3491,3.35 1.3491,1.31878 3.41064,1.31878 1.69774,0 3.39548,-0.9095 1.69774,-0.9095 3.09231,-2.60725 z"
         style="font-weight:bold;font-family:'Script MT Bold';-inkscape-font-specification:'Script MT Bold,  Bold';fill:#fea6cc;fill-opacity:1"
         id="path30374" /><path
         d="m 353.7652,361.13916 q -2.06154,1.8948 -3.62285,2.8043 -1.54616,0.89435 -2.95589,0.89435 -1.62195,0 -2.6224,-1.25815 -0.9853,-1.25814 -0.9853,-3.38032 0,-3.18326 1.37942,-7.63983 1.37941,-4.45657 3.35,-8.21585 l 3.85023,-1.42489 q 0.18191,-0.0606 0.27286,-0.0606 0.43959,0 0.71244,0.65181 0.28801,0.63666 0.28801,1.72806 0,3.09231 -1.42489,5.98757 -1.42489,2.89525 -4.45657,6.18462 -0.12127,1.57648 -0.12127,2.16766 0,1.31878 0.48507,2.09185 0.48507,0.77308 1.28847,0.77308 0.81855,0 1.74321,-0.59118 0.92466,-0.59117 2.81946,-2.45566 z m -5.80566,-5.92693 q 1.92511,-2.13734 3.12263,-4.79006 1.19751,-2.65272 1.19751,-4.56267 0,-0.56087 -0.16674,-0.89435 -0.16674,-0.34864 -0.42444,-0.34864 -0.56086,0 -1.6371,2.78914 -1.06109,2.78915 -2.09186,7.80658 z"
         style="font-weight:bold;font-family:'Script MT Bold';-inkscape-font-specification:'Script MT Bold,  Bold';fill:#fea6cc;fill-opacity:1"
         id="path30376" /><path
         d="m 360.91997,345.70791 q 0,3.63802 -2.68304,3.63802 -1.30362,0 -2.22828,-0.78824 0.87918,-1.33394 1.36425,-3.00136 1.19752,0.74276 1.92512,0.74276 0.81855,0 1.62195,-0.59118 z m 0.30317,15.43125 q -3.54707,3.72897 -5.30544,3.72897 -0.97014,0 -1.63711,-0.9853 -0.66697,-1.00045 -0.66697,-2.50114 0,-3.22873 2.18281,-8.94345 l 3.85023,-0.8034 h 0.1819 l -1.51584,4.74458 q -0.93982,2.94073 -0.93982,4.19888 0,0.50023 0.21222,0.81855 0.22738,0.30317 0.56086,0.30317 0.59118,0 1.18236,-0.42443 0.60633,-0.4396 1.8948,-1.87965 z"
         style="font-weight:bold;font-family:'Script MT Bold';-inkscape-font-specification:'Script MT Bold,  Bold';fill:#fea6cc;fill-opacity:1"
         id="path30378" /><path
         d="m 376.10868,361.13916 q -2.06154,2.27376 -3.10747,3.00136 -1.03077,0.72761 -2.04638,0.72761 -0.57602,0 -2.12218,-0.50023 -1.531,-0.50023 -2.31923,-0.50023 -0.9853,0 -1.44005,0.50023 -0.4396,0.50023 -0.57602,0.50023 -0.75792,0 -0.9095,-0.0303 -0.15159,-0.0152 -0.15159,-0.10611 0,-0.33348 2.59209,-3.50159 l 5.22964,-6.36653 q -0.87918,0.1819 -1.89479,0.1819 -1.36426,0 -2.81947,-0.45475 -2.72851,3.91087 -5.30544,6.54843 h -0.34864 v -1.36426 q 1.92512,-1.97059 3.69865,-4.41109 1.78869,-2.45566 2.0767,-3.09231 0.28801,-0.63666 0.46991,-0.63666 0.10611,0 1.39457,0.21222 1.28847,0.19706 2.0767,0.19706 1.42489,0 2.60725,-0.19706 1.19751,-0.21222 1.39457,-0.21222 0.28801,0 0.28801,0.15159 0,0.56086 -2.4405,3.48643 l -4.89616,5.92693 q 0.60633,-0.0606 1.00045,-0.0606 0.28801,0 1.95543,0.34864 1.68259,0.33349 2.01607,0.33349 0.93982,0 1.60679,-0.50023 0.68213,-0.51538 1.97059,-1.92512 z"
         style="font-weight:bold;font-family:'Script MT Bold';-inkscape-font-specification:'Script MT Bold,  Bold';fill:#fea6cc;fill-opacity:1"
         id="path30380" /><path
         d="m 392.2827,361.13916 q -2.42535,2.30408 -3.47128,3.00136 -1.04593,0.69729 -2.00091,0.69729 -2.39502,0 -2.2586,-4.22919 -1.51584,2.16765 -2.8043,3.19842 -1.27331,1.03077 -2.63756,1.03077 -1.33394,0 -2.27376,-1.24299 -0.92466,-1.25815 -0.92466,-3.07715 0,-2.27376 1.24299,-4.33531 1.25814,-2.06154 3.21358,-3.33484 1.95543,-1.27331 3.45611,-1.27331 1.8948,0 2.65272,1.74322 l 3.09231,-1.7129 h 0.84887 l -1.33394,4.44141 q -1.03077,3.35 -1.03077,4.59299 0,1.30363 0.92467,1.30363 0.59117,0 1.30362,-0.6215 0.71244,-0.63665 2.00091,-1.92512 z m -11.09595,0.83371 q 1.51584,0 2.84978,-2.57693 1.3491,-2.59208 1.3491,-4.77489 0,-0.84887 -0.37896,-1.31878 -0.37896,-0.48507 -1.01562,-0.48507 -1.51584,0 -2.88009,2.57693 -1.3491,2.57693 -1.3491,4.74458 0,0.81855 0.39412,1.33394 0.40927,0.50022 1.03077,0.50022 z"
         style="font-weight:bold;font-family:'Script MT Bold';-inkscape-font-specification:'Script MT Bold,  Bold';fill:#fea6cc;fill-opacity:1"
         id="path30382" /><path
         d="m 405.87978,361.13916 q -1.04593,1.12172 -2.54661,1.12172 -1.18236,0 -2.51629,-1.12172 -1.62195,1.86448 -2.8801,2.75883 -1.24299,0.89434 -2.71335,0.89434 -1.31878,0 -2.21313,-1.0914 -0.89435,-1.09141 -0.89435,-2.71335 0,-3.16811 1.84933,-8.53418 1.84932,-5.38123 3.62286,-8.14006 2.0009,-0.63665 3.51674,-1.03077 1.531,-0.39412 1.75838,-0.39412 0.43959,0 0.75792,0.59118 0.33348,0.57602 0.33348,1.39457 0,1.69774 -1.40973,3.98666 -1.40973,2.27376 -3.65317,4.5172 l -1.98575,1.98575 q -0.93982,3.30453 -0.93982,4.86585 0,0.86403 0.39412,1.37941 0.39411,0.51539 1.03077,0.51539 0.74276,0 1.33394,-0.46991 0.60633,-0.46991 1.34909,-1.45521 -0.75792,-1.30362 -0.75792,-2.66788 0,-2.19797 1.18236,-4.06245 1.19751,-1.86448 2.54661,-1.86448 0.53054,0 0.86403,0.46991 0.34864,0.46991 0.34864,1.24299 0,2.48597 -2.78914,6.79096 0.83371,1.03077 1.8948,1.03077 0.66697,0 1.15203,-0.30317 0.48507,-0.31832 1.36426,-1.44005 z m -8.23101,-8.10974 q 2.45566,-2.41019 3.72897,-4.44141 1.2733,-2.04639 1.2733,-3.09232 0,-0.42443 -0.19706,-0.69728 -0.1819,-0.27285 -0.45475,-0.27285 -1.77353,0 -4.35046,8.50386 z"
         style="font-weight:bold;font-family:'Script MT Bold';-inkscape-font-specification:'Script MT Bold,  Bold';fill:#fea6cc;fill-opacity:1"
         id="path30384" /><path
         d="m 417.2031,361.13916 q -1.92511,1.8948 -3.45611,2.8043 -1.531,0.89435 -3.38032,0.89435 -2.06155,0 -3.33485,-1.31878 -1.25815,-1.31878 -1.25815,-3.47127 0,-3.21358 2.22829,-5.80567 2.22828,-2.60725 4.94163,-2.60725 1.40974,0 2.25861,0.72761 0.84887,0.7276 0.84887,1.90996 0,3.13778 -6.6697,5.09322 0.60634,2.95589 3.16811,2.95589 1.00045,0 1.90995,-0.53055 0.90951,-0.5457 2.74367,-2.39503 z m -7.943,-2.8043 q 3.88055,-1.09141 3.88055,-4.03214 0,-1.4552 -1.06108,-1.4552 -1.00046,0 -1.90996,1.53099 -0.90951,1.51584 -0.90951,3.95635 z"
         style="font-weight:bold;font-family:'Script MT Bold';-inkscape-font-specification:'Script MT Bold,  Bold';fill:#fea6cc;fill-opacity:1"
         id="path30386" /><path
         d="m 425.93434,361.13916 q -1.90996,1.8948 -3.30453,2.8043 -1.39458,0.89435 -2.65272,0.89435 -1.30362,0 -2.12218,-1.09141 -0.80339,-1.10656 -0.80339,-2.89525 0,-1.57647 0.75792,-4.16856 l 0.66697,-2.28892 -1.1672,0.0606 0.48507,-2.37987 1.44005,-0.0606 1.42489,-4.72942 4.06245,-0.83371 -1.54616,5.27513 2.10702,-0.12127 -0.50023,2.33439 -2.34955,0.1819 -1.01561,3.39548 q -0.51539,1.77354 -0.51539,2.81947 0,0.71244 0.34864,1.16719 0.3638,0.4396 0.92467,0.4396 0.77307,0 1.53099,-0.48507 0.75792,-0.50023 2.22829,-2.06155 z"
         style="font-weight:bold;font-family:'Script MT Bold';-inkscape-font-specification:'Script MT Bold,  Bold';fill:#fea6cc;fill-opacity:1"
         id="path30388" /><path
         d="m 440.80473,361.13916 q -3.59254,3.72897 -5.91178,3.72897 -1.03077,0 -1.7129,-0.69729 -0.66697,-0.71244 -0.66697,-1.78869 0,-1.81901 1.39458,-5.12354 0.74276,-1.78869 0.74276,-2.33439 0,-0.6215 -0.59118,-0.6215 -0.60634,0 -1.75837,0.83371 -1.15204,0.81856 -2.42535,2.24345 -0.53054,2.78914 -0.53054,6.70001 l -3.38032,0.78824 q -0.19706,-1.59164 -0.19706,-3.45612 0,-4.5172 1.24299,-8.41291 1.24298,-3.89571 3.91086,-8.26133 1.98575,-0.80339 3.45612,-1.30362 1.48552,-0.51538 1.69774,-0.51538 0.39412,0 0.66697,0.63665 0.27285,0.63665 0.27285,1.59163 0,1.60679 -0.9853,3.56222 -0.98529,1.94028 -3.09231,4.69911 2.01607,-1.1672 2.68304,-1.47037 0.66696,-0.30317 1.36425,-0.30317 0.77308,0 1.24299,0.56087 0.48507,0.5457 0.48507,1.4552 0,1.36426 -1.09141,4.22919 -1.07624,2.86494 -1.07624,3.59255 0,0.33348 0.19706,0.59117 0.21221,0.2577 0.48507,0.2577 0.97013,0 3.57738,-2.92558 z m -10.50477,-6.21494 q 5.41155,-6.29074 5.41155,-9.27694 0,-0.90951 -0.50023,-0.90951 -0.83371,0 -2.37987,2.98621 -1.54616,2.9862 -2.53145,7.20024 z"
         style="font-weight:bold;font-family:'Script MT Bold';-inkscape-font-specification:'Script MT Bold,  Bold';fill:#fea6cc;fill-opacity:1"
         id="path30390" /><path
         d="m 466.04346,361.13916 q -3.59254,3.72897 -8.6706,3.72897 -3.63801,0 -5.97241,-2.27376 -2.31923,-2.28892 -2.31923,-5.8663 0,-3.56223 1.68258,-6.77581 1.68258,-3.21358 4.39593,-5.13869 2.72852,-1.92512 5.35092,-1.92512 2.19797,0 3.57738,1.31878 1.39457,1.31878 1.39457,3.4258 0,2.74367 -1.68258,4.75973 -1.66742,2.00091 -3.91087,2.00091 -1.18235,0 -1.94027,-0.60633 -0.75792,-0.60634 -0.75792,-1.56132 0,-0.81855 0.65181,-1.51584 0.48507,0.89435 1.33394,0.89435 1.21267,0 2.24344,-1.51584 1.04593,-1.51584 1.04593,-3.31969 0,-1.25815 -0.59118,-2.00091 -0.57601,-0.74276 -1.54615,-0.74276 -1.40973,0 -3.01652,1.75837 -1.59163,1.75838 -2.66788,4.51721 -1.06109,2.75882 -1.06109,5.2448 0,3.16811 1.78869,5.19933 1.80385,2.03123 4.57784,2.03123 1.75837,0 3.1681,-0.81856 1.40973,-0.81855 2.92557,-2.56177 z"
         style="font-weight:bold;font-family:'Script MT Bold';-inkscape-font-specification:'Script MT Bold,  Bold';fill:#fea6cc;fill-opacity:1"
         id="path30392" /><path
         d="m 476.06316,361.13916 q -2.06154,1.8948 -3.62285,2.8043 -1.54616,0.89435 -2.95589,0.89435 -1.62195,0 -2.6224,-1.25815 -0.9853,-1.25814 -0.9853,-3.38032 0,-3.18326 1.37941,-7.63983 1.37942,-4.45657 3.35001,-8.21585 l 3.85023,-1.42489 q 0.1819,-0.0606 0.27285,-0.0606 0.4396,0 0.71245,0.65181 0.28801,0.63666 0.28801,1.72806 0,3.09231 -1.42489,5.98757 -1.42489,2.89525 -4.45657,6.18462 -0.12127,1.57648 -0.12127,2.16766 0,1.31878 0.48507,2.09185 0.48507,0.77308 1.28847,0.77308 0.81855,0 1.74321,-0.59118 0.92466,-0.59117 2.81946,-2.45566 z m -5.80566,-5.92693 q 1.92511,-2.13734 3.12263,-4.79006 1.19751,-2.65272 1.19751,-4.56267 0,-0.56087 -0.16674,-0.89435 -0.16674,-0.34864 -0.42444,-0.34864 -0.56086,0 -1.6371,2.78914 -1.06109,2.78915 -2.09186,7.80658 z"
         style="font-weight:bold;font-family:'Script MT Bold';-inkscape-font-specification:'Script MT Bold,  Bold';fill:#fea6cc;fill-opacity:1"
         id="path30394" /><path
         d="m 489.6754,361.13916 q -0.77308,0.68213 -1.50069,0.97014 -0.7276,0.27285 -1.15203,0.27285 -1.09141,0 -2.16765,-0.84887 -2.18281,3.30453 -5.00228,3.30453 -1.75837,0 -2.84977,-1.31878 -1.09141,-1.31878 -1.09141,-3.50159 0,-3.45612 2.45566,-5.92693 2.45566,-2.48598 5.8663,-2.48598 1.28847,0 1.87964,0.28801 0.60634,0.27285 0.74276,0.65181 0.13643,0.37896 0.13643,0.95498 0,2.83462 -1.54616,6.9577 0.77308,0.71245 1.62195,0.71245 1.01561,0 2.60725,-1.77354 z m -5.00228,-8.47354 q -0.22737,-0.0909 -0.65181,-0.0909 -1.97059,0 -3.09231,2.06154 -1.10656,2.06154 -1.10656,4.82037 0,1.531 0.48507,2.37987 0.48506,0.84887 1.34909,0.84887 1.07625,0 2.3344,-1.98575 -1.42489,-1.78869 -1.42489,-3.85024 0,-2.42534 2.10701,-4.18371 z"
         style="font-weight:bold;font-family:'Script MT Bold';-inkscape-font-specification:'Script MT Bold,  Bold';fill:#fea6cc;fill-opacity:1"
         id="path30396" /><path
         d="m 504.54579,361.13916 q -3.59254,3.72897 -5.91177,3.72897 -1.03077,0 -1.7129,-0.69729 -0.66697,-0.71244 -0.66697,-1.78869 0,-1.81901 1.39457,-5.12354 0.74276,-1.78869 0.74276,-2.33439 0,-0.6215 -0.59117,-0.6215 -0.60634,0 -1.75838,0.83371 -1.15204,0.81856 -2.42534,2.24345 -0.53055,2.78914 -0.53055,6.70001 l -3.38032,0.78824 q -0.19706,-1.59164 -0.19706,-3.45612 0,-4.5172 1.24299,-8.41291 1.24299,-3.89571 3.91087,-8.26133 1.98575,-0.80339 3.45611,-1.30362 1.48553,-0.51538 1.69774,-0.51538 0.39412,0 0.66697,0.63665 0.27285,0.63665 0.27285,1.59163 0,1.60679 -0.98529,3.56222 -0.9853,1.94028 -3.09232,4.69911 2.01607,-1.1672 2.68304,-1.47037 0.66697,-0.30317 1.36426,-0.30317 0.77308,0 1.24299,0.56087 0.48506,0.5457 0.48506,1.4552 0,1.36426 -1.0914,4.22919 -1.07625,2.86494 -1.07625,3.59255 0,0.33348 0.19706,0.59117 0.21222,0.2577 0.48507,0.2577 0.97014,0 3.57738,-2.92558 z m -10.50477,-6.21494 q 5.41155,-6.29074 5.41155,-9.27694 0,-0.90951 -0.50023,-0.90951 -0.83371,0 -2.37986,2.98621 -1.54616,2.9862 -2.53146,7.20024 z"
         style="font-weight:bold;font-family:'Script MT Bold';-inkscape-font-specification:'Script MT Bold,  Bold';fill:#fea6cc;fill-opacity:1"
         id="path30398" /><path
         d="m 518.14288,361.13916 q -0.77308,0.68213 -1.50068,0.97014 -0.7276,0.27285 -1.15204,0.27285 -1.0914,0 -2.16765,-0.84887 -2.18281,3.30453 -5.00227,3.30453 -1.75838,0 -2.84978,-1.31878 -1.09141,-1.31878 -1.09141,-3.50159 0,-3.45612 2.45566,-5.92693 2.45567,-2.48598 5.8663,-2.48598 1.28847,0 1.87965,0.28801 0.60633,0.27285 0.74276,0.65181 0.13642,0.37896 0.13642,0.95498 0,2.83462 -1.54615,6.9577 0.77307,0.71245 1.62195,0.71245 1.01561,0 2.60724,-1.77354 z m -5.00227,-8.47354 q -0.22738,-0.0909 -0.65181,-0.0909 -1.97059,0 -3.09232,2.06154 -1.10656,2.06154 -1.10656,4.82037 0,1.531 0.48507,2.37987 0.48507,0.84887 1.3491,0.84887 1.07624,0 2.33439,-1.98575 -1.42489,-1.78869 -1.42489,-3.85024 0,-2.42534 2.10702,-4.18371 z"
         style="font-weight:bold;font-family:'Script MT Bold';-inkscape-font-specification:'Script MT Bold,  Bold';fill:#fea6cc;fill-opacity:1"
         id="path30400" /><path
         d="m 522.7965,352.25634 q 1.04593,-0.27285 2.10702,-0.43959 1.06109,-0.18191 1.2733,-0.18191 0.15159,0 0.15159,0.12127 0,0.22738 -0.12127,0.46991 -0.24253,0.69729 -0.24253,1.33394 0,0.78824 0.9095,2.15249 0.9095,1.36426 0.9095,2.53146 0,2.31923 -2.22828,4.47172 -2.21313,2.1525 -4.59299,2.1525 -1.03078,0 -1.87965,-0.54571 -0.84887,-0.5457 -0.84887,-1.16719 0,-0.3638 0.83372,-1.37942 0.84887,-1.01561 1.21267,-1.01561 0.48507,0 0.86403,1.24299 0.37896,1.24299 1.30362,1.24299 0.92466,0 1.72806,-0.84887 0.81855,-0.86403 0.81855,-1.84933 0,-0.95498 -1.03077,-2.54661 -1.03077,-1.59163 -1.36426,-2.66788 -1.75837,2.83462 -4.45657,5.80567 h -0.34864 v -1.36426 q 3.71381,-3.95634 5.00227,-7.51856 z"
         style="font-weight:bold;font-family:'Script MT Bold';-inkscape-font-specification:'Script MT Bold,  Bold';fill:#fea6cc;fill-opacity:1"
         id="path30402" /><path
         d="m 541.13816,361.13916 q -1.92511,1.8948 -3.45611,2.8043 -1.531,0.89435 -3.38032,0.89435 -2.06155,0 -3.33485,-1.31878 -1.25815,-1.31878 -1.25815,-3.47127 0,-3.21358 2.22829,-5.80567 2.22828,-2.60725 4.94163,-2.60725 1.40973,0 2.2586,0.72761 0.84887,0.7276 0.84887,1.90996 0,3.13778 -6.66969,5.09322 0.60634,2.95589 3.1681,2.95589 1.00046,0 1.90996,-0.53055 0.90951,-0.5457 2.74367,-2.39503 z m -7.943,-2.8043 q 3.88055,-1.09141 3.88055,-4.03214 0,-1.4552 -1.06109,-1.4552 -1.00045,0 -1.90995,1.53099 -0.90951,1.51584 -0.90951,3.95635 z"
         style="font-weight:bold;font-family:'Script MT Bold';-inkscape-font-specification:'Script MT Bold,  Bold';fill:#fea6cc;fill-opacity:1"
         id="path30404" /><path
         d="m 557.32734,361.13916 q -1.92512,1.86448 -6.15431,3.81992 -1.40973,4.00181 -3.16811,5.65408 -1.75837,1.66742 -3.66833,1.66742 -0.97014,0 -1.56132,-0.59117 -0.57602,-0.59118 -0.57602,-1.57648 0,-2.9862 5.47219,-5.41155 l 0.92466,-3.25905 q -2.86494,3.19842 -5.03259,3.19842 -1.1672,0 -1.8948,-0.95498 -0.71244,-0.95498 -0.71244,-2.54661 0,-2.28892 1.00045,-4.91132 l 1.45521,-3.85023 4.41109,-0.77308 -1.8948,4.50204 q -1.30362,3.25906 -1.30362,4.91132 0,1.36426 0.92466,1.36426 0.93982,0 2.13733,-1.51584 1.21268,-1.51584 2.03123,-3.72897 l 1.72806,-4.75973 4.13824,-0.77308 -3.94118,11.85387 q 3.47127,-1.59164 5.6844,-4.06246 z m -10.0955,5.06291 q -1.86448,0.83371 -2.88009,1.86448 -1.00046,1.04593 -1.00046,2.04638 0,1.01561 0.86403,1.01561 1.68258,0 3.01652,-4.92647 z"
         style="font-weight:bold;font-family:'Script MT Bold';-inkscape-font-specification:'Script MT Bold,  Bold';fill:#fea6cc;fill-opacity:1"
         id="path30406" /></g></g></svg>
