<?xml version="1.0" encoding="UTF-8" standalone="no"?>
<!-- Created with Inkscape (http://www.inkscape.org/) -->

<svg
   width="189.20573mm"
   height="22.918121mm"
   viewBox="0 0 189.20573 22.918121"
   version="1.1"
   id="svg5"
   xml:space="preserve"
   inkscape:version="1.2.2 (732a01da63, 2022-12-09)"
   sodipodi:docname="VanillaJs.svg"
   xmlns:inkscape="http://www.inkscape.org/namespaces/inkscape"
   xmlns:sodipodi="http://sodipodi.sourceforge.net/DTD/sodipodi-0.dtd"
   xmlns="http://www.w3.org/2000/svg"
   xmlns:svg="http://www.w3.org/2000/svg"><sodipodi:namedview
     id="namedview7"
     pagecolor="#ffffff"
     bordercolor="#000000"
     borderopacity="0.25"
     inkscape:showpageshadow="2"
     inkscape:pageopacity="0.0"
     inkscape:pagecheckerboard="0"
     inkscape:deskcolor="#d1d1d1"
     inkscape:document-units="mm"
     showgrid="false"
     inkscape:zoom="0.45254834"
     inkscape:cx="815.38251"
     inkscape:cy="501.60387"
     inkscape:window-width="2560"
     inkscape:window-height="1009"
     inkscape:window-x="-8"
     inkscape:window-y="-8"
     inkscape:window-maximized="1"
     inkscape:current-layer="layer1" /><defs
     id="defs2" /><g
     inkscape:label="Layer 1"
     inkscape:groupmode="layer"
     id="layer1"
     transform="translate(-89.83659,-171.63264)"><g
       aria-label="CONTACT ME"
       id="text22390-9"
       style="font-weight:bold;font-size:31.0444px;font-family:'Berlin Sans FB Demi';-inkscape-font-specification:'Berlin Sans FB Demi Bold';text-align:center;text-anchor:middle;fill:#8f00dc;stroke:#a483d3;stroke-width:0.529167;stroke-dasharray:none;stroke-opacity:1"
       inkscape:export-filename="..\..\Developing\VanillaPortfolio\assets\images\contact-me.svg"
       inkscape:export-xdpi="96"
       inkscape:export-ydpi="96"><path
         d="m 108.36705,190.29953 q 0,0.24253 -0.31833,0.63665 -2.78914,3.31969 -7.41246,3.31969 -4.729416,0 -7.670146,-3.22874 -2.864937,-3.12263 -2.864937,-7.88237 0,-4.60815 2.804304,-7.82173 2.925571,-3.36516 7.442769,-3.36516 4.91133,0 7.70047,3.01652 0.30317,0.33348 0.30317,0.59118 0,0.28801 -1.06109,2.13733 -1.04593,1.84932 -1.31878,2.0767 -0.12127,0.12127 -0.30317,0.12127 -0.0758,0 -0.75792,-0.60634 -0.81855,-0.7276 -1.60679,-1.13688 -1.19751,-0.60633 -2.48598,-0.60633 -2.22828,0 -3.562219,1.66742 -1.22783,1.54616 -1.22783,3.81992 0,2.30407 1.22783,3.86539 1.333939,1.69774 3.562219,1.69774 1.31879,0 2.50114,-0.57602 0.77308,-0.37896 1.57647,-1.06109 0.66697,-0.57602 0.74277,-0.57602 0.15158,0 0.30316,0.16674 0.24254,0.27286 1.31878,1.8948 1.10657,1.68259 1.10657,1.84933 z"
         style="fill:#000000;stroke:#a483d3;stroke-width:0.529167;stroke-dasharray:none;stroke-opacity:1"
         id="path406988" /><path
         d="m 131.05917,183.11445 q 0,4.72942 -3.01652,7.92784 -3.07716,3.2439 -7.79142,3.2439 -4.68394,0 -7.77626,-3.27422 -3.03168,-3.19842 -3.03168,-7.89752 0,-4.71426 3.03168,-7.92784 3.09232,-3.28938 7.77626,-3.28938 4.65363,0 7.7611,3.28938 3.04684,3.24389 3.04684,7.92784 z m -5.74503,-0.0303 q 0,-2.27376 -1.37942,-3.86539 -1.44005,-1.66742 -3.68349,-1.66742 -2.13733,0 -3.62286,1.72805 -1.44004,1.66743 -1.44004,3.83508 0,2.31923 1.34909,3.86539 1.42489,1.62195 3.71381,1.62195 2.13733,0 3.63802,-1.7129 1.42489,-1.63711 1.42489,-3.80476 z"
         style="fill:#000000;stroke:#a483d3;stroke-width:0.529167;stroke-dasharray:none;stroke-opacity:1"
         id="path406990" /><path
         d="m 153.59971,172.928 q 0,1.72806 -0.15159,5.19933 -0.13642,3.45612 -0.13642,5.19934 v 9.98938 q 0,0.40928 -0.4396,0.40928 -0.3638,0 -1.10656,0.0303 -0.7276,0.0303 -1.09141,0.0303 -0.39411,0 -1.18235,-0.0606 -0.78824,-0.0606 -1.18236,-0.0606 -0.27285,0 -0.65181,-0.50022 -1.0914,-1.47037 -4.91132,-6.51812 -1.04593,-1.40973 -3.18326,-4.1534 -0.0606,-0.091 -0.22738,-0.1819 -0.12126,0.10611 -0.12126,0.33349 0,1.75837 0.0909,5.27512 0.10611,3.51675 0.10611,5.27512 0,0.53055 -0.40928,0.53055 h -5.24481 q -0.43959,0 -0.43959,-0.46991 0,-1.63711 0.15158,-4.94164 0.16675,-3.30453 0.16675,-4.9568 0,-1.74321 -0.15159,-5.21449 -0.13642,-3.47127 -0.13642,-5.19933 0,-0.33348 0.59117,-0.33348 0.87919,0 2.16765,-0.12127 0.30317,-0.0303 1.19752,-0.19706 0.75792,-0.13642 1.19751,-0.13642 0.1819,0 0.56086,0.51538 l 5.65408,7.74594 q 0.75792,1.04593 2.28892,3.062 0.37896,0.46991 0.65181,0.46991 0.19706,0 0.19706,-1.18236 0,-1.59163 -0.1819,-4.79005 -0.16674,-3.19842 -0.16674,-4.80521 0,-0.56086 0.31833,-0.56086 0.9095,0 2.74367,-0.0758 1.83416,-0.0758 2.74367,-0.0758 0.28801,0 0.28801,0.46991 z"
         style="fill:#000000;stroke:#a483d3;stroke-width:0.529167;stroke-dasharray:none;stroke-opacity:1"
         id="path406992" /><path
         d="m 171.18344,177.09656 q 0,0.30317 -0.33348,0.30317 -0.57602,0 -4.56268,-0.22737 -0.091,3.83507 -0.091,5.35091 0,1.78869 0.13643,5.38123 0.15158,3.59254 0.15158,5.38123 0,0.28801 -0.13643,0.3638 -0.0455,0.0303 -0.42443,0.0758 -0.9095,0.12126 -2.66788,0.12126 -1.95543,0 -2.74367,-0.12126 -0.42443,-0.0758 -0.42443,-0.46991 0,-1.78869 0.15158,-5.36608 0.15158,-3.57738 0.15158,-5.36607 0,-1.18235 -0.12126,-5.27512 -3.03168,0.30317 -4.83553,0.30317 -0.24254,0 -0.24254,-0.15159 0,-0.19706 0.21222,-1.16719 0.24254,-1.06109 0.27285,-1.28847 0.0455,-0.71244 0.10611,-1.42489 0.10611,-1.13688 0.3638,-1.13688 0.0303,0 0.21222,0.0152 2.45566,0.31833 7.26087,0.31833 1.36426,0 5.03259,-0.28801 1.97059,-0.15159 1.98575,-0.15159 0.30317,0 0.34864,0.0455 0.0455,0.0303 0.0606,0.28801 0,0.40927 -0.0303,1.13688 -0.0303,0.80339 -0.0303,1.13688 0,0.37896 0.0909,1.12172 0.10611,0.7276 0.10611,1.0914 z"
         style="fill:#000000;stroke:#a483d3;stroke-width:0.529167;stroke-dasharray:none;stroke-opacity:1"
         id="path406994" /><path
         d="m 192.79932,193.34637 q 0,0.27285 -0.37896,0.37896 -0.45475,0.12126 -2.81946,0.12126 -2.16765,0 -2.78915,-0.12126 -0.51538,-0.10611 -0.65181,-0.68213 -0.51538,-2.18281 -0.80339,-2.33439 -0.24254,-0.10611 -4.06245,-0.10611 -2.57693,0 -2.74367,0.13642 -0.2577,0.24254 -0.57602,1.62195 -0.28801,1.25815 -0.69729,1.36426 -0.51538,0.12126 -3.45611,0.12126 -2.31924,0 -2.31924,-0.43959 0,-0.39412 3.4258,-9.68622 3.71381,-10.05001 4.03213,-11.05047 0.1819,-0.57602 0.42444,-0.57602 0.40928,0 1.25815,0.0758 0.86402,0.0758 1.28846,0.0758 0.40928,0 1.19751,-0.0455 0.8034,-0.0606 1.19752,-0.0606 0.28801,0 0.53054,0.50022 0.74276,1.59164 4.3353,10.91405 3.6077,9.38305 3.6077,9.79233 z m -10.7473,-13.8093 q -0.31833,0.66697 -1.07625,2.89525 -0.81855,2.36471 -0.81855,2.77399 0,0.27285 0.9095,0.30316 0.46991,0.0303 1.54616,0.0303 1.00045,0 1.10656,-0.24253 0.0303,-0.0758 0.0303,-0.21222 0,-0.50023 -0.69729,-2.75883 -0.68213,-2.18281 -1.00045,-2.78914 z"
         style="fill:#000000;stroke:#a483d3;stroke-width:0.529167;stroke-dasharray:none;stroke-opacity:1"
         id="path406996" /><path
         d="m 212.05049,190.29953 q 0,0.24253 -0.31833,0.63665 -2.78914,3.31969 -7.41246,3.31969 -4.72942,0 -7.67014,-3.22874 -2.86494,-3.12263 -2.86494,-7.88237 0,-4.60815 2.8043,-7.82173 2.92557,-3.36516 7.44278,-3.36516 4.91132,0 7.70046,3.01652 0.30317,0.33348 0.30317,0.59118 0,0.28801 -1.06109,2.13733 -1.04593,1.84932 -1.31878,2.0767 -0.12127,0.12127 -0.30317,0.12127 -0.0758,0 -0.75792,-0.60634 -0.81855,-0.7276 -1.60679,-1.13688 -1.19751,-0.60633 -2.48597,-0.60633 -2.22829,0 -3.56223,1.66742 -1.22783,1.54616 -1.22783,3.81992 0,2.30407 1.22783,3.86539 1.33394,1.69774 3.56223,1.69774 1.31878,0 2.50113,-0.57602 0.77308,-0.37896 1.57647,-1.06109 0.66697,-0.57602 0.74277,-0.57602 0.15158,0 0.30316,0.16674 0.24254,0.27286 1.31878,1.8948 1.10657,1.68259 1.10657,1.84933 z"
         style="fill:#000000;stroke:#a483d3;stroke-width:0.529167;stroke-dasharray:none;stroke-opacity:1"
         id="path406998" /><path
         d="m 228.45188,177.09656 q 0,0.30317 -0.33349,0.30317 -0.57602,0 -4.56268,-0.22737 -0.0909,3.83507 -0.0909,5.35091 0,1.78869 0.13643,5.38123 0.15158,3.59254 0.15158,5.38123 0,0.28801 -0.13642,0.3638 -0.0455,0.0303 -0.42444,0.0758 -0.9095,0.12126 -2.66788,0.12126 -1.95543,0 -2.74367,-0.12126 -0.42443,-0.0758 -0.42443,-0.46991 0,-1.78869 0.15158,-5.36608 0.15159,-3.57738 0.15159,-5.36607 0,-1.18235 -0.12127,-5.27512 -3.03168,0.30317 -4.83553,0.30317 -0.24253,0 -0.24253,-0.15159 0,-0.19706 0.21221,-1.16719 0.24254,-1.06109 0.27285,-1.28847 0.0455,-0.71244 0.10611,-1.42489 0.10611,-1.13688 0.36381,-1.13688 0.0303,0 0.21221,0.0152 2.45566,0.31833 7.26088,0.31833 1.36425,0 5.03258,-0.28801 1.9706,-0.15159 1.98575,-0.15159 0.30317,0 0.34865,0.0455 0.0455,0.0303 0.0606,0.28801 0,0.40927 -0.0303,1.13688 -0.0303,0.80339 -0.0303,1.13688 0,0.37896 0.0909,1.12172 0.10611,0.7276 0.10611,1.0914 z"
         style="fill:#000000;stroke:#a483d3;stroke-width:0.529167;stroke-dasharray:none;stroke-opacity:1"
         id="path407000" /><path
         d="m 260.43609,193.25542 q 0,0.46991 -0.43959,0.46991 h -5.36608 q -0.43959,0 -0.43959,-0.53055 0,-1.531 0.10611,-4.59299 0.12127,-3.062 0.12127,-4.593 0,-0.43959 -0.13643,-0.46991 -0.16674,0.0909 -2.03122,4.68395 -1.09141,2.69819 -2.18281,5.38123 -0.15159,0.34864 -0.37896,0.40928 -0.0758,0.0152 -0.60634,0.0152 -0.78824,0 -0.93982,-0.30316 -0.81855,-1.66743 -2.15249,-4.85069 -1.42489,-3.36517 -2.13734,-4.86585 -0.0303,-0.0758 -0.13642,-0.16674 -0.10611,0.13643 -0.10611,0.43959 0,1.48553 0.0758,4.45657 0.0758,2.97105 0.0758,4.45657 0,0.53055 -0.42443,0.53055 h -5.06291 q -0.30316,0 -0.37896,-0.091 -0.0606,-0.10611 -0.0606,-0.34865 0,-1.65226 0.15158,-4.95679 0.16675,-3.31969 0.16675,-4.97196 0,-1.75837 -0.15159,-6.5939 -0.0152,-1.25815 -0.13642,-3.74413 l -0.0152,-0.25769 q -0.0152,-0.30317 0.63665,-0.30317 0.83371,0 2.50114,-0.0455 1.66742,-0.0606 2.50113,-0.0606 0.16674,0 0.46991,0.63665 l 4.42625,9.71653 q 0.46992,0.9853 0.78824,0.9853 0.16674,0 0.71245,-1.13688 1.53099,-3.18327 4.53236,-9.59527 0.25769,-0.59118 0.56086,-0.59118 0.43959,0 1.31878,0.0455 0.89434,0.0455 1.3491,0.0455 0.37896,0 1.15203,-0.0758 0.78824,-0.0758 1.1672,-0.0758 0.45475,0 0.45475,0.3638 0,1.78869 -0.13642,5.35092 -0.12127,3.54706 -0.12127,5.33575 0,1.65227 0.13643,4.9568 0.13642,3.30453 0.13642,4.94164 z"
         style="fill:#000000;stroke:#a483d3;stroke-width:0.529167;stroke-dasharray:none;stroke-opacity:1"
         id="path407002" /><path
         d="m 278.77776,189.01106 q 0,0.65182 -0.25769,2.39503 -0.27286,1.8948 -0.48507,2.2586 -0.1819,0.28801 -0.50023,0.28801 -0.13643,0 -0.45475,-0.0455 -1.10657,-0.15159 -6.45748,-0.15159 -1.1672,0 -3.47127,-0.0152 -2.30408,-0.0151 -3.45612,-0.0151 -0.50022,0 -0.50022,-0.4396 0,-1.69774 0.1819,-5.09322 0.19706,-3.41064 0.19706,-5.10838 0,-1.72806 -0.18191,-6.44232 -0.0455,-1.21267 -0.16674,-3.62286 l -0.0152,-0.21221 q -0.0303,-0.34865 0.37896,-0.34865 1.12173,0 3.36517,0.0606 2.2586,0.0606 3.38032,0.0606 1.10656,0 3.33485,-0.0606 2.22828,-0.0606 3.33485,-0.0606 0.78823,0 0.9095,0.59118 0.0758,0.34864 0.22738,2.12218 0.16674,1.75837 0.16674,2.13733 0,0.31833 -0.30317,0.31833 -0.091,0 -0.31833,-0.0152 -4.03213,-0.33349 -7.24571,-0.33349 -0.8034,0 -0.9853,0.37896 -0.0758,0.18191 -0.0758,1.1672 0,1.03077 0.30317,1.36426 0.25769,0.28801 0.9853,0.28801 0.15158,0 0.59117,-0.0152 0.4396,-0.0303 0.72761,-0.0303 1.90995,0 3.86539,-0.10611 0.16674,-0.0152 0.83371,-0.0758 0.51539,-0.0606 0.81855,-0.0606 0.3638,0 0.3638,0.34864 0,-0.31833 -0.27285,2.31924 -0.12126,1.21267 -0.12126,2.42534 0,0.30317 -0.4396,0.30317 0,0 -1.36425,-0.15159 -0.86403,-0.091 -3.94119,-0.091 h -1.60679 q -0.62149,0 -0.7276,0.30317 -0.0152,0.0758 -0.0152,0.93982 0,1.15204 0.15159,1.48552 0.25769,0.57602 1.94027,0.68213 -0.0303,0 2.21313,0 0.80339,0 2.37987,-0.13642 1.59163,-0.15159 2.37986,-0.15159 0.33349,0 0.33349,0.5457 z"
         style="fill:#000000;stroke:#a483d3;stroke-width:0.529167;stroke-dasharray:none;stroke-opacity:1"
         id="path407004" /></g></g></svg>
