<?xml version="1.0" encoding="UTF-8" standalone="no"?>
<!-- Created with Inkscape (http://www.inkscape.org/) -->

<svg
   width="224.07423mm"
   height="22.441648mm"
   viewBox="0 0 224.07423 22.441649"
   version="1.1"
   id="svg5"
   xml:space="preserve"
   inkscape:version="1.2.2 (732a01da63, 2022-12-09)"
   sodipodi:docname="VanillaJs.svg"
   xmlns:inkscape="http://www.inkscape.org/namespaces/inkscape"
   xmlns:sodipodi="http://sodipodi.sourceforge.net/DTD/sodipodi-0.dtd"
   xmlns="http://www.w3.org/2000/svg"
   xmlns:svg="http://www.w3.org/2000/svg"><sodipodi:namedview
     id="namedview7"
     pagecolor="#ffffff"
     bordercolor="#000000"
     borderopacity="0.25"
     inkscape:showpageshadow="2"
     inkscape:pageopacity="0.0"
     inkscape:pagecheckerboard="0"
     inkscape:deskcolor="#d1d1d1"
     inkscape:document-units="mm"
     showgrid="false"
     inkscape:zoom="0.90509672"
     inkscape:cx="-2063.8678"
     inkscape:cy="2717.3891"
     inkscape:window-width="1350"
     inkscape:window-height="1032"
     inkscape:window-x="661"
     inkscape:window-y="100"
     inkscape:window-maximized="0"
     inkscape:current-layer="layer1" /><defs
     id="defs2" /><g
     inkscape:label="Layer 1"
     inkscape:groupmode="layer"
     id="layer1"
     transform="translate(-152.62684,-608.82398)"><g
       aria-label="PHOTO CREDITS"
       id="text20841"
       style="font-weight:bold;font-size:30.3389px;font-family:'Berlin Sans FB Demi';-inkscape-font-specification:'Berlin Sans FB Demi Bold';text-align:center;text-anchor:middle;stroke:#ffd4b9;stroke-width:0.264583"
       inkscape:export-filename="..\..\Developing\VanillaPortfolio\assets\images\photo-credits.svg"
       inkscape:export-xdpi="96"
       inkscape:export-ydpi="96"><g
         id="path76919"><path
           style="color:#000000;-inkscape-font-specification:'Berlin Sans FB Demi Bold';fill:#000000;stroke:none;stroke-width:0.264583;-inkscape-stroke:none"
           d="m 170.61054,617.50505 q 0,3.58496 -1.88137,5.80705 -2.01469,2.35541 -5.55522,2.35541 -0.59256,0 -1.79248,-0.0593 -1.18512,-0.0741 -1.77767,-0.0741 -0.637,0 -0.637,0.54811 0,0.68144 0.13332,2.02951 0.13333,1.34807 0.13333,2.01469 0,0.34072 -0.31109,0.34072 -0.90365,0 -2.71095,-0.0593 -1.8073,-0.0444 -2.71095,-0.0444 -0.4296,0 -0.4296,-0.42961 0,-1.64434 0.0444,-4.93303 0.0593,-3.30351 0.0593,-4.94785 0,-4.65157 -0.39998,-9.77718 l -0.0148,-0.2074 q -0.0296,-0.28146 0.44441,-0.34072 1.15549,-0.14814 5.09599,-0.14814 2.32579,0 4.45899,0.0593 3.5109,0.10369 5.65892,2.20727 2.19246,2.16283 2.19246,5.65892 z m -5.91076,0.23702 q 0,-3.45164 -3.36276,-3.45164 -2.37022,0 -2.48873,0.26665 -0.1037,0.19258 -0.1037,3.42201 0,0.45923 0.0296,1.36288 0.0444,0.88884 0.0444,1.34807 0,0.29628 2.6665,0.29628 3.21462,0 3.21462,-3.24425 z"
           id="path364796" /><path
           style="color:#000000;-inkscape-font-specification:'Berlin Sans FB Demi Bold';fill:#ffd4b9;stroke:none;-inkscape-stroke:none"
           d="m 158.30078,609.44727 c -2.62865,0 -4.32414,0.0473 -5.11328,0.14843 -0.17096,0.0214 -0.30787,0.0627 -0.41211,0.14258 -0.10424,0.0799 -0.16024,0.21293 -0.14648,0.34375 l -0.002,-0.004 0.0156,0.20704 c 0.26641,3.41397 0.40039,6.67032 0.40039,9.76757 0,1.09464 -0.021,2.74337 -0.0606,4.94532 -0.0296,2.19275 -0.043,3.83813 -0.043,4.93554 0,0.16526 0.0418,0.31324 0.14453,0.41602 0.10279,0.10278 0.25077,0.14648 0.41602,0.14648 0.59983,0 1.50401,0.0154 2.70703,0.0449 1.20559,0.0395 2.10952,0.0586 2.71484,0.0586 0.12785,0 0.25058,-0.0397 0.33204,-0.12891 0.0815,-0.0892 0.11132,-0.21004 0.11132,-0.34375 0,-0.45323 -0.0437,-1.1265 -0.13281,-2.02734 -0.0887,-0.89654 -0.13281,-1.57191 -0.13281,-2.01758 0,-0.15708 0.0402,-0.24763 0.11328,-0.31055 0.0731,-0.0629 0.19726,-0.10546 0.39063,-0.10546 0.38951,0 0.98082,0.0249 1.76953,0.0742 h 0.002 c 0.80102,0.0396 1.39938,0.0586 1.79883,0.0586 2.38969,0 4.28824,-0.80103 5.65625,-2.40039 1.27691,-1.50817 1.91211,-3.47947 1.91211,-5.89258 0,-2.35838 -0.74346,-4.28699 -2.23047,-5.75391 h -0.002 c -1.45698,-1.42683 -3.37991,-2.17621 -5.7461,-2.24609 -1.42347,-0.0396 -2.91124,-0.0586 -4.46289,-0.0586 z m 0,0.26367 c 1.5494,0 3.03428,0.021 4.45508,0.0605 2.31501,0.0684 4.16327,0.79199 5.57031,2.16993 1.43495,1.4166 2.15235,3.26244 2.15235,5.56445 0,2.36683 -0.61804,4.26609 -1.84961,5.7207 -1.31825,1.54118 -3.12407,2.3086 -5.45508,2.3086 -0.3902,0 -0.98565,-0.0192 -1.78321,-0.0586 h -0.002 c -0.79015,-0.0494 -1.38504,-0.0742 -1.78515,-0.0742 -0.23131,0 -0.42524,0.0482 -0.56446,0.16797 -0.13922,0.11979 -0.20508,0.30339 -0.20508,0.51172 0,0.46292 0.0457,1.14209 0.13477,2.04297 0.0887,0.89659 0.13281,1.56636 0.13281,2.00195 0,0.0935 -0.0207,0.14166 -0.043,0.16602 -0.0222,0.0244 -0.0572,0.041 -0.13672,0.041 -0.59953,0 -1.50288,-0.0191 -2.70703,-0.0586 -1.2054,-0.0296 -2.11024,-0.0449 -2.71484,-0.0449 -0.12115,0 -0.1881,-0.0279 -0.22852,-0.0684 -0.0404,-0.0404 -0.0684,-0.10736 -0.0684,-0.22852 0,-1.0946 0.0153,-2.73883 0.0449,-4.92968 v -0.002 c 0.0395,-2.20142 0.0586,-3.85183 0.0586,-4.94922 0,-3.10483 -0.1335,-6.36694 -0.40039,-9.78711 l -0.0156,-0.20898 v -0.002 c -0.006,-0.0568 0.003,-0.0738 0.0469,-0.10742 0.0439,-0.0337 0.13816,-0.0698 0.2832,-0.0879 0.75152,-0.0963 2.45474,-0.14843 5.08008,-0.14843 z m 3.03711,4.44726 c -0.79255,0 -1.39863,0.021 -1.82227,0.0664 -0.21181,0.0227 -0.37707,0.0526 -0.5039,0.0898 -0.12522,0.0367 -0.22767,0.0719 -0.28125,0.1875 -0.023,0.0457 -0.0292,0.0807 -0.0371,0.13086 -0.008,0.0531 -0.0148,0.11789 -0.0215,0.19922 -0.0133,0.16267 -0.0245,0.38545 -0.0332,0.67188 -0.0174,0.57285 -0.0273,1.39742 -0.0273,2.47461 0,0.30899 0.0115,0.76402 0.0312,1.36718 v 0.002 c 0.0295,0.59142 0.043,1.0399 0.043,1.34179 0,0.0743 0.0467,0.13723 0.0937,0.17383 0.047,0.0366 0.10014,0.0607 0.16406,0.082 0.12784,0.0426 0.30032,0.0724 0.52734,0.0977 0.45404,0.0505 1.12239,0.0762 2.01367,0.0762 1.0938,0 1.93906,-0.27953 2.50586,-0.85156 0.54107,-0.54605 0.79838,-1.36136 0.82227,-2.39258 h 0.0195 v -0.13281 c 0,-1.17203 -0.28768,-2.0748 -0.87891,-2.68164 -0.59122,-0.60685 -1.47168,-0.90235 -2.61523,-0.90235 z m 0,0.26367 c 1.09829,0 1.89608,0.28053 2.42578,0.82422 0.5297,0.5437 0.80469,1.36703 0.80469,2.4961 0,1.05957 -0.26089,1.83046 -0.76563,2.33984 -0.50473,0.50939 -1.26907,0.77149 -2.31836,0.77149 -0.88638,0 -1.54957,-0.024 -1.98437,-0.0723 -0.2174,-0.0242 -0.37829,-0.0564 -0.47266,-0.0879 -0.0428,-0.0143 -0.0669,-0.0275 -0.0781,-0.0352 -6.7e-4,-0.30911 -0.0141,-0.74159 -0.043,-1.32031 v -0.002 c -0.0197,-0.60041 -0.0293,-1.05455 -0.0293,-1.35742 0,-1.07577 0.008,-1.89703 0.0254,-2.46485 0.009,-0.28391 0.0206,-0.50556 0.0332,-0.66015 0.006,-0.0773 0.0128,-0.13744 0.0195,-0.17969 0.007,-0.0422 0.0194,-0.0726 0.01,-0.0547 l 0.002,-0.004 0.002,-0.004 c -0.0135,0.0303 0.0169,-0.0155 0.11719,-0.0449 0.10031,-0.0294 0.25406,-0.0564 0.45703,-0.0781 0.40594,-0.0435 1.00733,-0.0664 1.79492,-0.0664 z"
           id="path364798" /></g><g
         id="path76921"><path
           style="color:#000000;-inkscape-font-specification:'Berlin Sans FB Demi Bold';fill:#000000;stroke:none;stroke-width:0.264583;-inkscape-stroke:none"
           d="m 192.52032,629.90429 q 0,0.3111 -0.13333,0.38517 -0.0592,0.0444 -0.41479,0.0741 -0.90365,0.0889 -2.54799,0.0889 -2.32579,0 -2.74058,-0.0889 -0.39997,-0.0889 -0.39997,-0.39998 0,-1.1703 0.1037,-3.5109 0.11851,-2.35541 0.11851,-3.52571 0,-0.57774 -0.32591,-0.66663 -0.50367,-0.11851 -3.58497,-0.11851 -3.09611,0 -3.61459,0.11851 -0.32591,0.0741 -0.32591,0.66663 0,1.15549 0.0741,3.46646 0.0741,2.29615 0.0741,3.45164 0,0.44442 -0.39997,0.51849 -0.47405,0.0889 -2.78502,0.0889 -1.99988,0 -2.54799,-0.0889 -0.42961,-0.0741 -0.42961,-0.45924 0,-1.5999 0.14814,-4.82933 0.16295,-3.22944 0.16295,-4.84415 0,-1.71842 -0.14814,-5.15525 -0.14813,-3.45164 -0.14813,-5.17005 0,-0.32591 0.31109,-0.32591 0.45923,0 1.37769,0.0444 0.93328,0.0444 1.39251,0.0444 0.47405,0 1.42214,-0.0444 0.9629,-0.0444 1.43695,-0.0444 0.25183,0 0.25183,0.26665 0,1.11105 -0.16295,3.33313 -0.16295,2.20728 -0.16295,3.31832 0,0.51849 0.28146,0.60737 0.38516,0.11851 3.79236,0.11851 3.17018,0 3.67385,-0.11851 0.35554,-0.0889 0.35554,-0.60737 0,-1.0666 -0.1037,-3.21462 -0.1037,-2.16283 -0.1037,-3.24425 0,-0.45923 0.37035,-0.45923 0.42961,0 1.30363,0.0444 0.88883,0.0444 1.33325,0.0444 0.4296,0 1.30362,-0.0444 0.88884,-0.0444 1.33326,-0.0444 0.4296,0 0.4296,0.35554 0,1.7036 -0.14814,5.14042 -0.13333,3.43683 -0.13333,5.15525 0,1.61471 0.14814,4.84415 0.16296,3.22943 0.16296,4.82933 z"
           id="path364802" /><path
           style="color:#000000;-inkscape-font-specification:'Berlin Sans FB Demi Bold';fill:#ffd4b9;stroke:none;-inkscape-stroke:none"
           d="m 172.9668,609.44727 c -0.1268,0 -0.24782,0.0369 -0.33008,0.12304 -0.0823,0.0862 -0.11328,0.20626 -0.11328,0.33594 0,1.14941 0.0477,2.87375 0.14648,5.17578 0.0987,2.29027 0.14844,4.00663 0.14844,5.14844 0,1.07202 -0.0535,2.68604 -0.16211,4.83789 -0.0988,2.15395 -0.14844,3.76525 -0.14844,4.83594 0,0.15297 0.0458,0.29495 0.14258,0.39843 0.0968,0.10349 0.23437,0.16345 0.39648,0.19141 h 0.002 c 0.3905,0.0633 1.23315,0.0898 2.56836,0.0898 1.54234,0 2.45623,-0.0234 2.81054,-0.0898 0.15662,-0.029 0.28992,-0.10143 0.37891,-0.2168 0.089,-0.11536 0.12891,-0.26365 0.12891,-0.43164 0,-0.77315 -0.0248,-1.92555 -0.0742,-3.45703 -0.0494,-1.53994 -0.0742,-2.69344 -0.0742,-3.46094 0,-0.18538 0.0276,-0.32293 0.0684,-0.40625 0.0407,-0.0833 0.0828,-0.11656 0.1543,-0.13281 0.14494,-0.0331 0.53871,-0.0663 1.13867,-0.0859 0.59996,-0.0197 1.41607,-0.0293 2.44726,-0.0293 1.02625,0 1.83665,0.01 2.43164,0.0293 0.59191,0.0196 0.97672,0.0535 1.11719,0.0859 0.0735,0.0201 0.11909,0.0566 0.16016,0.14063 0.0411,0.084 0.0684,0.21829 0.0684,0.39843 0,0.77574 -0.0382,1.94841 -0.11719,3.51758 v 0.002 c -0.0692,1.56137 -0.10352,2.73151 -0.10352,3.51562 0,0.13204 0.0478,0.2587 0.13868,0.34961 0.0909,0.0909 0.214,0.14651 0.36328,0.17969 h 0.002 c 0.16303,0.0349 0.45683,0.0554 0.91602,0.0703 0.45918,0.0149 1.07545,0.0215 1.85156,0.0215 1.09777,0 1.94847,-0.028 2.55859,-0.0879 0.12095,-0.0101 0.21893,-0.0216 0.29492,-0.0351 0.0713,-0.0127 0.11855,-0.0219 0.17774,-0.0625 0.0753,-0.0443 0.12762,-0.11651 0.15625,-0.19922 0.009,-0.027 0.008,-0.0641 0.0137,-0.0937 l 0.0273,0.0137 v -0.21484 c 0,-1.07109 -0.0534,-2.68189 -0.16211,-4.83594 -0.0987,-2.15195 -0.14843,-3.76546 -0.14843,-4.83789 0,-1.14176 0.044,-2.85938 0.13281,-5.14844 v -0.002 c 0.0987,-2.29085 0.14844,-4.0054 0.14844,-5.14453 0,-0.14516 -0.0513,-0.28227 -0.15625,-0.36914 -0.10498,-0.0869 -0.24481,-0.11914 -0.40625,-0.11914 -0.30069,0 -0.74619,0.0153 -1.33985,0.0449 -0.58158,0.0295 -1.01503,0.0449 -1.29687,0.0449 -0.29188,0 -0.73472,-0.0154 -1.32617,-0.0449 -0.58378,-0.0297 -1.01959,-0.0449 -1.31055,-0.0449 -0.15079,0 -0.29208,0.054 -0.38086,0.16406 -0.0888,0.11008 -0.12109,0.25687 -0.12109,0.42773 0,0.72518 0.0343,1.80706 0.10351,3.25 0.0691,1.43096 0.10352,2.50221 0.10352,3.20899 0,0.1577 -0.0276,0.27085 -0.0703,0.34375 -0.0427,0.0729 -0.0964,0.11247 -0.18554,0.13476 -0.13842,0.0324 -0.53376,0.0663 -1.14258,0.0859 -0.60986,0.0197 -1.44215,0.0293 -2.49805,0.0293 -1.13496,0 -2.01885,-0.01 -2.64843,-0.0293 -0.3148,-0.01 -0.56524,-0.0226 -0.75196,-0.0371 -0.18672,-0.0145 -0.31552,-0.0352 -0.35351,-0.0469 -0.0586,-0.0185 -0.096,-0.0498 -0.13086,-0.125 -0.0348,-0.0752 -0.0566,-0.19461 -0.0566,-0.35547 0,-0.73423 0.0536,-1.8387 0.16211,-3.3086 0.10875,-1.48299 0.16211,-2.59658 0.16211,-3.34375 0,-0.1097 -0.0255,-0.21456 -0.0977,-0.29101 -0.0722,-0.0765 -0.17787,-0.10742 -0.28516,-0.10742 -0.32016,0 -0.80043,0.0153 -1.44336,0.0449 -0.63103,0.0295 -1.10411,0.0449 -1.41601,0.0449 -0.30189,0 -0.76556,-0.0154 -1.38672,-0.0449 -0.61337,-0.0297 -1.0724,-0.0449 -1.38281,-0.0449 z m 0,0.26562 c 0.30189,0 0.75985,0.0134 1.37109,0.043 0.62322,0.0297 1.08802,0.0449 1.39844,0.0449 0.32016,0 0.79464,-0.0153 1.42773,-0.0449 0.64094,-0.0295 1.11974,-0.043 1.43164,-0.043 0.0606,0 0.0801,0.011 0.0918,0.0234 0.0117,0.0124 0.0273,0.0413 0.0273,0.10937 0,0.73423 -0.0536,1.84444 -0.16211,3.32422 -0.10875,1.47315 -0.16406,2.58097 -0.16406,3.32813 0,0.1848 0.0231,0.33951 0.082,0.46679 0.059,0.12729 0.16393,0.22488 0.29297,0.26563 v 0.002 c 0.0904,0.0278 0.21666,0.0416 0.41016,0.0566 0.1935,0.0151 0.44836,0.0272 0.76562,0.0371 0.63454,0.0198 1.51975,0.0293 2.65625,0.0293 1.05755,0 1.89306,-0.009 2.50782,-0.0293 0.61475,-0.0198 0.9973,-0.0452 1.19531,-0.0918 h 0.002 c 0.14787,-0.037 0.27377,-0.12825 0.34961,-0.25781 0.0758,-0.12955 0.10547,-0.29057 0.10547,-0.47851 0,-0.71536 -0.0343,-1.78764 -0.10352,-3.22071 -0.0691,-1.44083 -0.10351,-2.52156 -0.10351,-3.23828 0,-0.13529 0.0298,-0.21872 0.0644,-0.26172 0.0347,-0.043 0.0777,-0.0644 0.17383,-0.0644 0.28185,0 0.71529,0.0134 1.29687,0.043 0.59365,0.0297 1.03916,0.0449 1.33985,0.0449 0.29096,0 0.72677,-0.0153 1.31054,-0.0449 0.59147,-0.0295 1.0343,-0.043 1.32618,-0.043 0.12495,0 0.20005,0.025 0.23828,0.0566 0.0382,0.0316 0.0605,0.0741 0.0605,0.16602 0,1.13189 -0.0497,2.84449 -0.14843,5.13476 -0.0889,2.29207 -0.13477,4.01113 -0.13477,5.16016 0,1.08052 0.0496,2.69564 0.14844,4.84961 v 0.002 c 0.10858,2.15185 0.16406,3.76016 0.16406,4.82227 0,0.0942 -0.0123,0.16559 -0.0273,0.20898 -0.015,0.0434 -0.029,0.0549 -0.0391,0.0605 l -0.008,0.004 -0.008,0.006 c 0.0255,-0.0191 -0.0139,0.005 -0.0762,0.0156 -0.0623,0.0111 -0.15342,0.0235 -0.26953,0.0332 h -0.002 c -0.59465,0.0585 -1.44131,0.0879 -2.53515,0.0879 -0.77442,0 -1.38941,-0.007 -1.84375,-0.0215 -0.45333,-0.0147 -0.75311,-0.0402 -0.86719,-0.0645 h -0.002 c -0.11601,-0.0261 -0.19226,-0.0673 -0.23438,-0.10937 -0.0424,-0.0424 -0.0605,-0.0868 -0.0605,-0.16211 0,-0.77629 0.0344,-1.94448 0.10351,-3.50391 0.0791,-1.57137 0.11914,-2.74658 0.11914,-3.53125 0,-0.20501 -0.0281,-0.37547 -0.0957,-0.51367 -0.0676,-0.1382 -0.18439,-0.24204 -0.32813,-0.28125 h -0.002 l -0.002,-0.002 c -0.19717,-0.0464 -0.57383,-0.072 -1.17383,-0.0918 -0.6,-0.0198 -1.41346,-0.0293 -2.44141,-0.0293 -1.03288,0 -1.85212,0.009 -2.45703,0.0293 -0.6049,0.0198 -0.98679,0.0459 -1.1875,0.0918 -0.1458,0.0331 -0.26608,0.1365 -0.33398,0.27539 -0.0679,0.13889 -0.0957,0.31185 -0.0957,0.52148 0,0.77316 0.0248,1.92936 0.0742,3.47071 0.0494,1.53005 0.0742,2.67977 0.0742,3.44726 0,0.1283 -0.0279,0.21207 -0.0723,0.26953 -0.0443,0.0575 -0.10872,0.0988 -0.21875,0.11914 -0.27776,0.0521 -1.22277,0.0859 -2.76172,0.0859 -1.33129,0 -2.18509,-0.0327 -2.52539,-0.0879 -0.12429,-0.0214 -0.20166,-0.0617 -0.24805,-0.11133 -0.0464,-0.0496 -0.0723,-0.11301 -0.0723,-0.21679 0,-1.06209 0.0498,-2.67163 0.14844,-4.82227 v -0.002 c 0.1086,-2.15277 0.16406,-3.76912 0.16406,-4.84961 0,-1.14941 -0.0496,-2.86799 -0.14843,-5.16016 -0.0987,-2.30015 -0.14844,-4.02226 -0.14844,-5.16406 0,-0.0876 0.0196,-0.13184 0.041,-0.1543 0.0214,-0.0224 0.0581,-0.0391 0.13868,-0.0391 z"
           id="path364804" /></g><g
         id="path76923"><path
           style="color:#000000;-inkscape-font-specification:'Berlin Sans FB Demi Bold';fill:#000000;stroke:none;stroke-width:0.264583;-inkscape-stroke:none"
           d="m 215.82261,619.99378 q 0,4.62195 -2.94797,7.74768 -3.00723,3.17018 -7.61435,3.17018 -4.5775,0 -7.59954,-3.19981 -2.96279,-3.12573 -2.96279,-7.71805 0,-4.60712 2.96279,-7.74767 3.02204,-3.21462 7.59954,-3.21462 4.54787,0 7.58472,3.21462 2.9776,3.17017 2.9776,7.74767 z m -5.61448,-0.0296 q 0,-2.22209 -1.34806,-3.77755 -1.40732,-1.62953 -3.59978,-1.62953 -2.08877,0 -3.54053,1.68878 -1.40732,1.62953 -1.40732,3.74792 0,2.26653 1.31844,3.77755 1.3925,1.58509 3.62941,1.58509 2.08876,0 3.55534,-1.67397 1.3925,-1.5999 1.3925,-3.71829 z"
           id="path364808" /><path
           style="color:#000000;-inkscape-font-specification:'Berlin Sans FB Demi Bold';fill:#ffd4b9;stroke:none;-inkscape-stroke:none"
           d="m 205.25977,608.89844 c -3.08264,0 -5.65779,1.09045 -7.69532,3.25781 -1.99735,2.11719 -2.99804,4.73812 -2.99804,7.83789 0,3.08999 1.0006,5.7013 2.99804,7.80859 2.03759,2.15745 4.61283,3.24024 7.69532,3.24024 3.10175,0 5.6829,-1.07301 7.71093,-3.21094 1.98765,-2.10749 2.98438,-4.72847 2.98438,-7.83789 0,-3.08035 -1.00686,-5.70129 -3.01367,-7.83789 v -0.002 c -2.04721,-2.16704 -4.61856,-3.25586 -7.68164,-3.25586 z m 0,0.26562 c 3.00074,0 5.48635,1.05472 7.48828,3.17383 1.96252,2.09005 2.9414,4.63388 2.9414,7.65625 0,3.05317 -0.96717,5.59611 -2.91015,7.65625 -1.98161,2.08898 -4.47847,3.12891 -7.51953,3.12891 -3.02084,0 -5.51016,-1.04924 -7.50196,-3.15821 h -0.002 c -1.95294,-2.06034 -2.92578,-4.59386 -2.92578,-7.62695 0,-3.04305 0.9747,-5.58799 2.92773,-7.6582 1.99186,-2.11879 4.48126,-3.17188 7.50196,-3.17188 z m 0,5.26172 c -1.42817,0 -2.65234,0.58474 -3.64063,1.73438 -0.95675,1.10781 -1.43945,2.39243 -1.43945,3.83398 0,1.53667 0.45106,2.83125 1.35156,3.86328 v 0.002 c 0.95151,1.08312 2.206,1.62891 3.72852,1.62891 1.42784,0 2.65801,-0.57936 3.65625,-1.71875 0.94731,-1.08841 1.42382,-2.36344 1.42382,-3.80469 0,-1.50814 -0.45978,-2.8047 -1.3789,-3.86523 -0.96043,-1.11207 -2.20676,-1.67383 -3.70117,-1.67383 z m 0,0.26367 c 1.42886,0 2.584,0.52335 3.5,1.58399 0.87828,1.01341 1.3164,2.23676 1.3164,3.6914 0,1.38328 -0.45002,2.58607 -1.35937,3.63086 -0.95721,1.09257 -2.09987,1.62891 -3.45703,1.62891 -1.46003,0 -2.62415,-0.51068 -3.5293,-1.54102 -0.85742,-0.98265 -1.28516,-2.20408 -1.28516,-3.68945 0,-1.38296 0.45533,-2.59722 1.375,-3.66211 0.9474,-1.10207 2.0826,-1.64258 3.43946,-1.64258 z"
           id="path364810" /></g><g
         id="path76925"><path
           style="color:#000000;-inkscape-font-specification:'Berlin Sans FB Demi Bold';fill:#000000;stroke:none;stroke-width:0.264583;-inkscape-stroke:none"
           d="m 232.45863,614.11266 q 0,0.29628 -0.3259,0.29628 -0.56293,0 -4.45899,-0.22221 -0.0889,3.74792 -0.0889,5.22931 0,1.74804 0.13333,5.25894 0.14814,3.5109 0.14814,5.25894 0,0.28147 -0.13333,0.35554 -0.0444,0.0296 -0.41479,0.0741 -0.88883,0.11851 -2.60725,0.11851 -1.91099,0 -2.68132,-0.11851 -0.41479,-0.0741 -0.41479,-0.45924 0,-1.74804 0.14814,-5.24412 0.14814,-3.49609 0.14814,-5.24413 0,-1.15548 -0.11851,-5.15524 -2.96278,0.29628 -4.72564,0.29628 -0.23702,0 -0.23702,-0.14814 0,-0.19258 0.20739,-1.14067 0.23703,-1.03698 0.26666,-1.25919 0.0444,-0.69625 0.10369,-1.3925 0.1037,-1.11105 0.35554,-1.11105 0.0296,0 0.20739,0.0148 2.39986,0.31109 7.09587,0.31109 1.33325,0 4.91822,-0.28147 1.92581,-0.14814 1.94062,-0.14814 0.29628,0 0.34072,0.0444 0.0444,0.0296 0.0593,0.28146 0,0.39998 -0.0296,1.11104 -0.0296,0.78514 -0.0296,1.11105 0,0.37035 0.0889,1.09623 0.1037,0.71107 0.1037,1.0666 z"
           id="path364814" /><path
           style="color:#000000;-inkscape-font-specification:'Berlin Sans FB Demi Bold';fill:#ffd4b9;stroke:none;-inkscape-stroke:none"
           d="m 231.92578,609.26953 c -0.01,0 -0.66727,0.0497 -1.95117,0.14844 -2.3887,0.18755 -4.02868,0.28125 -4.9082,0.28125 -3.12775,0 -5.48913,-0.10457 -7.07813,-0.31055 h -0.004 -0.002 c -0.11913,-0.01 -0.17697,-0.0156 -0.21875,-0.0156 -0.0906,0 -0.17155,0.055 -0.22265,0.12109 -0.0511,0.0661 -0.0867,0.14682 -0.11915,0.24805 -0.0648,0.20244 -0.11145,0.48604 -0.14648,0.86133 v 0.002 c -0.0396,0.4651 -0.0739,0.92943 -0.10352,1.39453 -0.018,0.13199 -0.10683,0.55216 -0.26367,1.23828 v 0.002 c -0.0693,0.31695 -0.12121,0.57099 -0.15625,0.76368 -0.035,0.19269 -0.0547,0.31636 -0.0547,0.40429 0,0.0847 0.048,0.17891 0.12109,0.22461 0.0731,0.0457 0.15526,0.0566 0.24805,0.0566 1.14706,0 2.7027,-0.10104 4.59765,-0.28711 0.0749,2.54641 0.11524,4.26821 0.11524,5.01368 0,1.16162 -0.0497,2.90848 -0.14844,5.23828 -0.0988,2.33165 -0.14844,4.0809 -0.14844,5.25 0,0.15212 0.0449,0.29264 0.13867,0.39648 0.0938,0.10384 0.22698,0.16517 0.38477,0.19336 h 0.002 0.002 c 0.5298,0.0815 1.42444,0.12109 2.70117,0.12109 1.1478,0 2.01947,-0.0407 2.62304,-0.12109 0.12488,-0.015 0.22335,-0.0279 0.29688,-0.041 0.0368,-0.007 0.0671,-0.0125 0.0937,-0.0195 0.0235,-0.006 0.0435,-0.0122 0.0723,-0.0293 0.0755,-0.042 0.12988,-0.11261 0.16016,-0.19336 0.0303,-0.0808 0.041,-0.17308 0.041,-0.27735 0,-1.16909 -0.0496,-2.92215 -0.14844,-5.26367 -0.0889,-2.33976 -0.13281,-4.09191 -0.13281,-5.2539 0,-0.95919 0.0317,-2.69547 0.0879,-5.08985 2.44959,0.13911 3.94762,0.21485 4.32812,0.21485 0.12868,0 0.24719,-0.0285 0.33399,-0.10743 0.0578,-0.0525 0.0663,-0.13573 0.084,-0.21289 l 0.041,-0.0156 v -0.0918 c 0,-0.24944 -0.0361,-0.60809 -0.10547,-1.08398 v -0.002 c -0.0587,-0.47993 -0.0879,-0.84223 -0.0879,-1.07812 0,-0.21327 0.01,-0.58273 0.0293,-1.10547 0.0198,-0.47507 0.0293,-0.84532 0.0293,-1.11523 v -0.004 -0.004 c -0.005,-0.0877 -0.0131,-0.15868 -0.0254,-0.21679 -0.0113,-0.0539 -0.0175,-0.10462 -0.084,-0.15625 -0.0605,-0.0539 -0.10975,-0.0583 -0.17188,-0.0664 -0.0665,-0.009 -0.14793,-0.0117 -0.25,-0.0117 z m 0,0.26367 c 0.0955,0 0.1678,0.006 0.21484,0.0117 0.047,0.006 0.0684,0.0313 0.0312,-0.006 l 0.01,0.01 0.0117,0.008 c -0.0544,-0.0363 -0.0271,-0.0338 -0.0195,0.002 0.008,0.0357 0.0148,0.0975 0.0195,0.17774 -1.4e-4,0.26301 -0.01,0.62799 -0.0293,1.09765 -0.0198,0.52412 -0.0293,0.89396 -0.0293,1.11524 0,0.25748 0.0302,0.62667 0.0898,1.11328 v 0.002 c 0.0687,0.47093 0.10156,0.82467 0.10156,1.04883 0,0.0745 -0.0153,0.1032 -0.0371,0.12305 -0.0218,0.0199 -0.0677,0.041 -0.15625,0.041 -0.35788,0 -1.85416,-0.0745 -4.45117,-0.22265 l -0.13672,-0.008 -0.004,0.13672 c -0.0593,2.49903 -0.0879,4.24219 -0.0879,5.23243 0,1.16872 0.0439,2.92224 0.13282,5.26367 0.0987,2.33967 0.14843,4.09228 0.14843,5.2539 0,0.0834 -0.0112,0.14583 -0.0254,0.1836 -0.0142,0.0378 -0.0277,0.0492 -0.041,0.0566 l -0.004,0.002 -0.004,0.004 c 0.0216,-0.0144 0.0114,-0.006 -0.004,-0.002 -0.0153,0.004 -0.0399,0.01 -0.0723,0.0156 -0.0647,0.0116 -0.1592,0.0244 -0.28125,0.0391 h -0.002 c -0.58148,0.0775 -1.44727,0.11719 -2.58984,0.11719 -1.2694,0 -2.16047,-0.0409 -2.65821,-0.11719 -0.11873,-0.0212 -0.19185,-0.0601 -0.23632,-0.10937 -0.0445,-0.0492 -0.0684,-0.11412 -0.0684,-0.21875 0,-1.16162 0.0478,-2.9085 0.14648,-5.23828 0.0988,-2.33166 0.14844,-4.08091 0.14844,-5.25 0,-0.77485 -0.0382,-2.49133 -0.11719,-5.15821 l -0.006,-0.14258 -0.14062,0.0137 c -1.9726,0.19726 -3.54507,0.29687 -4.71289,0.29687 -0.0629,0 -0.0957,-0.0134 -0.10352,-0.0176 0,-0.0404 0.0147,-0.16989 0.0488,-0.35742 0.0341,-0.18753 0.0854,-0.43879 0.1543,-0.75391 0.15821,-0.69215 0.24723,-1.1023 0.26953,-1.26953 v -0.006 -0.004 c 0.0295,-0.46258 0.0641,-0.92609 0.10351,-1.38867 v -0.002 c 0.0341,-0.36411 0.0812,-0.63522 0.13477,-0.80273 0.0269,-0.0839 0.0576,-0.14147 0.0781,-0.16797 0.0205,-0.0265 0.0184,-0.0176 0.0117,-0.0176 -0.002,0 0.0772,0.004 0.18945,0.0137 1.61082,0.20881 3.97969,0.31055 7.11329,0.31055 0.89814,0 2.53648,-0.0935 4.92773,-0.28125 1.28385,-0.0988 1.92177,-0.14844 1.93164,-0.14844 z"
           id="path364816" /></g><g
         id="path76927"><path
           style="color:#000000;-inkscape-font-specification:'Berlin Sans FB Demi Bold';fill:#000000;stroke:none;stroke-width:0.264583;-inkscape-stroke:none"
           d="m 254.62025,619.99378 q 0,4.62195 -2.94797,7.74768 -3.00722,3.17018 -7.61435,3.17018 -4.5775,0 -7.59954,-3.19981 -2.96278,-3.12573 -2.96278,-7.71805 0,-4.60712 2.96278,-7.74767 3.02204,-3.21462 7.59954,-3.21462 4.54787,0 7.58473,3.21462 2.97759,3.17017 2.97759,7.74767 z m -5.61447,-0.0296 q 0,-2.22209 -1.34807,-3.77755 -1.40732,-1.62953 -3.59978,-1.62953 -2.08876,0 -3.54052,1.68878 -1.40733,1.62953 -1.40733,3.74792 0,2.26653 1.31844,3.77755 1.39251,1.58509 3.62941,1.58509 2.08876,0 3.55534,-1.67397 1.39251,-1.5999 1.39251,-3.71829 z"
           id="path364820" /><path
           style="color:#000000;-inkscape-font-specification:'Berlin Sans FB Demi Bold';fill:#ffd4b9;stroke:none;-inkscape-stroke:none"
           d="m 244.05859,608.89844 c -3.08263,0 -5.65974,1.09045 -7.69726,3.25781 -1.99734,2.11719 -2.99805,4.73812 -2.99805,7.83789 0,3.08999 1.00256,5.7013 3,7.80859 2.0374,2.15664 4.61341,3.24024 7.69531,3.24024 3.10176,0 5.68096,-1.07301 7.70899,-3.21094 1.98764,-2.10749 2.98437,-4.72847 2.98437,-7.83789 0,-3.08035 -1.00686,-5.70129 -3.01367,-7.83789 v -0.002 c -2.04721,-2.16704 -4.61661,-3.25586 -7.67969,-3.25586 z m 0,0.26562 c 3.00074,0 5.48635,1.05472 7.48828,3.17383 1.96252,2.09005 2.94141,4.63388 2.94141,7.65625 0,3.05317 -0.96913,5.59611 -2.91211,7.65625 -1.98159,2.08898 -4.4765,3.12891 -7.51758,3.12891 -3.02083,0 -5.51211,-1.04924 -7.5039,-3.15821 -1.95293,-2.06034 -2.92774,-4.59386 -2.92774,-7.62695 0,-3.04305 0.97471,-5.58799 2.92774,-7.6582 1.99186,-2.11879 4.48321,-3.17188 7.5039,-3.17188 z m 0,5.26172 c -1.42815,0 -2.65234,0.58474 -3.64062,1.73438 -0.95676,1.10781 -1.43945,2.39243 -1.43945,3.83398 0,1.53667 0.4491,2.83125 1.3496,3.86328 v 0.002 h 0.002 c 0.95152,1.08312 2.206,1.62891 3.72851,1.62891 1.42785,0 2.65607,-0.57936 3.6543,-1.71875 0.94732,-1.08841 1.42578,-2.36344 1.42578,-3.80469 0,-1.50814 -0.46173,-2.8047 -1.38086,-3.86523 -0.96042,-1.11207 -2.2048,-1.67383 -3.69922,-1.67383 z m 0,0.26367 c 1.42887,0 2.58205,0.52335 3.49805,1.58399 h 0.002 c 0.8783,1.01341 1.31446,2.23676 1.31446,3.6914 0,1.38328 -0.45002,2.58607 -1.35938,3.63086 -0.9572,1.09257 -2.09791,1.62891 -3.45508,1.62891 -1.46001,0 -2.62609,-0.51068 -3.53125,-1.54102 -0.85741,-0.98265 -1.28515,-2.20408 -1.28515,-3.68945 0,-1.38296 0.45531,-2.59722 1.375,-3.66211 0.94739,-1.10207 2.08455,-1.64258 3.4414,-1.64258 z"
           id="path364822" /></g><g
         id="path76929"><path
           style="color:#000000;-inkscape-font-specification:'Berlin Sans FB Demi Bold';fill:#000000;stroke:none;stroke-width:0.264583;-inkscape-stroke:none"
           d="m 281.7149,627.01558 q 0,0.23702 -0.31109,0.62218 -2.72576,3.24425 -7.24401,3.24425 -4.62194,0 -7.49584,-3.15536 -2.79983,-3.05167 -2.79983,-7.70324 0,-4.50343 2.74058,-7.64398 2.85908,-3.28869 7.27363,-3.28869 4.79971,0 7.52547,2.94797 0.29628,0.32591 0.29628,0.57774 0,0.28147 -1.03698,2.08877 -1.02216,1.80729 -1.28881,2.0295 -0.11851,0.11851 -0.29628,0.11851 -0.0741,0 -0.74069,-0.59255 -0.79995,-0.71107 -1.57028,-1.11105 -1.1703,-0.59255 -2.42948,-0.59255 -2.17764,0 -3.48127,1.62953 -1.19993,1.51102 -1.19993,3.7331 0,2.25172 1.19993,3.77755 1.30363,1.65916 3.48127,1.65916 1.28881,0 2.4443,-0.56293 0.75551,-0.37034 1.54064,-1.03697 0.65182,-0.56293 0.72589,-0.56293 0.14814,0 0.29627,0.16295 0.23703,0.26665 1.28882,1.85174 1.08141,1.64435 1.08141,1.8073 z"
           id="path364826" /><path
           style="color:#000000;-inkscape-font-specification:'Berlin Sans FB Demi Bold';fill:#ffd4b9;stroke:none;-inkscape-stroke:none"
           d="m 273.87891,608.95898 c -2.97533,0 -5.44504,1.11692 -7.37305,3.33399 -1.84765,2.1173 -2.77344,4.70135 -2.77344,7.73047 0,3.12758 0.9448,5.73385 2.83399,7.79297 1.9397,2.12967 4.48235,3.19726 7.59375,3.19726 3.04382,0 5.50537,-1.10062 7.3457,-3.29101 v -0.002 c 0.21573,-0.26709 0.3418,-0.48918 0.3418,-0.70508 0,-0.0502 -0.0116,-0.0758 -0.0254,-0.11132 -0.0138,-0.0355 -0.0329,-0.0762 -0.0566,-0.12305 -0.0475,-0.0937 -0.11601,-0.21508 -0.20703,-0.36719 -0.18203,-0.30422 -0.45343,-0.73034 -0.81445,-1.27929 -0.70183,-1.0577 -1.12084,-1.66281 -1.30078,-1.86524 v -0.002 c -0.11352,-0.12488 -0.24727,-0.20703 -0.39453,-0.20703 -0.0481,0 -0.0659,0.0138 -0.0859,0.0234 -0.0201,0.01 -0.0375,0.0196 -0.0586,0.0332 -0.0421,0.0271 -0.094,0.065 -0.15625,0.11328 -0.12443,0.0965 -0.29351,0.23733 -0.51172,0.42578 -0.51668,0.43869 -1.01995,0.77652 -1.51172,1.01758 -0.75292,0.3668 -1.54677,0.55078 -2.38672,0.55078 -1.41816,0 -2.52998,-0.53141 -3.37695,-1.60938 -0.78041,-0.99236 -1.17188,-2.21766 -1.17188,-3.69531 0,-1.45757 0.38961,-2.66777 1.16992,-3.65039 0.84664,-1.05829 1.96015,-1.58008 3.37891,-1.58008 0.8187,0 1.606,0.19173 2.36914,0.57813 0.50172,0.26051 1.01622,0.62357 1.54297,1.09179 0.22311,0.19833 0.39663,0.34778 0.52344,0.44922 0.0634,0.0507 0.11356,0.0887 0.15625,0.11719 0.0213,0.0142 0.0403,0.027 0.0605,0.0371 0.0202,0.0101 0.0376,0.0234 0.0879,0.0234 0.14575,0 0.28281,-0.0567 0.38477,-0.15625 0.1239,-0.10474 0.26352,-0.30402 0.47852,-0.64258 0.21666,-0.34118 0.49505,-0.81334 0.83593,-1.41602 v -0.002 c 0.34586,-0.60282 0.6065,-1.07964 0.78125,-1.43164 0.0875,-0.17618 0.1537,-0.3211 0.19922,-0.4375 0.0455,-0.1164 0.0742,-0.19568 0.0742,-0.2832 0,-0.21977 -0.12115,-0.43815 -0.33008,-0.66797 H 281.5 c -1.84345,-1.99373 -4.39421,-2.99024 -7.62109,-2.99024 z m 0,0.26368 c 3.17272,0 5.63684,0.96935 7.42773,2.90625 0.18485,0.20386 0.26172,0.37263 0.26172,0.48828 0,0.006 -0.0157,0.0829 -0.0566,0.1875 -0.0409,0.10457 -0.10409,0.24407 -0.18945,0.41601 -0.17073,0.34389 -0.42852,0.81682 -0.77344,1.41797 v 0.002 c -0.34008,0.6013 -0.61736,1.06933 -0.83008,1.4043 -0.21272,0.33497 -0.37662,0.54367 -0.42969,0.58789 l -0.004,0.004 -0.004,0.004 c -0.0518,0.0518 -0.11023,0.0711 -0.18945,0.0742 -0.005,-0.003 -0.007,-0.003 -0.0137,-0.008 -0.0314,-0.0209 -0.0806,-0.0574 -0.14062,-0.10547 -0.12009,-0.0961 -0.29043,-0.24274 -0.51172,-0.43945 -0.53985,-0.47987 -1.07227,-0.85806 -1.59766,-1.13086 h -0.002 c -0.79726,-0.40367 -1.62808,-0.60742 -2.48828,-0.60742 -1.48476,0 -2.69245,0.56527 -3.58398,1.67969 h -0.002 c -0.81959,1.03207 -1.22851,2.3112 -1.22851,3.8164 0,1.52465 0.40901,2.8173 1.22851,3.85938 0.8912,1.13424 2.10058,1.70898 3.58594,1.70898 0.87847,0 1.71422,-0.1924 2.50195,-0.57617 0.51558,-0.25273 1.0382,-0.60454 1.56836,-1.05469 0.21634,-0.18683 0.38442,-0.32682 0.50196,-0.41797 0.0588,-0.0456 0.10602,-0.0798 0.13671,-0.0996 0.007,-0.004 0.009,-0.005 0.0137,-0.008 0.0489,0.003 0.10632,0.0261 0.18554,0.11328 0.1361,0.1531 0.5768,0.78018 1.27735,1.83594 0.35992,0.54728 0.6282,0.97132 0.80664,1.26953 0.0892,0.14911 0.15662,0.26557 0.19922,0.34961 0.0213,0.042 0.0362,0.0771 0.0449,0.0996 0.009,0.0225 0.008,0.0386 0.008,0.0156 0,0.10014 -0.0822,0.29261 -0.28125,0.53907 -1.79379,2.13378 -4.16116,3.19531 -7.14062,3.19531 -3.05119,0 -5.50628,-1.03581 -7.39844,-3.11328 -1.84392,-2.00977 -2.76563,-4.53878 -2.76563,-7.61328 0,-2.97545 0.90253,-5.48655 2.70899,-7.55664 1.88393,-2.16702 4.26365,-3.24414 7.17383,-3.24414 z"
           id="path364828" /></g><g
         id="path76931"><path
           style="color:#000000;-inkscape-font-specification:'Berlin Sans FB Demi Bold';fill:#000000;stroke:none;stroke-width:0.264583;-inkscape-stroke:none"
           d="m 300.97299,630.21539 q 0,0.10369 -0.29628,0.14814 -0.56292,0.0889 -2.82945,0.0889 -1.94063,0 -2.63688,-0.0889 -0.32591,-0.0444 -0.37035,-0.0741 -0.0889,-0.0444 -0.20739,-0.29628 -0.22221,-0.57775 -0.65182,-1.71842 -0.57774,-1.48139 -1.80729,-4.3701 -0.26665,-0.57774 -1.22956,-0.637 0.44442,0.0296 -1.52583,0.0296 -0.22221,0 -0.22221,0.75551 0,1.00734 0.17777,3.00722 0.19258,1.99988 0.19258,3.00723 0,0.25183 -0.13333,0.29628 -0.20739,0.0148 -0.41479,0.0296 -0.87402,0.0593 -2.72576,0.0593 -2.11839,0 -2.54799,-0.0889 -0.42961,-0.0889 -0.42961,-0.45924 0,-1.62953 0.14814,-4.91822 0.16296,-3.28869 0.16296,-4.93303 0,-6.26629 -0.28147,-9.77718 l -0.0148,-0.2074 q -0.0148,-0.25184 0.45923,-0.34072 0.48886,-0.0889 4.53306,-0.17777 2.74057,-0.0593 4.3701,-0.0593 3.37758,0 5.51078,1.52583 2.41467,1.71842 2.41467,4.96266 0,2.16283 -0.62219,3.45165 -0.62218,1.28881 -2.29615,2.50355 -0.34072,0.23702 -0.34072,0.44441 0,-0.0148 1.80729,3.7183 1.8073,3.7331 1.8073,4.11827 z m -6.22184,-13.28809 q 0,-1.80729 -1.18512,-2.50355 -0.91846,-0.5333 -2.8739,-0.5333 -1.40732,0 -1.4962,0.4296 -0.0889,0.50368 -0.0889,2.90353 0,0.34072 0.0148,1.00735 0.0148,0.66662 0.0148,0.99253 0,0.0741 0.47405,0.14814 0.90365,0.13333 1.89618,0.13333 3.24425,0 3.24425,-2.57763 z"
           id="path364832" /><path
           style="color:#000000;-inkscape-font-specification:'Berlin Sans FB Demi Bold';fill:#ffd4b9;stroke:none;-inkscape-stroke:none"
           d="m 292.69141,609.35742 c -1.08796,0 -2.54544,0.021 -4.37305,0.0605 -1.34849,0.0296 -2.39939,0.0582 -3.15625,0.0879 -0.75686,0.0297 -1.20576,0.0571 -1.39649,0.0918 h -0.002 c -0.16925,0.0317 -0.30357,0.0781 -0.40625,0.15429 -0.10268,0.0762 -0.16754,0.19853 -0.16015,0.32422 l 0.0156,0.20899 v 0.002 c 0.18715,2.33434 0.28125,5.59008 0.28125,9.76562 0,1.09186 -0.0555,2.73442 -0.16406,4.92579 v 0.002 c -0.0988,2.19344 -0.14844,3.83347 -0.14844,4.92383 0,0.14902 0.0487,0.28817 0.14453,0.39062 0.0958,0.10245 0.22958,0.16394 0.39063,0.19727 0.16432,0.034 0.44778,0.0554 0.875,0.0703 0.42722,0.0149 0.99411,0.0215 1.70117,0.0215 1.2359,0 2.1454,-0.0186 2.73437,-0.0586 l 0.43164,-0.0312 0.0156,-0.006 c 0.08,-0.0267 0.14595,-0.091 0.17969,-0.16601 0.0337,-0.075 0.0449,-0.16025 0.0449,-0.25586 0,-0.67956 -0.0649,-1.68351 -0.19336,-3.01758 v -0.002 c -0.11819,-1.33 -0.17774,-2.33079 -0.17774,-2.99414 0,-0.24535 0.0205,-0.42628 0.0508,-0.52929 0.0152,-0.0515 0.0325,-0.0822 0.041,-0.0918 0,0 -0.002,-0.002 -0.002,-0.002 0.65708,0 1.11263,-0.003 1.36914,-0.008 0.0926,-0.002 0.13195,-0.005 0.17773,-0.008 0.58698,0.0447 0.93876,0.22374 1.08789,0.54688 v -0.004 c 0.81944,1.92518 1.4205,3.38012 1.80469,4.36524 0.28646,0.76059 0.50399,1.33301 0.65235,1.71875 l 0.002,0.004 0.002,0.004 c 0.0824,0.17504 0.14048,0.29127 0.26563,0.35547 0.0545,0.0328 0.0895,0.0366 0.15039,0.0488 0.0664,0.0133 0.15348,0.026 0.26367,0.041 0.47948,0.0612 1.35852,0.0898 2.6543,0.0898 1.51274,0 2.4473,-0.0263 2.84961,-0.0898 0.10622,-0.0159 0.19025,-0.0365 0.26171,-0.0723 0.0715,-0.0357 0.14649,-0.10946 0.14649,-0.20703 0,-0.11592 -0.0442,-0.23933 -0.1211,-0.44726 -0.0769,-0.20793 -0.19057,-0.48355 -0.34179,-0.82813 -0.30244,-0.68915 -0.7546,-1.65522 -1.35742,-2.90039 -0.60245,-1.24439 -1.0542,-2.17703 -1.35547,-2.79687 -0.15064,-0.30992 -0.26442,-0.54137 -0.33985,-0.69532 -0.0377,-0.077 -0.0649,-0.13355 -0.084,-0.17187 -0.002,-0.004 -0.002,-0.006 -0.004,-0.01 0.006,-0.0675 0.0698,-0.18061 0.27344,-0.32226 l 0.002,-0.002 c 1.12768,-0.81832 1.90999,-1.66636 2.33789,-2.55274 0.42739,-0.8853 0.63477,-2.05519 0.63477,-3.50976 0,-2.19565 -0.82888,-3.9019 -2.4707,-5.07032 -1.44901,-1.03644 -3.31625,-1.55078 -5.58789,-1.55078 z m 0,0.26563 c 2.23179,0 4.03833,0.50395 5.43359,1.50195 h 0.002 c 1.57774,1.12281 2.35742,2.72351 2.35742,4.85352 0,1.4292 -0.20522,2.56141 -0.60742,3.39453 -0.40166,0.83203 -1.15157,1.65374 -2.25586,2.45507 -0.24033,0.16772 -0.39453,0.34092 -0.39453,0.55079 h 0.16797 c -0.062,0.0435 -0.13088,0.0918 -0.13086,0.0918 4e-5,4e-5 -0.0118,-0.0137 -0.0117,-0.0137 0.004,0.008 0.008,0.0194 0.0156,0.0352 0.0186,0.0373 0.0483,0.0951 0.0859,0.17187 0.0752,0.15345 0.18731,0.38552 0.33789,0.69531 0.30115,0.6196 0.75305,1.55059 1.35546,2.79493 0.60205,1.24356 1.05352,2.20898 1.35352,2.89257 0.15,0.3418 0.2622,0.61305 0.33594,0.8125 0.0681,0.18414 0.0912,0.29838 0.0957,0.32813 -0.0291,0.0135 -0.0884,0.0318 -0.17578,0.0449 -0.34826,0.055 -1.2993,0.0879 -2.80859,0.0879 -1.29077,0 -2.16999,-0.0307 -2.61914,-0.0879 h -0.002 c -0.10589,-0.0145 -0.18948,-0.0277 -0.24609,-0.0391 -0.0571,-0.0114 -0.10104,-0.0368 -0.0664,-0.0137 l -0.008,-0.004 -0.008,-0.004 c 0.009,0.004 -0.0698,-0.0773 -0.14258,-0.22656 l -0.002,-0.004 c -10e-4,-0.002 -7.8e-4,-10e-4 -0.002,-0.004 -0.14787,-0.38455 -0.36149,-0.95228 -0.64648,-1.70898 l -0.002,-0.002 c -0.38613,-0.99007 -0.98863,-2.44661 -1.8086,-4.37304 v -0.002 l -0.002,-0.002 c -0.17242,-0.37358 -0.62489,-0.52546 -1.14258,-0.60938 -0.002,-0.007 -0.004,-0.0156 -0.004,-0.0156 -2e-5,-6e-5 -0.0175,-0.0312 -0.0176,-0.0312 -6e-5,-6e-5 -0.0195,-0.0175 -0.0195,-0.0176 -1.5e-4,-1.3e-4 -0.0232,-0.0175 -0.0234,-0.0176 -2.5e-4,-1.3e-4 -0.0116,-0.004 -0.0156,-0.006 -0.0161,-0.006 -0.0226,-0.007 -0.0293,-0.008 -0.0269,-0.005 -0.0492,-0.007 -0.0879,-0.01 -7.5e-4,-5e-5 -0.001,4e-5 -0.002,0 v 0.0176 c -3.2e-4,2e-5 -0.002,-2e-5 -0.002,0 -0.0288,0.002 -0.0694,0.004 -0.16797,0.006 -0.2521,0.005 -0.70686,0.006 -1.36328,0.006 -0.0745,0 -0.14824,0.0404 -0.19531,0.0937 -0.0471,0.0534 -0.0758,0.117 -0.0977,0.19141 -0.0438,0.14882 -0.0605,0.34519 -0.0605,0.60351 0,0.67935 0.059,1.68433 0.17774,3.01954 0.12818,1.33114 0.1914,2.331 0.1914,2.99414 0,0.0723 -0.0108,0.12268 -0.0215,0.14648 -0.009,0.0199 -0.0118,0.0196 -0.0176,0.0215 l -0.38672,0.0273 c -0.57644,0.0391 -1.48265,0.0586 -2.71484,0.0586 -0.70521,0 -1.2693,-0.007 -1.69141,-0.0215 -0.42211,-0.0147 -0.708,-0.0392 -0.83008,-0.0645 -0.12535,-0.0259 -0.20459,-0.0705 -0.25195,-0.12109 -0.0474,-0.0506 -0.0723,-0.11111 -0.0723,-0.20898 0,-1.08235 0.0497,-2.72064 0.14843,-4.91211 0.1087,-2.19355 0.16211,-3.83886 0.16211,-4.93946 0,-4.1795 -0.0931,-7.44026 -0.28125,-9.78711 l -0.0156,-0.20703 c -0.002,-0.0408 0.005,-0.0589 0.0547,-0.0957 0.0504,-0.0374 0.15011,-0.0779 0.29688,-0.10547 0.13518,-0.0246 0.60522,-0.0564 1.35937,-0.0859 0.75416,-0.0296 1.80471,-0.0602 3.15235,-0.0898 1.82648,-0.0395 3.28244,-0.0586 4.36719,-0.0586 z m -2,4.13476 c -0.47584,0 -0.84277,0.0356 -1.11329,0.11328 -0.13525,0.0388 -0.24725,0.088 -0.33593,0.15625 -0.0887,0.0683 -0.15395,0.16012 -0.17578,0.26563 v 0.002 0.002 c -0.0655,0.37121 -0.0918,1.32425 -0.0918,2.92579 0,0.22906 0.006,0.5668 0.0156,1.01171 0.01,0.44394 0.0137,0.77302 0.0137,0.98829 0,0.0829 0.0552,0.12753 0.0918,0.15039 0.0366,0.0228 0.0736,0.0366 0.11914,0.0508 0.091,0.0284 0.21366,0.0529 0.375,0.0781 h 0.002 c 0.60935,0.0899 1.2484,0.13477 1.91601,0.13477 1.09894,0 1.93933,-0.21555 2.51367,-0.67188 0.54205,-0.43066 0.80746,-1.08788 0.83789,-1.90429 h 0.0234 v -0.13282 c 0,-1.23377 -0.41681,-2.12769 -1.25,-2.61718 v -0.002 c -0.64756,-0.376 -1.62575,-0.55078 -2.9414,-0.55078 z m 0,0.26563 c 1.2916,0 2.23154,0.18056 2.80859,0.51562 0.74532,0.43911 1.11914,1.21403 1.11914,2.38867 0,0.83146 -0.25464,1.4272 -0.76172,1.83008 -0.50707,0.40289 -1.28571,0.61524 -2.34961,0.61524 -0.65576,0 -1.28144,-0.045 -1.87695,-0.13282 -0.15469,-0.0242 -0.26892,-0.0474 -0.33594,-0.0684 -0.0144,-0.005 -0.0159,-0.006 -0.0254,-0.01 -5.7e-4,-0.21874 -0.006,-0.51579 -0.0156,-0.93359 -0.01,-0.44392 -0.0137,-0.78063 -0.0137,-1.00586 0,-1.5961 0.0331,-2.5732 0.0859,-2.875 0.008,-0.0377 0.0273,-0.0722 0.0781,-0.11133 0.0508,-0.0391 0.13198,-0.0786 0.24609,-0.11133 0.22822,-0.0655 0.57864,-0.10156 1.04102,-0.10156 z m 0.25781,9.14648 -0.0117,0.20508 c -0.005,-0.005 -0.0137,-0.0137 -0.0137,-0.0137 5e-5,6e-5 -0.0196,-0.0313 -0.0195,-0.0312 2e-5,6e-5 -0.01,-0.0469 -0.01,-0.0469 0,7e-5 0.006,-0.0489 0.006,-0.0488 -2e-5,7e-5 0.0196,-0.0352 0.0195,-0.0352 -4e-5,6e-5 0.0177,-0.0215 0.0176,-0.0215 -6e-5,6e-5 0.006,-0.004 0.0117,-0.008 z"
           id="path364834" /></g><g
         id="path76933"><path
           style="color:#000000;-inkscape-font-specification:'Berlin Sans FB Demi Bold';fill:#000000;stroke:none;stroke-width:0.264583;-inkscape-stroke:none"
           d="m 317.81642,625.7564 q 0,0.637 -0.25183,2.3406 -0.26665,1.85174 -0.47405,2.20727 -0.17777,0.28146 -0.48886,0.28146 -0.13332,0 -0.44442,-0.0444 -1.08141,-0.14814 -6.31072,-0.14814 -1.14068,0 -3.39239,-0.0148 -2.25172,-0.0148 -3.37757,-0.0148 -0.48886,0 -0.48886,-0.42961 0,-1.65916 0.17776,-4.97747 0.19259,-3.33313 0.19259,-4.99229 0,-1.68879 -0.17777,-6.29592 -0.0444,-1.18511 -0.16295,-3.54052 l -0.0148,-0.2074 q -0.0296,-0.34072 0.37035,-0.34072 1.09623,0 3.28869,0.0593 2.20727,0.0593 3.3035,0.0593 1.08142,0 3.25906,-0.0593 2.17765,-0.0593 3.25906,-0.0593 0.77033,0 0.88884,0.57774 0.0741,0.34072 0.22221,2.07395 0.16295,1.71842 0.16295,2.08876 0,0.3111 -0.29628,0.3111 -0.0889,0 -0.31109,-0.0148 -3.9405,-0.3259 -7.08105,-0.3259 -0.78514,0 -0.96291,0.37034 -0.0741,0.17777 -0.0741,1.14068 0,1.00734 0.29627,1.33325 0.25184,0.28146 0.96291,0.28146 0.14814,0 0.57774,-0.0148 0.4296,-0.0296 0.71107,-0.0296 1.86655,0 3.77755,-0.1037 0.16295,-0.0148 0.81476,-0.0741 0.50368,-0.0593 0.79995,-0.0593 0.35554,0 0.35554,0.34072 0,-0.31109 -0.26665,2.26653 -0.11851,1.18511 -0.11851,2.37022 0,0.29628 -0.42961,0.29628 0,0 -1.33325,-0.14814 -0.84439,-0.0889 -3.85162,-0.0889 h -1.57027 q -0.60737,0 -0.71107,0.29628 -0.0148,0.0741 -0.0148,0.91846 0,1.12586 0.14813,1.45176 0.25184,0.56293 1.89619,0.66663 -0.0296,0 2.16283,0 0.78513,0 2.32578,-0.13332 1.55546,-0.14814 2.32579,-0.14814 0.3259,0 0.3259,0.5333 z"
           id="path364838" /><path
           style="color:#000000;-inkscape-font-specification:'Berlin Sans FB Demi Bold';fill:#ffd4b9;stroke:none;-inkscape-stroke:none"
           d="m 302.97266,609.44727 c -0.1521,0 -0.28617,0.0322 -0.38282,0.12109 -0.0962,0.0885 -0.13071,0.22287 -0.11914,0.36133 l 0.0156,0.20703 -0.002,-0.002 c 0.079,1.56998 0.13451,2.75011 0.16407,3.53906 0.11849,3.07079 0.17773,5.1698 0.17773,6.29101 0,1.10099 -0.065,2.76356 -0.19336,4.98438 -0.11857,2.21338 -0.17773,3.87354 -0.17773,4.98437 0,0.1683 0.0536,0.32141 0.16797,0.42188 0.11432,0.10047 0.27079,0.14062 0.45312,0.14062 0.74999,0 1.87595,0.004 3.37695,0.0137 1.50129,0.01 2.63156,0.0156 3.39258,0.0156 3.48496,0 5.60044,0.0516 6.29297,0.14648 0.21002,0.03 0.35933,0.0469 0.46289,0.0469 0.24729,0 0.46445,-0.12665 0.60156,-0.34375 v -0.002 l 0.002,-0.002 c 0.0881,-0.15102 0.15627,-0.39676 0.23633,-0.76953 0.0799,-0.37229 0.16489,-0.86643 0.2539,-1.48437 v -0.002 c 0.16796,-1.13657 0.25391,-1.91763 0.25391,-2.35937 0,-0.19124 -0.0268,-0.34638 -0.10156,-0.46875 -0.0748,-0.12237 -0.21271,-0.19531 -0.35743,-0.19531 -0.52203,0 -1.29886,0.0495 -2.33789,0.14843 -1.02517,0.0887 -1.79656,0.13282 -2.3125,0.13282 h -2.15625 c -0.54082,-0.0341 -0.96226,-0.10635 -1.25976,-0.21094 -0.29751,-0.10459 -0.46079,-0.23887 -0.52344,-0.37891 -0.075,-0.16502 -0.13672,-0.65171 -0.13672,-1.39648 0,-0.28107 10e-4,-0.49862 0.004,-0.65039 0.001,-0.0759 0.002,-0.13522 0.004,-0.17774 0.001,-0.0322 0.004,-0.0426 0.004,-0.0488 0.0216,-0.0589 0.0604,-0.10426 0.15234,-0.14258 0.0938,-0.0391 0.23799,-0.0625 0.42969,-0.0625 h 1.57031 c 2.00352,0 3.29123,0.0303 3.83789,0.0879 l 1.33985,0.14844 h 0.008 c 0.15841,0 0.29095,-0.0249 0.39649,-0.0977 0.10553,-0.0728 0.16406,-0.2013 0.16406,-0.33203 0,-0.78566 0.0406,-1.56974 0.11914,-2.35547 0.0888,-0.85894 0.15494,-1.47716 0.19922,-1.85352 0.0221,-0.18818 0.0386,-0.31755 0.0488,-0.38086 0.002,-0.013 0.003,-0.021 0.004,-0.0273 -0.002,0.004 -0.0121,0.022 -0.0117,0.0215 1.8e-4,-2.6e-4 -0.0216,0.0255 -0.0215,0.0254 8e-5,-8e-5 -0.0255,0.0176 -0.0254,0.0176 8e-5,-4e-5 -0.0411,0.0137 -0.041,0.0137 8e-5,-2e-5 -0.0509,-0.002 -0.0508,-0.002 7e-5,2e-5 -0.043,-0.0176 -0.043,-0.0176 1.4e-4,1e-4 -0.0392,-0.0412 -0.0391,-0.041 1.3e-4,2.1e-4 -0.0118,-0.0238 -0.0117,-0.0234 1.2e-4,3.3e-4 -0.003,-0.009 -0.004,-0.0117 -2.4e-4,-10e-4 2e-4,-10e-4 0,-0.002 h 0.26368 c 0,-0.0153 4.1e-4,-0.0244 -0.002,-0.043 -5.9e-4,-0.005 -0.002,-0.01 -0.004,-0.0176 -9.9e-4,-0.004 -0.004,-0.0153 -0.004,-0.0156 -1.2e-4,-3.3e-4 -0.0135,-0.0252 -0.0137,-0.0254 -8e-5,-1.3e-4 -0.0117,-0.0134 -0.0234,-0.0254 -0.019,-0.0802 -0.0259,-0.16703 -0.084,-0.22266 -0.0911,-0.0873 -0.21778,-0.12305 -0.35742,-0.12305 -0.20634,0 -0.47763,0.0207 -0.81641,0.0606 -0.43093,0.0392 -0.70246,0.0644 -0.81055,0.0742 -1.27032,0.0689 -2.52499,0.10351 -3.76562,0.10351 -0.19229,0 -0.43233,0.009 -0.72071,0.0293 -0.28108,0.01 -0.47496,0.0137 -0.56836,0.0137 -0.45659,0 -0.73664,-0.0948 -0.86328,-0.23633 h -0.002 v -0.002 c -0.15188,-0.16707 -0.26172,-0.58555 -0.26172,-1.24414 0,-0.31927 0.007,-0.5725 0.0195,-0.75781 0.0118,-0.1821 0.0361,-0.30281 0.0449,-0.32617 0.0431,-0.0876 0.11767,-0.15854 0.25391,-0.21094 0.138,-0.0531 0.33463,-0.084 0.58594,-0.084 2.08912,0 4.44619,0.10915 7.07031,0.32618 h 0.002 c 0.1493,0.01 0.25371,0.0156 0.32032,0.0156 0.12191,0 0.2386,-0.0354 0.31836,-0.11914 0.0797,-0.0837 0.11132,-0.19952 0.11132,-0.32422 0,-0.26605 -0.0555,-0.95501 -0.16406,-2.09961 v -0.002 c -0.0986,-1.1536 -0.16927,-1.8328 -0.22461,-2.08789 v -0.002 c -0.0454,-0.21944 -0.16289,-0.40061 -0.33984,-0.51563 -0.17742,-0.11532 -0.40442,-0.16601 -0.67774,-0.16601 -0.72335,0 -1.81131,0.019 -3.26367,0.0586 -1.45116,0.0395 -2.53733,0.0606 -3.25586,0.0606 -0.72843,0 -1.8279,-0.021 -3.29883,-0.0606 -1.46223,-0.0395 -2.55976,-0.0586 -3.29296,-0.0586 z m 0,0.26562 c 0.72843,0 1.82411,0.0191 3.28515,0.0586 1.4721,0.0395 2.57344,0.0586 3.30664,0.0586 0.72337,0 1.81132,-0.019 3.26367,-0.0586 1.45117,-0.0395 2.53734,-0.0586 3.25586,-0.0586 0.24024,0 0.4163,0.0458 0.53516,0.12305 0.11886,0.0772 0.18882,0.18271 0.22266,0.34765 v 0.002 h 0.002 c 0.0434,0.19951 0.12011,0.90228 0.21875,2.05664 v 0.002 c 0.10855,1.14472 0.16211,1.84868 0.16211,2.07617 0,0.0827 -0.0181,0.12263 -0.0371,0.14258 -0.019,0.02 -0.0513,0.0352 -0.12695,0.0352 -0.0513,0 -0.15487,-0.004 -0.29883,-0.0137 h -0.004 c -2.62813,-0.21726 -4.99272,-0.32617 -7.08984,-0.32617 -0.27211,0 -0.49672,0.0312 -0.67969,0.10157 -0.18297,0.0704 -0.32665,0.18605 -0.40234,0.34375 v 0.004 l -0.002,0.002 c -0.041,0.0984 -0.0537,0.2211 -0.0664,0.41602 -0.0127,0.19492 -0.0176,0.45272 -0.0176,0.77539 0,0.68364 0.0876,1.15423 0.33008,1.42188 0.20915,0.23374 0.56904,0.32617 1.06054,0.32617 0.10317,0 0.29511,-0.006 0.58204,-0.0156 h 0.002 0.004 c 0.28442,-0.0196 0.51816,-0.0293 0.70117,-0.0293 1.24681,0 2.50883,-0.0343 3.78515,-0.10352 h 0.002 0.002 c 0.10866,-0.01 0.37991,-0.0347 0.81445,-0.0742 h 0.002 0.002 c 0.33279,-0.0392 0.59647,-0.0586 0.78516,-0.0586 0.0974,0 0.14833,0.0225 0.17578,0.0488 0.0227,0.0218 0.0335,0.0687 0.0391,0.13086 -0.002,0.01 -0.004,0.0189 -0.006,0.0312 -0.012,0.0737 -0.0285,0.203 -0.0508,0.39257 -0.0446,0.37915 -0.11226,0.99795 -0.20117,1.85743 -0.0794,0.79441 -0.11914,1.58833 -0.11914,2.38281 0,0.0668 -0.0131,0.0873 -0.0508,0.11328 -0.0377,0.026 -0.11809,0.0508 -0.24609,0.0508 l -1.32031,-0.14648 c -0.57919,-0.061 -1.85911,-0.0899 -3.86524,-0.0899 h -1.57031 c -0.21321,0 -0.38805,0.0243 -0.53125,0.084 -0.1432,0.0597 -0.25682,0.16401 -0.30469,0.30078 l -0.002,0.01 -0.002,0.008 c -0.007,0.036 -0.008,0.0591 -0.01,0.10546 -0.002,0.0464 -0.003,0.10836 -0.004,0.18555 -0.002,0.15438 -0.004,0.37246 -0.004,0.6543 0,0.75637 0.0377,1.23635 0.16016,1.50586 0.10553,0.23457 0.34183,0.40017 0.67578,0.51758 0.33455,0.11761 0.77662,0.19153 1.33203,0.22656 h 0.004 2.16797 c 0.53091,0 1.30692,-0.0438 2.33594,-0.13281 h 0.002 c 1.03492,-0.0986 1.80743,-0.14844 2.3125,-0.14844 0.0726,0 0.097,0.0149 0.13086,0.0703 0.0339,0.0554 0.0625,0.16579 0.0625,0.33008 0,0.40723 -0.0825,1.18889 -0.25,2.32226 -0.0886,0.61545 -0.17204,1.10577 -0.25,1.46875 -0.0775,0.36083 -0.15487,0.60018 -0.20507,0.6875 -0.0999,0.15819 -0.20946,0.21875 -0.37696,0.21875 -0.0742,0 -0.221,-0.0137 -0.42578,-0.043 -0.74935,-0.10266 -2.84262,-0.14844 -6.33008,-0.14844 -0.75988,0 -1.88963,-0.006 -3.39062,-0.0156 -1.50129,-0.01 -2.62776,-0.0156 -3.37891,-0.0156 -0.14358,0 -0.23067,-0.0315 -0.2793,-0.0742 -0.0486,-0.0427 -0.0762,-0.10454 -0.0762,-0.22266 0,-1.10095 0.0594,-2.75902 0.17774,-4.96875 v -0.002 c 0.12836,-2.22204 0.1914,-3.88726 0.1914,-4.99805 0,-1.1305 -0.0592,-3.22874 -0.17773,-6.30078 -0.0296,-0.7912 -0.0831,-1.97241 -0.16211,-3.54297 v -0.002 l -0.0156,-0.20898 v -0.002 c -0.008,-0.088 0.008,-0.12183 0.0352,-0.14648 0.0268,-0.0247 0.0886,-0.0488 0.20313,-0.0488 z"
           id="path364840" /></g><g
         id="path76935"><path
           style="color:#000000;-inkscape-font-specification:'Berlin Sans FB Demi Bold';fill:#000000;stroke:none;stroke-width:0.264583;-inkscape-stroke:none"
           d="m 339.11883,619.86046 q 0,4.35529 -2.79983,7.5551 -2.47393,2.85908 -6.94773,3.00722 -0.85921,0.0296 -4.72564,0.0296 -0.72588,0 -2.19246,-0.0444 -1.45176,-0.0444 -2.17764,-0.0444 -0.42961,0 -0.42961,-0.34072 0,-1.62954 0.11851,-4.8886 0.13333,-3.27387 0.13333,-4.9034 0,-1.7036 -0.13333,-5.09599 -0.11851,-3.4072 -0.11851,-5.09599 0,-0.31109 0.42961,-0.37035 1.05178,-0.11851 3.45164,-0.11851 4.56269,0 5.91075,0.13333 3.5109,0.35553 5.49596,1.77767 1.86656,1.33325 2.94797,3.73311 1.03698,2.26652 1.03698,4.66638 z m -5.67373,0 q 0,-2.50355 -1.49621,-4.08864 -1.51102,-1.64435 -3.99975,-1.64435 -2.28135,0 -2.28135,0.60737 0,0.87403 -0.0296,2.63688 -0.0296,1.74804 -0.0296,2.62206 0,0.85921 0.0296,2.59244 0.0296,1.71841 0.0296,2.59243 0,0.637 2.37023,0.637 2.56281,0 4.02938,-1.7036 1.3777,-1.61471 1.3777,-4.25159 z"
           id="path364844" /><path
           style="color:#000000;-inkscape-font-specification:'Berlin Sans FB Demi Bold';fill:#ffd4b9;stroke:none;-inkscape-stroke:none"
           d="m 323.72656,609.41797 c -1.60208,0 -2.75448,0.0389 -3.46679,0.11914 h -0.002 c -0.15872,0.0219 -0.29127,0.0687 -0.39062,0.1543 -0.0994,0.0856 -0.1543,0.21351 -0.1543,0.34765 0,1.12896 0.0401,2.82739 0.11914,5.09961 v 0.002 c 0.0889,2.26073 0.13281,3.95757 0.13281,5.08985 0,1.08274 -0.044,2.71675 -0.13281,4.89844 -0.079,2.1735 -0.11914,3.80496 -0.11914,4.89453 0,0.14137 0.053,0.2759 0.1582,0.35937 0.10525,0.0835 0.24361,0.11328 0.4043,0.11328 0.48122,0 1.20666,0.0154 2.17383,0.0449 0.97838,0.0296 1.71065,0.043 2.19726,0.043 2.57796,0 4.14889,-0.009 4.72852,-0.0293 3.00923,-0.0996 5.36867,-1.11849 7.04297,-3.05274 1.88614,-2.15559 2.83398,-4.70875 2.83398,-7.64062 0,-1.61835 -0.35068,-3.19417 -1.04883,-4.72071 v -0.002 c -0.72881,-1.61676 -1.72751,-2.88182 -2.99218,-3.78515 -1.34915,-0.96656 -3.20485,-1.56419 -5.56055,-1.80274 -0.91325,-0.0903 -2.88075,-0.13281 -5.92383,-0.13281 z m 0,0.26367 c 3.0405,0 5.01428,0.0454 5.89844,0.13281 2.32549,0.23549 4.13404,0.82428 5.43164,1.75391 1.22366,0.87403 2.1913,2.09741 2.9043,3.67969 v 0.002 c 0.68397,1.49495 1.02539,3.03048 1.02539,4.61133 0,2.87517 -0.92062,5.35598 -2.76758,7.46679 -1.62421,1.87707 -3.89636,2.86504 -6.85156,2.9629 -0.56598,0.0195 -2.14343,0.0293 -4.72071,0.0293 -0.48122,0 -1.21239,-0.0153 -2.18945,-0.0449 -0.96851,-0.0296 -1.69502,-0.0449 -2.18164,-0.0449 -0.12572,0 -0.20227,-0.0265 -0.24023,-0.0566 -0.038,-0.0301 -0.0566,-0.0646 -0.0566,-0.15039 0,-1.08315 0.0382,-2.71286 0.11718,-4.88477 0.0889,-2.18347 0.13477,-3.81824 0.13477,-4.9082 0,-1.13875 -0.0459,-2.83845 -0.13477,-5.09961 v -0.002 c -0.0789,-2.2694 -0.11718,-3.96751 -0.11718,-5.08985 0,-0.0732 0.0167,-0.11063 0.0605,-0.14844 0.0435,-0.0375 0.12629,-0.072 0.25196,-0.0898 0.69006,-0.0778 1.83782,-0.11914 3.43554,-0.11914 z m 4.22266,4.31445 c -0.76632,0 -1.34468,0.0494 -1.7461,0.15625 -0.2007,0.0534 -0.35715,0.11908 -0.4746,0.21289 -0.11746,0.0938 -0.19336,0.22651 -0.19336,0.36914 0,0.5812 -0.01,1.45991 -0.0293,2.63477 -0.0197,1.16573 -0.0293,2.04083 -0.0293,2.625 0,0.57433 0.01,1.43789 0.0293,2.59375 0.0197,1.14522 0.0293,2.00866 0.0293,2.58984 0,0.14719 0.0761,0.28516 0.19726,0.38282 0.12113,0.0976 0.28595,0.1667 0.49414,0.22265 0.41639,0.11191 1.01455,0.16407 1.81055,0.16407 1.73785,0 3.12829,-0.58344 4.13086,-1.74805 v -0.002 c 0.94154,-1.10353 1.41016,-2.55498 1.41015,-4.33594 0,-1.69539 -0.51186,-3.09768 -1.5332,-4.17969 -1.0317,-1.12206 -2.40803,-1.68555 -4.0957,-1.68555 z m 0,0.26368 c 1.63001,0 2.91948,0.53197 3.90234,1.60156 l 0.002,0.002 c 0.9736,1.03144 1.45898,2.35537 1.45898,3.99805 0,1.73488 -0.45032,3.11464 -1.3457,4.16406 -0.95286,1.10686 -2.25047,1.6582 -3.92969,1.6582 -0.78415,0 -1.3685,-0.0539 -1.74219,-0.15429 -0.18684,-0.0502 -0.32009,-0.11419 -0.39648,-0.17578 -0.0764,-0.0616 -0.0977,-0.11064 -0.0977,-0.17579 0,-0.58417 -0.0115,-1.44775 -0.0312,-2.59375 -0.0197,-1.15511 -0.0293,-2.01855 -0.0293,-2.58984 0,-0.58119 0.01,-1.45611 0.0293,-2.62109 0.0197,-1.1756 0.0312,-2.0545 0.0312,-2.63868 0,-0.0598 0.0191,-0.10408 0.0918,-0.1621 0.0727,-0.058 0.19939,-0.11823 0.3789,-0.16602 0.35904,-0.0956 0.92316,-0.14648 1.67774,-0.14648 z"
           id="path364846" /></g><g
         id="path76937"><path
           style="color:#000000;-inkscape-font-specification:'Berlin Sans FB Demi Bold';fill:#000000;stroke:none;stroke-width:0.264583;-inkscape-stroke:none"
           d="m 347.42943,619.41604 q 0,1.74804 0.0889,5.25894 0.0889,3.5109 0.0889,5.25894 0,0.29628 -0.13333,0.37035 -0.0296,0.0148 -0.38516,0.0593 -0.96291,0.11851 -2.57762,0.11851 -2.16283,0 -2.75539,-0.11851 -0.4296,-0.0889 -0.4296,-0.45924 0,0.23703 0.13332,-2.60725 0.26665,-5.99963 0.26665,-7.881 0,-1.58509 -0.1037,-4.75527 -0.10369,-3.17017 -0.10369,-4.75526 0,-0.32591 0.34072,-0.32591 0.45923,0 1.37769,0.0444 0.93328,0.0444 1.39251,0.0444 0.45923,0 1.34806,-0.0444 0.90365,-0.0444 1.36288,-0.0444 0.42961,0 0.42961,0.32591 0,1.58509 -0.17777,4.75526 -0.16295,3.17018 -0.16295,4.75527 z"
           id="path364850" /><path
           style="color:#000000;-inkscape-font-specification:'Berlin Sans FB Demi Bold';fill:#ffd4b9;stroke:none;-inkscape-stroke:none"
           d="m 341.85937,609.44727 c -0.13466,0 -0.25903,0.0344 -0.34765,0.11914 -0.0886,0.0848 -0.125,0.20815 -0.125,0.33984 0,1.05961 0.0344,2.6456 0.10351,4.75977 0.0691,2.11273 0.10352,3.69615 0.10352,4.75 0,1.24799 -0.0879,3.87586 -0.26563,7.875 -0.0444,0.948 -0.0794,1.64008 -0.10156,2.07421 -0.0111,0.21707 -0.018,0.36937 -0.0234,0.45704 -0.003,0.0438 -0.005,0.0736 -0.006,0.0781 -1.3e-4,0.001 0.002,-0.0109 0.002,-0.01 -7e-5,2.8e-4 0.006,-0.0197 0.006,-0.0195 -3e-5,8e-5 0.0137,-0.0235 0.0137,-0.0234 -2e-5,3e-5 0.0521,0.0358 0.082,0.0566 h -0.10742 c 0,0.006 -1.5e-4,0.0105 0,0.0156 1.5e-4,0.005 0.004,0.0264 0.004,0.0273 4e-5,2.3e-4 0.01,0.0311 0.01,0.0312 2e-5,3e-5 0.0154,0.02 0.0254,0.0332 0.0189,0.10265 0.0359,0.20887 0.10547,0.2832 0.0958,0.10245 0.22958,0.16394 0.39063,0.19727 v 0.002 h 0.002 c 0.42539,0.0851 1.33695,0.12109 2.78125,0.12109 1.07971,0 1.94291,-0.041 2.59375,-0.12109 0.11919,-0.0149 0.21088,-0.0269 0.27734,-0.0371 0.0332,-0.005 0.0602,-0.009 0.082,-0.0137 0.0218,-0.004 0.0279,-10e-4 0.0684,-0.0215 h 0.002 l 0.004,-0.002 c 0.0772,-0.0429 0.13032,-0.11829 0.16016,-0.20117 0.0298,-0.0829 0.041,-0.17647 0.041,-0.28516 0,-1.1676 -0.0306,-2.92056 -0.0898,-5.26172 -0.0593,-2.34004 -0.0879,-4.09274 -0.0879,-5.25585 0,-1.0522 0.0535,-2.63573 0.16211,-4.74805 0.11858,-2.11468 0.17773,-3.70005 0.17773,-4.76172 0,-0.1377 -0.0547,-0.26963 -0.16015,-0.34961 -0.10544,-0.08 -0.24242,-0.10937 -0.40235,-0.10937 -0.31041,0 -0.76561,0.0153 -1.36914,0.0449 -0.59142,0.0295 -1.0399,0.0449 -1.34179,0.0449 -0.30189,0 -0.76361,-0.0154 -1.38477,-0.0449 -0.61337,-0.0297 -1.07435,-0.0449 -1.38477,-0.0449 z m 0,0.26562 c 0.30189,0 0.75985,0.0134 1.3711,0.043 0.62321,0.0297 1.08802,0.0449 1.39844,0.0449 0.31041,0 0.76178,-0.0153 1.35546,-0.0449 0.60134,-0.0295 1.05358,-0.043 1.35547,-0.043 0.12648,0 0.20442,0.0241 0.24219,0.0527 0.0378,0.0287 0.0566,0.0611 0.0566,0.14063 0,1.05178 -0.0593,2.63583 -0.17773,4.74805 -0.10004,1.9463 -0.14242,3.32908 -0.15039,4.38281 l -0.0137,-0.0176 v 0.39649 c 1e-5,1.1676 0.0306,2.92056 0.0899,5.26171 0.0592,2.34005 0.0879,4.09275 0.0879,5.25586 0,0.0888 -0.0108,0.15475 -0.0254,0.19532 -0.0135,0.0375 -0.0241,0.0498 -0.0352,0.0566 0,0 -0.002,-0.002 -0.002,-0.002 -0.0152,0.003 -0.0393,0.007 -0.0703,0.0117 -0.0619,0.01 -0.15169,0.0224 -0.26953,0.0371 -0.63305,0.0779 -1.48732,0.11719 -2.56055,0.11719 -1.43844,0 -2.36329,-0.0424 -2.72852,-0.11524 h -0.002 c -0.124,-0.026 -0.20489,-0.0708 -0.25195,-0.12109 -0.046,-0.0492 -0.067,-0.10998 -0.0684,-0.20312 0.002,-0.0184 0.004,-0.0368 0.006,-0.0723 0.006,-0.0901 0.0143,-0.24346 0.0254,-0.46094 0.0222,-0.43495 0.0552,-1.12604 0.0996,-2.07422 0.17779,-4.00036 0.26562,-6.62622 0.26562,-7.88671 0,-1.05961 -0.0344,-2.6456 -0.10351,-4.75977 -0.0691,-2.11272 -0.10352,-3.69616 -0.10352,-4.75 0,-0.0856 0.02,-0.12652 0.0449,-0.15039 0.0249,-0.0239 0.0716,-0.043 0.16406,-0.043 z m -0.44726,20.10938 c -3e-5,-3e-5 0.0352,0.045 0.0352,0.0449 -5e-5,-1.1e-4 0.01,0.0315 0.01,0.0312 -7e-5,-3.9e-4 -3.8e-4,0.003 0,0.006 h -0.11523 c 0.0205,-0.0244 0.0703,-0.082 0.0703,-0.082 z"
           id="path364852" /></g><g
         id="path76939"><path
           style="color:#000000;-inkscape-font-specification:'Berlin Sans FB Demi Bold';fill:#000000;stroke:none;stroke-width:0.264583;-inkscape-stroke:none"
           d="m 364.88023,614.11266 q 0,0.29628 -0.3259,0.29628 -0.56293,0 -4.45899,-0.22221 -0.0889,3.74792 -0.0889,5.22931 0,1.74804 0.13333,5.25894 0.14814,3.5109 0.14814,5.25894 0,0.28147 -0.13333,0.35554 -0.0444,0.0296 -0.41479,0.0741 -0.88883,0.11851 -2.60725,0.11851 -1.91099,0 -2.68132,-0.11851 -0.41478,-0.0741 -0.41478,-0.45924 0,-1.74804 0.14813,-5.24412 0.14814,-3.49609 0.14814,-5.24413 0,-1.15548 -0.11851,-5.15524 -2.96278,0.29628 -4.72564,0.29628 -0.23702,0 -0.23702,-0.14814 0,-0.19258 0.2074,-1.14067 0.23702,-1.03698 0.26665,-1.25919 0.0444,-0.69625 0.10369,-1.3925 0.1037,-1.11105 0.35554,-1.11105 0.0296,0 0.20739,0.0148 2.39986,0.31109 7.09587,0.31109 1.33325,0 4.91822,-0.28147 1.92581,-0.14814 1.94062,-0.14814 0.29628,0 0.34072,0.0444 0.0444,0.0296 0.0593,0.28146 0,0.39998 -0.0296,1.11104 -0.0296,0.78514 -0.0296,1.11105 0,0.37035 0.0889,1.09623 0.1037,0.71107 0.1037,1.0666 z"
           id="path364856" /><path
           style="color:#000000;-inkscape-font-specification:'Berlin Sans FB Demi Bold';fill:#ffd4b9;stroke:none;-inkscape-stroke:none"
           d="m 364.34766,609.26953 c -0.01,0 -0.66728,0.0497 -1.95118,0.14844 -2.3887,0.18755 -4.02868,0.28125 -4.9082,0.28125 -3.12775,0 -5.48913,-0.10457 -7.07812,-0.31055 h -0.004 -0.004 c -0.11913,-0.01 -0.17501,-0.0156 -0.21679,-0.0156 -0.0906,0 -0.17155,0.055 -0.22266,0.12109 -0.0511,0.0661 -0.0867,0.14682 -0.11914,0.24805 -0.0648,0.20244 -0.11146,0.48604 -0.14648,0.86133 v 0.002 c -0.0394,0.46251 -0.074,0.92421 -0.10352,1.38672 -0.0172,0.12905 -0.10585,0.55561 -0.26367,1.24609 v 0.002 c -0.0693,0.31695 -0.12122,0.57099 -0.15625,0.76368 -0.035,0.19269 -0.0547,0.31635 -0.0547,0.40429 0,0.0847 0.048,0.17891 0.12109,0.22461 0.0731,0.0457 0.15526,0.0566 0.24805,0.0566 1.14754,0 2.70162,-0.10088 4.59766,-0.28711 0.0749,2.54641 0.11523,4.26821 0.11523,5.01368 0,1.16162 -0.0497,2.90848 -0.14844,5.23828 -0.0988,2.33165 -0.14843,4.0809 -0.14843,5.25 0,0.15212 0.0429,0.29264 0.13672,0.39648 0.0938,0.10384 0.22892,0.16517 0.38671,0.19336 h 0.002 0.002 c 0.5298,0.0815 1.42445,0.12109 2.70117,0.12109 1.1478,0 2.01948,-0.0407 2.62305,-0.12109 0.12488,-0.015 0.22335,-0.0279 0.29687,-0.041 0.0368,-0.007 0.0671,-0.0125 0.0937,-0.0195 0.0235,-0.006 0.0435,-0.0122 0.0723,-0.0293 0.0755,-0.042 0.12987,-0.11261 0.16016,-0.19336 0.0303,-0.0808 0.041,-0.17308 0.041,-0.27735 0,-1.16909 -0.0496,-2.92215 -0.14844,-5.26367 -0.0888,-2.33976 -0.13281,-4.09191 -0.13281,-5.2539 0,-0.95919 0.0317,-2.69547 0.0879,-5.08985 2.4496,0.13911 3.94763,0.21485 4.32813,0.21485 0.12868,0 0.24718,-0.0285 0.33398,-0.10743 0.0577,-0.0525 0.0643,-0.13582 0.082,-0.21289 l 0.041,-0.0156 v -0.0918 c 0,-0.24944 -0.0342,-0.60809 -0.10352,-1.08398 v -0.002 c -0.0587,-0.47993 -0.0879,-0.84223 -0.0879,-1.07812 0,-0.21327 0.01,-0.58273 0.0293,-1.10547 0.0198,-0.47507 0.0293,-0.84532 0.0293,-1.11523 v -0.004 -0.004 c -0.005,-0.0877 -0.0131,-0.15868 -0.0254,-0.21679 -0.0113,-0.0539 -0.0175,-0.10462 -0.084,-0.15625 -0.0605,-0.0539 -0.10974,-0.0583 -0.17187,-0.0664 -0.0665,-0.009 -0.14794,-0.0117 -0.25,-0.0117 z m 0,0.26367 c 0.0954,0 0.1678,0.006 0.21484,0.0117 0.047,0.006 0.0684,0.0313 0.0312,-0.006 l 0.01,0.01 0.01,0.008 c -0.0544,-0.0363 -0.0251,-0.0338 -0.0176,0.002 0.008,0.0357 0.0148,0.0975 0.0195,0.17774 -1.3e-4,0.26301 -0.01,0.62799 -0.0293,1.09765 -0.0198,0.52412 -0.0312,0.89396 -0.0312,1.11524 0,0.25748 0.0302,0.62667 0.0898,1.11328 l 0.002,0.002 c 0.0687,0.47093 0.10157,0.82467 0.10157,1.04883 0,0.0745 -0.0172,0.1032 -0.0391,0.12305 -0.0218,0.0199 -0.0657,0.041 -0.15429,0.041 -0.35788,0 -1.85417,-0.0745 -4.45117,-0.22265 l -0.13672,-0.008 -0.004,0.13672 c -0.0593,2.49903 -0.0879,4.24219 -0.0879,5.23243 0,1.16872 0.0439,2.92224 0.13281,5.26367 0.0987,2.33967 0.14844,4.09228 0.14844,5.2539 0,0.0834 -0.0112,0.14583 -0.0254,0.1836 -0.0142,0.0378 -0.0277,0.0492 -0.041,0.0566 l -0.004,0.002 -0.004,0.004 c 0.0216,-0.0144 0.0114,-0.006 -0.004,-0.002 -0.0153,0.004 -0.0399,0.01 -0.0723,0.0156 -0.0647,0.0116 -0.1592,0.0244 -0.28125,0.0391 h -0.002 c -0.58149,0.0775 -1.44728,0.11719 -2.58985,0.11719 -1.26939,0 -2.16047,-0.0409 -2.6582,-0.11719 -0.11873,-0.0212 -0.19186,-0.0601 -0.23633,-0.10937 -0.0445,-0.0492 -0.0703,-0.11412 -0.0703,-0.21875 0,-1.16163 0.0497,-2.9085 0.14844,-5.23828 0.0988,-2.33166 0.14843,-4.08091 0.14843,-5.25 0,-0.77485 -0.0401,-2.49133 -0.11914,-5.15821 l -0.004,-0.14258 -0.14063,0.0137 c -1.9726,0.19726 -3.54506,0.29687 -4.71289,0.29687 -0.0629,0 -0.0957,-0.0134 -0.10351,-0.0176 0,-0.0404 0.0147,-0.16989 0.0488,-0.35742 0.0341,-0.18753 0.0854,-0.43879 0.1543,-0.75391 0.1582,-0.69215 0.24723,-1.1023 0.26953,-1.26953 v -0.006 -0.004 c 0.0295,-0.46258 0.0641,-0.92609 0.10352,-1.38867 v -0.002 c 0.0341,-0.36411 0.0812,-0.63522 0.13476,-0.80273 0.0269,-0.0839 0.0557,-0.14147 0.0762,-0.16797 0.0205,-0.0265 0.0203,-0.0176 0.0137,-0.0176 -0.002,0 0.0772,0.004 0.18945,0.0137 1.61081,0.20881 3.97969,0.31055 7.11328,0.31055 0.89814,0 2.53648,-0.0935 4.92774,-0.28125 1.28384,-0.0988 1.92176,-0.14844 1.93164,-0.14844 z"
           id="path364858" /></g><g
         id="path76941"><path
           style="color:#000000;-inkscape-font-specification:'Berlin Sans FB Demi Bold';fill:#000000;stroke:none;stroke-width:0.264583;-inkscape-stroke:none"
           d="m 376.56841,623.54912 q 0,3.00723 -2.53318,5.15525 -2.22209,1.89618 -5.40708,2.41467 -0.11851,0.0148 -0.19258,0.0148 -0.34072,0 -1.51102,-2.07395 -1.1703,-2.08876 -1.1703,-2.54799 0,-0.16296 0.22221,-0.2074 2.14802,-0.48886 2.84427,-0.82958 1.54065,-0.77032 1.54065,-2.28134 0,-0.9629 -1.00735,-2.14802 -1.74804,-2.01469 -1.89618,-2.2369 -1.02216,-1.54065 -1.02216,-3.4072 0,-2.71095 2.50355,-4.50343 2.04432,-1.48139 5.02192,-1.92581 0.16295,-0.0148 0.25184,-0.0148 0.2222,0 0.35553,0.35553 0.38516,1.08142 1.79248,3.91087 0.0444,0.0889 0.0444,0.14814 0,0.25184 -0.26665,0.25184 -0.11851,0 -0.39997,-0.0444 -0.28147,-0.0444 -0.4296,-0.0444 -1.06661,0 -1.86656,0.48886 -0.9629,0.56293 -0.9629,1.57027 0,0.90365 1.0666,2.22209 1.88137,2.37023 1.97025,2.48874 1.05179,1.62953 1.05179,3.24424 z"
           id="path364862" /><path
           style="color:#000000;-inkscape-font-specification:'Berlin Sans FB Demi Bold';fill:#ffd4b9;stroke:none;-inkscape-stroke:none"
           d="m 374.21289,608.82422 c -0.0666,0 -0.15288,0.006 -0.26367,0.0156 h -0.004 l -0.004,0.002 c -2.00192,0.29879 -3.69758,0.9474 -5.08008,1.94922 -1.6947,1.21336 -2.5586,2.7633 -2.5586,4.61132 0,1.26852 0.34988,2.43091 1.04493,3.47852 v 0.002 c 0.0648,0.0972 0.24001,0.30812 0.55664,0.68164 0.31662,0.37352 0.76674,0.89659 1.34961,1.56836 0.65907,0.77588 0.97461,1.46521 0.97461,2.06055 0,0.96238 -0.47065,1.66599 -1.4668,2.16406 v -0.002 c -0.43836,0.21452 -1.38591,0.49519 -2.81445,0.82031 -0.0875,0.018 -0.16728,0.0483 -0.22852,0.10547 -0.0623,0.0581 -0.0977,0.14608 -0.0977,0.23047 0,0.20926 0.10713,0.49173 0.30469,0.92187 0.19757,0.43015 0.4917,0.99335 0.88281,1.69141 0.39145,0.69371 0.71525,1.21505 0.97266,1.56836 0.1287,0.17665 0.2405,0.31043 0.3418,0.40625 0.10129,0.0958 0.18861,0.16601 0.3125,0.16601 0.0582,0 0.12661,-0.005 0.20898,-0.0156 h 0.002 0.002 c 2.14375,-0.34899 3.97205,-1.1648 5.47265,-2.44531 1.69439,-1.43677 2.54873,-3.18202 2.56641,-5.19727 1.8e-4,-0.021 0.0137,-0.0376 0.0137,-0.0586 0,-1.1052 -0.36223,-2.21333 -1.07422,-3.31641 l -0.002,-0.004 -0.002,-0.002 c -0.037,-0.0494 -0.21062,-0.27067 -0.53907,-0.68554 -0.32844,-0.41488 -0.80645,-1.01655 -1.43359,-1.80665 l -0.002,-0.002 c -0.70177,-0.86747 -1.03711,-1.58829 -1.03711,-2.13867 0,-0.62941 0.28618,-1.09714 0.89844,-1.45508 v -0.002 h 0.002 c 0.51098,-0.31227 1.10601,-0.46875 1.79687,-0.46875 0.0855,0 0.22604,0.0139 0.41016,0.043 0.19046,0.03 0.32439,0.0449 0.41992,0.0449 0.10971,0 0.21457,-0.0274 0.29102,-0.0996 0.0765,-0.0722 0.10742,-0.17786 0.10742,-0.28516 0,-0.0725 -0.0238,-0.13725 -0.0586,-0.20703 -0.93737,-1.88459 -1.53324,-3.1872 -1.78516,-3.89453 v -0.002 -0.002 c -0.0487,-0.12982 -0.10876,-0.23375 -0.1875,-0.3125 -0.0787,-0.0787 -0.18362,-0.1289 -0.29297,-0.1289 z m 0,0.26562 c 0.0388,0 0.0677,0.011 0.10742,0.0508 0.0398,0.0398 0.0848,0.11156 0.125,0.21875 0.26187,0.73481 0.85838,2.03696 1.79688,3.92383 0.0244,0.0488 0.0312,0.0815 0.0312,0.0879 0,0.0606 -0.013,0.082 -0.0254,0.0937 -0.0124,0.0118 -0.0413,0.0274 -0.10938,0.0274 -0.0625,0 -0.19409,-0.0138 -0.3789,-0.043 -0.19118,-0.0302 -0.33921,-0.0469 -0.45118,-0.0469 -0.73128,0 -1.37992,0.16827 -1.93554,0.50782 -0.67074,0.39262 -1.02539,0.97036 -1.02539,1.68359 0,0.65448 0.37534,1.41619 1.0957,2.30664 0.62649,0.78928 1.10355,1.39026 1.43164,1.80469 0.32668,0.41265 0.5095,0.64429 0.5332,0.67578 0.6886,1.0682 1.02735,2.12158 1.02735,3.16797 0,1.96767 -0.82077,3.64237 -2.48633,5.05469 -1.46218,1.24772 -3.2389,2.04243 -5.3418,2.38476 -0.0733,0.009 -0.1322,0.0137 -0.17187,0.0137 0.0103,0 -0.0494,-0.0167 -0.13086,-0.0937 -0.0814,-0.077 -0.18742,-0.20209 -0.31055,-0.37109 -0.24604,-0.3377 -0.56681,-0.85304 -0.95508,-1.54102 v -0.002 c -0.38855,-0.69356 -0.67873,-1.25112 -0.87109,-1.66992 -0.19253,-0.41919 -0.28125,-0.71561 -0.28125,-0.8125 0,-0.0243 0.002,-0.0261 0.0137,-0.0371 0.0118,-0.011 0.0427,-0.0292 0.10156,-0.041 h 0.002 0.002 c 1.43548,-0.32669 2.38307,-0.60006 2.87305,-0.83984 h 0.002 c 1.05804,-0.52902 1.61328,-1.34808 1.61328,-2.40039 0,-0.68807 -0.35605,-1.43083 -1.03906,-2.23438 h -0.002 c -0.58249,-0.67135 -1.03027,-1.19429 -1.3457,-1.5664 -0.31487,-0.37145 -0.50462,-0.60476 -0.53906,-0.65625 v -0.002 c -0.66716,-1.00618 -1,-2.11242 -1,-3.33203 0,-1.76657 0.8039,-3.21987 2.44726,-4.39648 h 0.002 c 1.34326,-0.97337 2.99468,-1.60858 4.96289,-1.90234 0.10145,-0.009 0.18219,-0.0137 0.23242,-0.0137 z"
           id="path364864" /></g></g></g></svg>
