<?xml version="1.0" encoding="UTF-8" standalone="no"?>
<!-- Created with Inkscape (http://www.inkscape.org/) -->

<svg
   width="137.70132mm"
   height="25.770218mm"
   viewBox="0 0 137.70132 25.770218"
   version="1.1"
   id="svg5"
   xml:space="preserve"
   xmlns="http://www.w3.org/2000/svg"
   xmlns:svg="http://www.w3.org/2000/svg"><defs
     id="defs2" /><g
     id="layer1"
     transform="translate(-386.3209,-236.58177)"><g
       aria-label="PROJECTS"
       id="text4196"
       style="font-size:31.0444px;font-family:'Berlin Sans FB Demi';-inkscape-font-specification:'Berlin Sans FB Demi';text-align:center;text-anchor:middle;stroke:#00ffff;stroke-width:0.198"><path
         d="m 404.68725,245.42717 q 0,3.66833 -1.92511,5.94209 -2.06154,2.41018 -5.6844,2.41018 -0.60634,0 -1.83417,-0.0606 -1.21267,-0.0758 -1.81901,-0.0758 -0.65181,0 -0.65181,0.56086 0,0.69729 0.13643,2.0767 0.13642,1.37941 0.13642,2.06154 0,0.34864 -0.31832,0.34864 -0.92466,0 -2.77399,-0.0606 -1.84932,-0.0455 -2.77399,-0.0455 -0.43959,0 -0.43959,-0.4396 0,-1.68258 0.0455,-5.04774 0.0606,-3.38033 0.0606,-5.06291 0,-4.75974 -0.40928,-10.00454 l -0.0152,-0.21222 q -0.0303,-0.28801 0.45476,-0.34864 1.18235,-0.15159 5.21449,-0.15159 2.37986,0 4.56267,0.0606 3.59254,0.10611 5.79051,2.2586 2.24344,2.21312 2.24344,5.79051 z m -6.0482,0.24253 q 0,-3.53191 -3.44095,-3.53191 -2.42535,0 -2.54661,0.27286 -0.10611,0.19705 -0.10611,3.50158 0,0.46992 0.0303,1.39458 0.0455,0.9095 0.0455,1.37941 0,0.30317 2.72851,0.30317 3.28937,0 3.28937,-3.31969 z"
         id="path37466" /><path
         d="m 424.83277,258.43307 q 0,0.10611 -0.30317,0.15159 -0.57602,0.091 -2.89526,0.091 -1.98575,0 -2.69819,-0.091 -0.33349,-0.0455 -0.37896,-0.0758 -0.0909,-0.0455 -0.21222,-0.30316 -0.22737,-0.59118 -0.66697,-1.75838 -0.59118,-1.51584 -1.84932,-4.47173 -0.27285,-0.59117 -1.25815,-0.65181 0.45475,0.0303 -1.56131,0.0303 -0.22738,0 -0.22738,0.77308 0,1.03077 0.1819,3.07715 0.19706,2.04639 0.19706,3.07716 0,0.25769 -0.13643,0.30317 -0.21221,0.0152 -0.42443,0.0303 -0.89435,0.0606 -2.78915,0.0606 -2.16765,0 -2.60724,-0.091 -0.43959,-0.0909 -0.43959,-0.46991 0,-1.66743 0.15158,-5.03259 0.16674,-3.36517 0.16674,-5.04775 0,-6.412 -0.28801,-10.00454 l -0.0152,-0.21222 q -0.0152,-0.25769 0.46991,-0.34864 0.50023,-0.0909 4.63847,-0.1819 2.80431,-0.0606 4.47173,-0.0606 3.45612,0 5.63893,1.56132 2.47081,1.75837 2.47081,5.07806 0,2.21313 -0.63665,3.53191 -0.63665,1.31878 -2.34955,2.56177 -0.34864,0.24253 -0.34864,0.45475 0,-0.0152 1.84932,3.80476 1.84933,3.81991 1.84933,4.21403 z m -6.36653,-13.59708 q 0,-1.84933 -1.21267,-2.56177 -0.93982,-0.5457 -2.94073,-0.5457 -1.44005,0 -1.531,0.43959 -0.0909,0.51539 -0.0909,2.97105 0,0.34864 0.0152,1.03077 0.0152,0.68213 0.0152,1.01561 0,0.0758 0.48506,0.15158 0.92467,0.13643 1.94028,0.13643 3.31969,0 3.31969,-2.63756 z"
         id="path37468" /><path
         d="m 447.60068,247.97378 q 0,4.72942 -3.01652,7.92784 -3.07715,3.2439 -7.79142,3.2439 -4.68394,0 -7.77625,-3.27422 -3.03168,-3.19842 -3.03168,-7.89752 0,-4.71426 3.03168,-7.92785 3.09231,-3.28937 7.77625,-3.28937 4.65363,0 7.7611,3.28937 3.04684,3.2439 3.04684,7.92785 z m -5.74503,-0.0303 q 0,-2.27376 -1.37942,-3.86539 -1.44004,-1.66742 -3.68349,-1.66742 -2.13733,0 -3.62285,1.72805 -1.44005,1.66743 -1.44005,3.83508 0,2.31923 1.3491,3.86539 1.42489,1.62195 3.7138,1.62195 2.13734,0 3.63802,-1.7129 1.42489,-1.63711 1.42489,-3.80476 z"
         id="path37470" /><path
         d="m 457.2869,250.35365 q 0,3.7896 -0.6215,5.8663 -1.12172,3.68349 -3.6077,5.77535 -0.28801,0.25769 -0.46991,0.25769 -0.16674,0 -0.33348,-0.19706 -0.53055,-0.6215 -1.65227,-1.86448 -0.65181,-0.54571 -1.92511,-1.69774 -0.16675,-0.18191 -0.16675,-0.30317 0,-0.13643 0.16675,-0.28801 1.12172,-0.9853 1.42489,-1.3491 0.59117,-0.71244 0.9095,-1.78869 0.42443,-1.47037 0.42443,-4.83553 0,-7.79142 -0.5457,-12.08124 -0.0303,-0.15159 -0.0303,-0.22738 0,-0.27285 0.48506,-0.27285 0.48507,0 1.42489,0.0455 0.95498,0.0455 1.44005,0.0455 0.45475,0 1.3491,-0.0455 0.89434,-0.0455 1.3491,-0.0455 0.43959,0 0.43959,0.39412 0,2.09186 -0.0303,6.30589 -0.0303,4.19888 -0.0303,6.3059 z"
         id="path37472" /><path
         d="m 475.84078,253.87039 q 0,0.65182 -0.2577,2.39503 -0.27285,1.8948 -0.48506,2.2586 -0.1819,0.28801 -0.50023,0.28801 -0.13643,0 -0.45475,-0.0455 -1.10657,-0.15159 -6.45748,-0.15159 -1.1672,0 -3.47127,-0.0152 -2.30408,-0.0152 -3.45612,-0.0152 -0.50023,0 -0.50023,-0.4396 0,-1.69774 0.18191,-5.09322 0.19705,-3.41064 0.19705,-5.10838 0,-1.72806 -0.1819,-6.44232 -0.0455,-1.21267 -0.16674,-3.62286 l -0.0152,-0.21221 q -0.0303,-0.34865 0.37896,-0.34865 1.12172,0 3.36517,0.0606 2.2586,0.0606 3.38032,0.0606 1.10656,0 3.33485,-0.0606 2.22828,-0.0606 3.33485,-0.0606 0.78823,0 0.9095,0.59118 0.0758,0.34864 0.22737,2.12218 0.16675,1.75837 0.16675,2.13733 0,0.31833 -0.30317,0.31833 -0.091,0 -0.31833,-0.0152 -4.03213,-0.33349 -7.24571,-0.33349 -0.8034,0 -0.9853,0.37896 -0.0758,0.1819 -0.0758,1.1672 0,1.03077 0.30317,1.36426 0.25769,0.28801 0.98529,0.28801 0.15159,0 0.59118,-0.0152 0.4396,-0.0303 0.72761,-0.0303 1.90995,0 3.86539,-0.10611 0.16674,-0.0152 0.83371,-0.0758 0.51538,-0.0606 0.81855,-0.0606 0.3638,0 0.3638,0.34864 0,-0.31833 -0.27285,2.31923 -0.12126,1.21268 -0.12126,2.42535 0,0.30317 -0.4396,0.30317 0,0 -1.36425,-0.15159 -0.86403,-0.091 -3.94119,-0.091 h -1.60679 q -0.62149,0 -0.7276,0.30317 -0.0152,0.0758 -0.0152,0.93982 0,1.15204 0.15158,1.48552 0.2577,0.57602 1.94028,0.68213 -0.0303,0 2.21313,0 0.80339,0 2.37986,-0.13642 1.59164,-0.15159 2.37987,-0.15159 0.33349,0 0.33349,0.5457 z"
         id="path37474" /><path
         d="m 495.56185,255.15886 q 0,0.24253 -0.31833,0.63665 -2.78914,3.31969 -7.41245,3.31969 -4.72942,0 -7.67015,-3.22874 -2.86494,-3.12263 -2.86494,-7.88237 0,-4.60815 2.8043,-7.82173 2.92557,-3.36516 7.44278,-3.36516 4.91132,0 7.70046,3.01652 0.30317,0.33348 0.30317,0.59117 0,0.28801 -1.06109,2.13734 -1.04593,1.84932 -1.31878,2.0767 -0.12127,0.12127 -0.30317,0.12127 -0.0758,0 -0.75792,-0.60634 -0.81855,-0.7276 -1.60679,-1.13688 -1.19751,-0.60633 -2.48597,-0.60633 -2.22829,0 -3.56223,1.66742 -1.22783,1.54616 -1.22783,3.81992 0,2.30407 1.22783,3.86539 1.33394,1.69774 3.56223,1.69774 1.31878,0 2.50113,-0.57602 0.77308,-0.37896 1.57648,-1.06109 0.66696,-0.57602 0.74276,-0.57602 0.15158,0 0.30316,0.16674 0.24254,0.27285 1.31879,1.8948 1.10656,1.68259 1.10656,1.84933 z"
         id="path37476" /><path
         d="m 511.96324,241.95589 q 0,0.30317 -0.33349,0.30317 -0.57602,0 -4.56268,-0.22737 -0.091,3.83507 -0.091,5.35091 0,1.78869 0.13643,5.38123 0.15158,3.59254 0.15158,5.38123 0,0.28801 -0.13642,0.3638 -0.0455,0.0303 -0.42444,0.0758 -0.9095,0.12126 -2.66788,0.12126 -1.95543,0 -2.74367,-0.12126 -0.42443,-0.0758 -0.42443,-0.46991 0,-1.7887 0.15158,-5.36608 0.15159,-3.57738 0.15159,-5.36607 0,-1.18236 -0.12127,-5.27512 -3.03168,0.30317 -4.83553,0.30317 -0.24253,0 -0.24253,-0.15159 0,-0.19706 0.21221,-1.1672 0.24254,-1.06108 0.27286,-1.28846 0.0455,-0.71244 0.1061,-1.42489 0.10611,-1.13688 0.36381,-1.13688 0.0303,0 0.21221,0.0152 2.45566,0.31833 7.26088,0.31833 1.36425,0 5.03258,-0.28801 1.9706,-0.15159 1.98575,-0.15159 0.30317,0 0.34865,0.0455 0.0455,0.0303 0.0606,0.28801 0,0.40927 -0.0303,1.13688 -0.0303,0.80339 -0.0303,1.13688 0,0.37896 0.0909,1.12172 0.10611,0.7276 0.10611,1.0914 z"
         id="path37478" /><path
         d="m 523.92321,251.61179 q 0,3.07716 -2.59208,5.27513 -2.27376,1.94027 -5.53282,2.47081 -0.12126,0.0152 -0.19706,0.0152 -0.34864,0 -1.54615,-2.12217 -1.19752,-2.13734 -1.19752,-2.60725 0,-0.16674 0.22738,-0.21222 2.19797,-0.50022 2.91041,-0.84887 1.57648,-0.78823 1.57648,-2.33439 0,-0.98529 -1.03078,-2.19797 -1.78869,-2.06154 -1.94027,-2.28891 -1.04593,-1.57648 -1.04593,-3.48644 0,-2.77398 2.56177,-4.60815 2.09186,-1.51584 5.1387,-1.97059 0.16674,-0.0152 0.25769,-0.0152 0.22738,0 0.3638,0.3638 0.39412,1.10657 1.83417,4.00182 0.0455,0.0909 0.0455,0.15158 0,0.2577 -0.27285,0.2577 -0.12127,0 -0.40928,-0.0455 -0.28801,-0.0455 -0.43959,-0.0455 -1.0914,0 -1.90996,0.50022 -0.98529,0.57602 -0.98529,1.60679 0,0.92467 1.0914,2.27376 1.92512,2.42535 2.01607,2.54661 1.07624,1.66743 1.07624,3.31969 z"
         id="path37480" /></g></g></svg>
