<?xml version="1.0" encoding="UTF-8" standalone="no"?>
<!-- Created with Inkscape (http://www.inkscape.org/) -->

<svg
   width="137.76785mm"
   height="25.836769mm"
   viewBox="0 0 137.76785 25.836769"
   version="1.1"
   id="svg5"
   xml:space="preserve"
   xmlns="http://www.w3.org/2000/svg"
   xmlns:svg="http://www.w3.org/2000/svg"><defs
     id="defs2" /><g
     id="layer1"
     transform="translate(-113.79219,-86.220112)"><g
       aria-label="PROJECTS"
       id="text362478"
       style="font-weight:bold;font-size:31.0444px;font-family:'Berlin Sans FB Demi';-inkscape-font-specification:'Berlin Sans FB Demi Bold';text-align:center;text-anchor:middle;stroke:#ffd4b9;stroke-width:0.264583;stroke-opacity:1"><path
         d="m 132.19176,95.098759 q 0,3.668332 -1.92512,5.942091 -2.06154,2.41019 -5.6844,2.41019 -0.60634,0 -1.83417,-0.0606 -1.21267,-0.0758 -1.819,-0.0758 -0.65181,0 -0.65181,0.56086 0,0.69729 0.13642,2.0767 0.13643,1.37942 0.13643,2.06154 0,0.34865 -0.31833,0.34865 -0.92466,0 -2.77399,-0.0606 -1.84932,-0.0455 -2.77398,-0.0455 -0.4396,0 -0.4396,-0.4396 0,-1.68258 0.0455,-5.04774 0.0606,-3.380324 0.0606,-5.062907 0,-4.759737 -0.40928,-10.004542 l -0.0152,-0.212218 q -0.0303,-0.288009 0.45475,-0.348643 1.18235,-0.151584 5.21449,-0.151584 2.37987,0 4.56267,0.06063 3.59255,0.106108 5.79051,2.258601 2.24345,2.213126 2.24345,5.790508 z m -6.0482,0.242534 q 0,-3.531906 -3.44096,-3.531906 -2.42534,0 -2.54661,0.272851 -0.10611,0.197059 -0.10611,3.50159 0,0.46991 0.0303,1.394572 0.0455,0.909504 0.0455,1.379415 0,0.303167 2.72851,0.303167 3.28938,0 3.28938,-3.319689 z"
         id="path406971"
         style="stroke:#ffd4b9;stroke-opacity:1" /><path
         d="m 152.33727,108.10466 q 0,0.10611 -0.30317,0.15159 -0.57602,0.091 -2.89525,0.091 -1.98575,0 -2.6982,-0.091 -0.33348,-0.0455 -0.37896,-0.0758 -0.0909,-0.0455 -0.21222,-0.30317 -0.22737,-0.59118 -0.66697,-1.75838 -0.59117,-1.51584 -1.84932,-4.47172 -0.27285,-0.59118 -1.25815,-0.65181 0.45475,0.0303 -1.56131,0.0303 -0.22738,0 -0.22738,0.77308 0,1.03077 0.1819,3.07716 0.19706,2.04638 0.19706,3.07715 0,0.25769 -0.13642,0.30317 -0.21222,0.0152 -0.42444,0.0303 -0.89435,0.0606 -2.78915,0.0606 -2.16765,0 -2.60724,-0.091 -0.43959,-0.0909 -0.43959,-0.46991 0,-1.66743 0.15158,-5.03259 0.16674,-3.365164 0.16674,-5.047747 0,-6.412002 -0.28801,-10.004542 l -0.0151,-0.212218 q -0.0152,-0.257693 0.46991,-0.348643 0.50022,-0.09095 4.63847,-0.181901 2.8043,-0.06063 4.47172,-0.06063 3.45612,0 5.63893,1.561315 2.47082,1.758374 2.47082,5.078063 0,2.213126 -0.63666,3.531907 -0.63665,1.31878 -2.34955,2.561769 -0.34864,0.242534 -0.34864,0.454747 0,-0.0152 1.84932,3.80476 1.84933,3.81992 1.84933,4.21403 z m -6.36653,-13.597079 q 0,-1.849324 -1.21267,-2.561769 -0.93982,-0.545702 -2.94073,-0.545702 -1.44005,0 -1.531,0.439593 -0.0909,0.515386 -0.0909,2.971046 0,0.348644 0.0152,1.030771 0.0152,0.682128 0.0152,1.015613 0,0.07579 0.48507,0.151584 0.92466,0.136426 1.94027,0.136426 3.31969,0 3.31969,-2.637562 z"
         id="path406973"
         style="stroke:#ffd4b9;stroke-opacity:1" /><path
         d="m 175.10518,97.64537 q 0,4.72942 -3.01652,7.92784 -3.07715,3.2439 -7.79141,3.2439 -4.68395,0 -7.77626,-3.27421 -3.03168,-3.19843 -3.03168,-7.89753 0,-4.714262 3.03168,-7.927842 3.09231,-3.289373 7.77626,-3.289373 4.65362,0 7.7611,3.289373 3.04683,3.243897 3.04683,7.927842 z m -5.74503,-0.03032 q 0,-2.27376 -1.37941,-3.865391 -1.44005,-1.667424 -3.68349,-1.667424 -2.13734,0 -3.62286,1.728057 -1.44005,1.667424 -1.44005,3.835075 0,2.319235 1.3491,3.865393 1.42489,1.62195 3.71381,1.62195 2.13733,0 3.63801,-1.7129 1.42489,-1.637109 1.42489,-3.80476 z"
         id="path406975"
         style="stroke:#ffd4b9;stroke-opacity:1" /><path
         d="m 184.7914,100.02524 q 0,3.7896 -0.6215,5.8663 -1.12172,3.68349 -3.6077,5.77535 -0.28801,0.25769 -0.46991,0.25769 -0.16674,0 -0.33348,-0.19706 -0.53054,-0.62149 -1.65227,-1.86448 -0.65181,-0.5457 -1.92511,-1.69774 -0.16675,-0.1819 -0.16675,-0.30317 0,-0.13643 0.16675,-0.28801 1.12172,-0.9853 1.42489,-1.3491 0.59117,-0.71244 0.9095,-1.78869 0.42444,-1.47036 0.42444,-4.835527 0,-7.791416 -0.54571,-12.081243 -0.0303,-0.151584 -0.0303,-0.227376 0,-0.272851 0.48507,-0.272851 0.48506,0 1.42488,0.04547 0.95498,0.04547 1.44005,0.04547 0.45475,0 1.3491,-0.04547 0.89435,-0.04547 1.3491,-0.04547 0.43959,0 0.43959,0.394118 0,2.091859 -0.0303,6.305894 -0.0303,4.198876 -0.0303,6.305895 z"
         id="path406977"
         style="stroke:#ffd4b9;stroke-opacity:1" /><path
         d="m 203.34528,103.54199 q 0,0.65181 -0.25769,2.39502 -0.27285,1.8948 -0.48507,2.2586 -0.1819,0.28801 -0.50023,0.28801 -0.13643,0 -0.45475,-0.0455 -1.10656,-0.15158 -6.45748,-0.15158 -1.1672,0 -3.47127,-0.0152 -2.30408,-0.0152 -3.45612,-0.0152 -0.50022,0 -0.50022,-0.4396 0,-1.69774 0.1819,-5.09322 0.19706,-3.410636 0.19706,-5.108377 0,-1.728057 -0.18191,-6.442319 -0.0455,-1.212672 -0.16674,-3.622857 l -0.0152,-0.212218 q -0.0303,-0.348643 0.37896,-0.348643 1.12173,0 3.36517,0.06063 2.2586,0.06063 3.38032,0.06063 1.10656,0 3.33485,-0.06063 2.22828,-0.06063 3.33485,-0.06063 0.78823,0 0.9095,0.591177 0.0758,0.348644 0.22738,2.122176 0.16674,1.758374 0.16674,2.137334 0,0.318327 -0.30317,0.318327 -0.091,0 -0.31833,-0.01516 -4.03213,-0.333484 -7.24571,-0.333484 -0.8034,0 -0.9853,0.37896 -0.0758,0.1819 -0.0758,1.167196 0,1.030771 0.30317,1.364256 0.25769,0.28801 0.9853,0.28801 0.15158,0 0.59117,-0.01516 0.4396,-0.03032 0.72761,-0.03032 1.90995,0 3.86539,-0.106108 0.16674,-0.01516 0.83371,-0.07579 0.51539,-0.06063 0.81855,-0.06063 0.36381,0 0.36381,0.348643 0,-0.318326 -0.27286,2.319235 -0.12126,1.212672 -0.12126,2.425344 0,0.303168 -0.4396,0.303168 0,0 -1.36425,-0.151584 -0.86403,-0.09095 -3.94119,-0.09095 h -1.60679 q -0.62149,0 -0.7276,0.303164 -0.0152,0.0758 -0.0152,0.93982 0,1.15204 0.15159,1.48553 0.25769,0.57602 1.94027,0.68212 -0.0303,0 2.21313,0 0.80339,0 2.37987,-0.13642 1.59163,-0.15159 2.37986,-0.15159 0.33349,0 0.33349,0.54571 z"
         id="path406979"
         style="stroke:#ffd4b9;stroke-opacity:1" /><path
         d="m 223.06635,104.83045 q 0,0.24253 -0.31833,0.63665 -2.78914,3.31969 -7.41245,3.31969 -4.72942,0 -7.67015,-3.22874 -2.86494,-3.12263 -2.86494,-7.882363 0,-4.608153 2.8043,-7.821734 2.92557,-3.365164 7.44278,-3.365164 4.91132,0 7.70046,3.016521 0.30317,0.333485 0.30317,0.591178 0,0.288009 -1.06109,2.137334 -1.04593,1.849324 -1.31878,2.0767 -0.12126,0.121267 -0.30317,0.121267 -0.0758,0 -0.75792,-0.606335 -0.81855,-0.727604 -1.60679,-1.13688 -1.19751,-0.606336 -2.48597,-0.606336 -2.22829,0 -3.56223,1.667424 -1.22783,1.546156 -1.22783,3.819916 0,2.304076 1.22783,3.865392 1.33394,1.69774 3.56223,1.69774 1.31878,0 2.50113,-0.57602 0.77308,-0.37896 1.57648,-1.06109 0.66697,-0.57602 0.74276,-0.57602 0.15158,0 0.30317,0.16675 0.24253,0.27285 1.31878,1.8948 1.10656,1.68258 1.10656,1.84932 z"
         id="path406981"
         style="stroke:#ffd4b9;stroke-opacity:1" /><path
         d="m 239.46774,91.627486 q 0,0.303168 -0.33349,0.303168 -0.57602,0 -4.56267,-0.227376 -0.091,3.835074 -0.091,5.350914 0,1.788691 0.13643,5.381228 0.15158,3.59254 0.15158,5.38123 0,0.28801 -0.13642,0.36381 -0.0455,0.0303 -0.42444,0.0758 -0.9095,0.12127 -2.66787,0.12127 -1.95544,0 -2.74367,-0.12127 -0.42444,-0.0758 -0.42444,-0.46991 0,-1.78869 0.15158,-5.36607 0.15159,-3.577387 0.15159,-5.366078 0,-1.182355 -0.12127,-5.275122 -3.03168,0.303168 -4.83553,0.303168 -0.24253,0 -0.24253,-0.151584 0,-0.197059 0.21222,-1.167197 0.24253,-1.061088 0.27285,-1.288464 0.0455,-0.712444 0.10611,-1.424889 0.1061,-1.13688 0.3638,-1.13688 0.0303,0 0.21221,0.01516 2.45566,0.318327 7.26088,0.318327 1.36425,0 5.03259,-0.28801 1.97059,-0.151584 1.98575,-0.151584 0.30316,0 0.34864,0.04548 0.0455,0.03032 0.0606,0.28801 0,0.409277 -0.0303,1.13688 -0.0303,0.803395 -0.0303,1.13688 0,0.37896 0.0909,1.121721 0.10611,0.727603 0.10611,1.091405 z"
         id="path406983"
         style="stroke:#ffd4b9;stroke-opacity:1" /><path
         d="m 251.42772,101.28339 q 0,3.07715 -2.59209,5.27512 -2.27376,1.94027 -5.53282,2.47082 -0.12126,0.0152 -0.19705,0.0152 -0.34865,0 -1.54616,-2.12218 -1.19751,-2.13733 -1.19751,-2.60725 0,-0.16674 0.22737,-0.21221 2.19797,-0.50023 2.91041,-0.84887 1.57648,-0.78824 1.57648,-2.3344 0,-0.985292 -1.03077,-2.197964 -1.78869,-2.061542 -1.94028,-2.288918 -1.04593,-1.576473 -1.04593,-3.486432 0,-2.773986 2.56177,-4.608153 2.09186,-1.515839 5.1387,-1.970591 0.16674,-0.01516 0.25769,-0.01516 0.22738,0 0.3638,0.363802 0.39412,1.106563 1.83417,4.001817 0.0455,0.09095 0.0455,0.151584 0,0.257693 -0.27285,0.257693 -0.12126,0 -0.40927,-0.04548 -0.28801,-0.04547 -0.4396,-0.04547 -1.0914,0 -1.90996,0.500227 -0.98529,0.57602 -0.98529,1.606791 0,0.924662 1.0914,2.273759 1.92512,2.425344 2.01607,2.546611 1.07625,1.667424 1.07625,3.319694 z"
         id="path406985"
         style="stroke:#ffd4b9;stroke-opacity:1" /></g></g></svg>
