<?xml version="1.0" encoding="UTF-8" standalone="no"?>
<!-- Created with Inkscape (http://www.inkscape.org/) -->

<svg
   width="87.722839mm"
   height="22.890564mm"
   viewBox="0 0 87.722839 22.890564"
   version="1.1"
   id="svg5"
   xml:space="preserve"
   inkscape:version="1.2.2 (732a01da63, 2022-12-09)"
   sodipodi:docname="VanillaJs.svg"
   xmlns:inkscape="http://www.inkscape.org/namespaces/inkscape"
   xmlns:sodipodi="http://sodipodi.sourceforge.net/DTD/sodipodi-0.dtd"
   xmlns="http://www.w3.org/2000/svg"
   xmlns:svg="http://www.w3.org/2000/svg"><sodipodi:namedview
     id="namedview7"
     pagecolor="#ffffff"
     bordercolor="#000000"
     borderopacity="0.25"
     inkscape:showpageshadow="2"
     inkscape:pageopacity="0.0"
     inkscape:pagecheckerboard="0"
     inkscape:deskcolor="#d1d1d1"
     inkscape:document-units="mm"
     showgrid="false"
     inkscape:zoom="0.36925856"
     inkscape:cx="901.80712"
     inkscape:cy="446.84137"
     inkscape:window-width="2560"
     inkscape:window-height="1009"
     inkscape:window-x="-8"
     inkscape:window-y="-8"
     inkscape:window-maximized="1"
     inkscape:current-layer="layer1" /><defs
     id="defs2" /><g
     inkscape:label="Layer 1"
     inkscape:groupmode="layer"
     id="layer1"
     transform="translate(-419.71113,-304.28408)"><g
       aria-label="SKILLS"
       id="text549"
       style="font-size:31.0444px;font-family:'Arial Rounded MT Bold';-inkscape-font-specification:'Arial Rounded MT Bold, ';text-align:center;text-anchor:middle;fill:#000000;stroke-width:0.705001"
       inkscape:export-filename="..\..\Developing\VanillaPortfolio\assets\images\Parallax\skills.svg"
       inkscape:export-xdpi="75"
       inkscape:export-ydpi="75"
       transform="translate(328.9305,208.80526)"><path
         d="m 101.94548,110.50901 q 0,3.07715 -2.592085,5.27512 -2.273759,1.94028 -5.532815,2.47082 -0.121267,0.0152 -0.197059,0.0152 -0.348643,0 -1.546157,-2.12218 -1.197513,-2.13733 -1.197513,-2.60724 0,-0.16674 0.227376,-0.21222 2.197968,-0.50023 2.910412,-0.84887 1.576474,-0.78824 1.576474,-2.33439 0,-0.9853 -1.030771,-2.19797 -1.788691,-2.06154 -1.940275,-2.28892 -1.04593,-1.57647 -1.04593,-3.48643 0,-2.773986 2.561769,-4.608153 2.091859,-1.515839 5.138697,-1.970591 0.166743,-0.01516 0.257693,-0.01516 0.227376,0 0.363802,0.363802 0.394122,1.106563 1.834162,4.001817 0.0455,0.09095 0.0455,0.151585 0,0.25769 -0.27285,0.25769 -0.12127,0 -0.40928,-0.0455 -0.28801,-0.0455 -0.43959,-0.0455 -1.091407,0 -1.909961,0.50023 -0.985295,0.57602 -0.985295,1.60679 0,0.92466 1.091404,2.27376 1.925112,2.42534 2.016072,2.54661 1.07624,1.66742 1.07624,3.31969 z"
         style="font-family:'Berlin Sans FB Demi';-inkscape-font-specification:'Berlin Sans FB Demi';stroke:#fea6cc;stroke-width:0.198437;stroke-dasharray:none;stroke-opacity:1"
         id="path551" /><path
         d="m 123.12176,116.633 q 0,0.65181 -0.56086,0.84887 -0.45475,0.15159 -2.39502,0.15159 -1.86449,0 -2.72852,-0.15159 -0.40927,-0.0758 -0.5457,-0.15158 -0.12127,-0.091 -0.31832,-0.43959 -1.10657,-2.03123 -2.19797,-4.06246 -1.80385,-3.27421 -2.15249,-3.60769 -1.63711,0.59117 -1.63711,0.84887 0,1.13688 0.091,3.44095 0.0909,2.28892 0.0909,3.44096 0,0.46991 -0.40928,0.53054 -0.78823,0.12127 -2.84978,0.12127 -1.97059,0 -2.60724,-0.12127 -0.43959,-0.091 -0.43959,-0.46991 0,-1.6371 0.15158,-4.94164 0.16674,-3.30453 0.16674,-4.95679 0,-1.75838 -0.15158,-5.27512 -0.15159,-3.531911 -0.15159,-5.290285 0,-0.333485 0.31833,-0.333485 0.46991,0 1.40973,0.04547 0.95498,0.04547 1.42489,0.04547 0.48507,0 1.44005,-0.04547 0.95498,-0.04547 1.42489,-0.04547 0.25769,0 0.25769,0.272851 0,1.121722 -0.12127,3.395481 -0.10611,2.258598 -0.10611,3.380328 0,1.30362 0.71245,1.30362 1.80385,0 2.8043,-0.9853 0.74276,-0.7276 1.50068,-2.65272 0.48507,-1.470363 1.59164,-4.3353 0.16674,-0.37896 0.68212,-0.37896 0.39412,0 1.18236,0.04547 0.80339,0.04547 1.19751,0.04547 0.40928,0 1.21267,-0.03032 0.81856,-0.03032 1.21268,-0.03032 0.3638,0 0.3638,0.348643 0,0.500227 -0.63665,2.440502 -1.87965,5.729875 -4.32015,7.154765 -0.50023,0.28801 -0.50023,0.46991 0,-0.0152 2.78915,4.54752 2.8043,4.56267 2.8043,5.4267 z"
         style="font-family:'Berlin Sans FB Demi';-inkscape-font-specification:'Berlin Sans FB Demi';stroke:#fea6cc;stroke-width:0.198437;stroke-dasharray:none;stroke-opacity:1"
         id="path553" /><path
         d="m 131.01929,106.27982 q 0,1.78869 0.0909,5.38123 0.0909,3.59254 0.0909,5.38123 0,0.30317 -0.13642,0.37896 -0.0303,0.0152 -0.39412,0.0606 -0.9853,0.12127 -2.63756,0.12127 -2.21313,0 -2.81947,-0.12127 -0.43959,-0.091 -0.43959,-0.46991 0,0.24254 0.13643,-2.66788 0.27285,-6.13915 0.27285,-8.06426 0,-1.62195 -0.10611,-4.86585 -0.10611,-3.243897 -0.10611,-4.865845 0,-0.333485 0.34864,-0.333485 0.46991,0 1.40973,0.04547 0.95498,0.04547 1.42489,0.04547 0.46991,0 1.37942,-0.04547 0.92466,-0.04547 1.39457,-0.04547 0.43959,0 0.43959,0.333485 0,1.621948 -0.1819,4.865845 -0.16674,3.2439 -0.16674,4.86585 z"
         style="font-family:'Berlin Sans FB Demi';-inkscape-font-specification:'Berlin Sans FB Demi';stroke:#fea6cc;stroke-width:0.198437;stroke-dasharray:none;stroke-opacity:1"
         id="path555" /><path
         d="m 148.04217,117.73957 q -1.30362,0 -3.39548,-0.0606 -2.72851,-0.0606 -3.39548,-0.0758 l -4.53236,-0.0606 q -0.68213,0.0152 -1.95543,-0.0606 -0.4396,-0.0758 -0.4396,-0.46991 0,-1.65226 0.0455,-4.94164 0.0606,-3.30453 0.0606,-4.95679 0,-1.75838 -0.10611,-5.25997 -0.10611,-3.516744 -0.10611,-5.275118 0,-0.333485 0.45476,-0.333485 0.45475,0 1.34909,0.04547 0.90951,0.04548 1.3491,0.04548 0.50023,0 1.48552,-0.04548 0.9853,-0.06063 1.48553,-0.06063 0.22737,0 0.21221,0.28801 l -0.0152,0.197059 q -0.18191,2.849779 -0.40928,8.564494 l -0.0152,4.00182 q 0,1.94027 0.0152,2.83462 0.0152,0.1819 0.0303,0.3638 0.0152,0.1819 0.22737,0.22738 0.0152,0 0.39412,0 1.36426,0 4.07761,-0.13643 2.72851,-0.15158 4.09277,-0.15158 0.40927,0 0.40927,0.34864 0,2.59209 -0.37896,4.47173 -0.0758,0.39412 -0.31832,0.46991 -0.0758,0.0303 -0.6215,0.0303 z"
         style="font-family:'Berlin Sans FB Demi';-inkscape-font-specification:'Berlin Sans FB Demi';stroke:#fea6cc;stroke-width:0.198437;stroke-dasharray:none;stroke-opacity:1"
         id="path557" /><path
         d="m 165.01957,117.73957 q -1.30362,0 -3.39548,-0.0606 -2.72851,-0.0606 -3.39548,-0.0758 l -4.53236,-0.0606 q -0.68213,0.0152 -1.95543,-0.0606 -0.4396,-0.0758 -0.4396,-0.46991 0,-1.65226 0.0455,-4.94164 0.0606,-3.30453 0.0606,-4.95679 0,-1.75838 -0.10611,-5.25997 -0.10611,-3.516744 -0.10611,-5.275118 0,-0.333485 0.45476,-0.333485 0.45475,0 1.34909,0.04547 0.90951,0.04548 1.3491,0.04548 0.50023,0 1.48552,-0.04548 0.9853,-0.06063 1.48553,-0.06063 0.22737,0 0.21222,0.28801 l -0.0152,0.197059 q -0.1819,2.849779 -0.40928,8.564494 l -0.0152,4.00182 q 0,1.94027 0.0152,2.83462 0.0152,0.1819 0.0303,0.3638 0.0152,0.1819 0.22737,0.22738 0.0152,0 0.39412,0 1.36426,0 4.07761,-0.13643 2.72851,-0.15158 4.09277,-0.15158 0.40927,0 0.40927,0.34864 0,2.59209 -0.37896,4.47173 -0.0758,0.39412 -0.31832,0.46991 -0.0758,0.0303 -0.6215,0.0303 z"
         style="font-family:'Berlin Sans FB Demi';-inkscape-font-specification:'Berlin Sans FB Demi';stroke:#fea6cc;stroke-width:0.198437;stroke-dasharray:none;stroke-opacity:1"
         id="path559" /><path
         d="m 178.40444,110.50901 q 0,3.07715 -2.59208,5.27512 -2.27376,1.94028 -5.53282,2.47082 -0.12127,0.0152 -0.19706,0.0152 -0.34864,0 -1.54615,-2.12218 -1.19752,-2.13733 -1.19752,-2.60724 0,-0.16674 0.22738,-0.21222 2.19797,-0.50023 2.91041,-0.84887 1.57647,-0.78824 1.57647,-2.33439 0,-0.9853 -1.03077,-2.19797 -1.78869,-2.06154 -1.94027,-2.28892 -1.04593,-1.57647 -1.04593,-3.48643 0,-2.773986 2.56177,-4.608153 2.09186,-1.515839 5.13869,-1.970591 0.16675,-0.01516 0.2577,-0.01516 0.22737,0 0.3638,0.363802 0.39412,1.106563 1.83417,4.001817 0.0455,0.09095 0.0455,0.151585 0,0.25769 -0.27285,0.25769 -0.12127,0 -0.40928,-0.0455 -0.28801,-0.0455 -0.43959,-0.0455 -1.09141,0 -1.90996,0.50023 -0.98529,0.57602 -0.98529,1.60679 0,0.92466 1.0914,2.27376 1.92512,2.42534 2.01607,2.54661 1.07624,1.66742 1.07624,3.31969 z"
         style="font-family:'Berlin Sans FB Demi';-inkscape-font-specification:'Berlin Sans FB Demi';stroke:#fea6cc;stroke-width:0.198;stroke-dasharray:none;stroke-opacity:1"
         id="path561" /></g></g></svg>
