<?xml version="1.0" encoding="UTF-8" standalone="no"?>
<!-- Created with Inkscape (http://www.inkscape.org/) -->

<svg
   width="79.970032mm"
   height="13.321503mm"
   viewBox="0 0 79.970032 13.321503"
   version="1.1"
   id="svg5"
   xml:space="preserve"
   inkscape:version="1.2.2 (732a01da63, 2022-12-09)"
   sodipodi:docname="VanillaJs.svg"
   xmlns:inkscape="http://www.inkscape.org/namespaces/inkscape"
   xmlns:sodipodi="http://sodipodi.sourceforge.net/DTD/sodipodi-0.dtd"
   xmlns="http://www.w3.org/2000/svg"
   xmlns:svg="http://www.w3.org/2000/svg"><sodipodi:namedview
     id="namedview7"
     pagecolor="#ffffff"
     bordercolor="#000000"
     borderopacity="0.25"
     inkscape:showpageshadow="2"
     inkscape:pageopacity="0.0"
     inkscape:pagecheckerboard="0"
     inkscape:deskcolor="#d1d1d1"
     inkscape:document-units="mm"
     showgrid="false"
     inkscape:zoom="0.36925856"
     inkscape:cx="1624.8777"
     inkscape:cy="777.23317"
     inkscape:window-width="2560"
     inkscape:window-height="1009"
     inkscape:window-x="-8"
     inkscape:window-y="-8"
     inkscape:window-maximized="1"
     inkscape:current-layer="layer1" /><defs
     id="defs2" /><g
     inkscape:label="Layer 1"
     inkscape:groupmode="layer"
     id="layer1"
     transform="translate(-687.657,-219.17706)"><g
       aria-label="AuthCore"
       id="text147327"
       style="font-weight:bold;font-size:17.6389px;font-family:ARIAL;-inkscape-font-specification:'ARIAL Bold';text-align:center;text-anchor:middle;fill:#f9f9f9;stroke:#140655;stroke-width:0.264583"><path
         d="m 700.51986,232.15096 h -2.77331 l -1.10243,-2.86805 h -5.04706 l -1.04215,2.86805 h -2.7044 l 4.91788,-12.62629 h 2.69579 z m -4.69395,-4.9954 -1.73977,-4.68533 -1.70532,4.68533 z"
         id="path290981" /><path
         d="m 707.87514,232.15096 v -1.36943 q -0.49954,0.73208 -1.31775,1.15411 -0.8096,0.42202 -1.71393,0.42202 -0.92157,0 -1.65365,-0.4048 -0.73208,-0.4048 -1.05937,-1.13688 -0.32728,-0.73208 -0.32728,-2.024 v -5.78776 h 2.42018 v 4.20302 q 0,1.92925 0.12919,2.3685 0.1378,0.43064 0.49093,0.68902 0.35312,0.24977 0.89572,0.24977 0.62012,0 1.11105,-0.33589 0.49092,-0.34451 0.67179,-0.84405 0.18087,-0.50815 0.18087,-2.47186 v -3.85851 h 2.42018 v 9.14674 z"
         id="path290983" /><path
         d="m 716.82378,223.00422 v 1.92926 h -1.65364 v 3.68625 q 0,1.11966 0.0431,1.30914 0.0517,0.18086 0.21532,0.30144 0.17225,0.12058 0.41341,0.12058 0.3359,0 0.97324,-0.23254 l 0.20671,1.87758 q -0.84405,0.36173 -1.91203,0.36173 -0.65457,0 -1.17995,-0.21532 -0.52538,-0.22393 -0.77515,-0.56844 -0.24115,-0.35312 -0.33589,-0.9474 -0.0775,-0.42203 -0.0775,-1.70532 v -3.9877 h -1.11104 v -1.92926 h 1.11104 v -1.81729 l 2.4288,-1.41249 v 3.22978 z"
         id="path290985" /><path
         d="m 720.91484,219.52467 v 4.64227 q 1.17133,-1.36943 2.79914,-1.36943 0.83544,0 1.50723,0.31006 0.67179,0.31006 1.00769,0.79238 0.34451,0.48231 0.46509,1.06798 0.12919,0.58566 0.12919,1.81729 v 5.36574 H 724.403 v -4.83175 q 0,-1.43833 -0.1378,-1.82591 -0.13781,-0.38757 -0.49093,-0.6115 -0.34451,-0.23255 -0.86989,-0.23255 -0.60289,0 -1.07659,0.29284 -0.4737,0.29283 -0.69763,0.88711 -0.21532,0.58567 -0.21532,1.73978 v 4.58198 h -2.42018 v -12.62629 z"
         id="path290987" /><path
         d="m 737.37379,227.50869 2.47186,0.78376 q -0.56844,2.06705 -1.8948,3.07475 -1.31775,0.99907 -3.35036,0.99907 -2.51492,0 -4.13412,-1.71393 -1.61919,-1.72255 -1.61919,-4.70256 0,-3.15227 1.6278,-4.89204 1.62781,-1.74839 4.28054,-1.74839 2.31683,0 3.76377,1.36943 0.86127,0.8096 1.29191,2.32544 l -2.52353,0.60289 q -0.22394,-0.98185 -0.93879,-1.55029 -0.70625,-0.56844 -1.72255,-0.56844 -1.40388,0 -2.28238,1.00769 -0.86989,1.00769 -0.86989,3.26423 0,2.39434 0.86128,3.41065 0.86127,1.0163 2.23931,1.0163 1.0163,0 1.74839,-0.64596 0.73208,-0.64595 1.05075,-2.0326 z"
         id="path290989" /><path
         d="m 741.45623,227.4484 q 0,-1.20579 0.59428,-2.33406 0.59428,-1.12827 1.67949,-1.72255 1.09381,-0.59428 2.4374,-0.59428 2.07567,0 3.40204,1.35221 1.32636,1.34358 1.32636,3.40203 0,2.07567 -1.34359,3.4451 -1.33497,1.36081 -3.36758,1.36081 -1.25746,0 -2.40296,-0.56844 -1.13688,-0.56844 -1.73116,-1.66226 -0.59428,-1.10243 -0.59428,-2.67856 z m 2.48047,0.12919 q 0,1.36081 0.64596,2.08428 0.64595,0.72347 1.59336,0.72347 0.9474,0 1.58474,-0.72347 0.64596,-0.72347 0.64596,-2.10151 0,-1.34359 -0.64596,-2.06706 -0.63734,-0.72347 -1.58474,-0.72347 -0.94741,0 -1.59336,0.72347 -0.64596,0.72347 -0.64596,2.08429 z"
         id="path290991" /><path
         d="m 755.10743,232.15096 h -2.42018 v -9.14674 h 2.24793 v 1.30052 q 0.57705,-0.92156 1.03353,-1.21439 0.46508,-0.29284 1.05075,-0.29284 0.82682,0 1.59336,0.45648 l -0.74931,2.11012 q -0.6115,-0.39618 -1.13688,-0.39618 -0.50815,0 -0.86128,0.28422 -0.35312,0.2756 -0.55982,1.00769 -0.1981,0.73208 -0.1981,3.06614 z"
         id="path290993" /><path
         d="m 764.9518,229.23985 2.41157,0.4048 q -0.46509,1.32636 -1.47278,2.02399 -0.99908,0.68902 -2.50631,0.68902 -2.38573,0 -3.53123,-1.55891 -0.90433,-1.24884 -0.90433,-3.15226 0,-2.27376 1.18855,-3.55706 1.18856,-1.29192 3.00585,-1.29192 2.04122,0 3.22117,1.35221 1.17994,1.34358 1.12827,4.1255 h -6.06337 q 0.0258,1.07659 0.58566,1.67949 0.55983,0.59427 1.39527,0.59427 0.56844,0 0.95601,-0.31005 0.38758,-0.31006 0.58567,-0.99908 z m 0.1378,-2.44602 q -0.0258,-1.05076 -0.5426,-1.59336 -0.51677,-0.55122 -1.25746,-0.55122 -0.79237,0 -1.30914,0.57706 -0.51676,0.57705 -0.50815,1.56752 z"
         id="path290995" /></g></g></svg>
