<?xml version="1.0" encoding="UTF-8" standalone="no"?>
<!-- Created with Inkscape (http://www.inkscape.org/) -->

<svg
   width="108.22778mm"
   height="16.760437mm"
   viewBox="0 0 108.22778 16.760437"
   version="1.1"
   id="svg5"
   xml:space="preserve"
   inkscape:version="1.2.2 (732a01da63, 2022-12-09)"
   sodipodi:docname="VanillaJs.svg"
   xmlns:inkscape="http://www.inkscape.org/namespaces/inkscape"
   xmlns:sodipodi="http://sodipodi.sourceforge.net/DTD/sodipodi-0.dtd"
   xmlns="http://www.w3.org/2000/svg"
   xmlns:svg="http://www.w3.org/2000/svg"><sodipodi:namedview
     id="namedview7"
     pagecolor="#ffffff"
     bordercolor="#000000"
     borderopacity="0.25"
     inkscape:showpageshadow="2"
     inkscape:pageopacity="0.0"
     inkscape:pagecheckerboard="0"
     inkscape:deskcolor="#d1d1d1"
     inkscape:document-units="mm"
     showgrid="false"
     inkscape:zoom="0.36925856"
     inkscape:cx="1624.8777"
     inkscape:cy="777.23317"
     inkscape:window-width="2560"
     inkscape:window-height="1009"
     inkscape:window-x="-8"
     inkscape:window-y="-8"
     inkscape:window-maximized="1"
     inkscape:current-layer="layer1" /><defs
     id="defs2" /><g
     inkscape:label="Layer 1"
     inkscape:groupmode="layer"
     id="layer1"
     transform="translate(-684.37679,-264.95113)"><g
       aria-label="Book Club App"
       id="text82758"
       style="font-weight:bold;font-size:17.6389px;font-family:'Script MT Bold';-inkscape-font-specification:'Script MT Bold,  Bold';text-align:center;text-anchor:middle;fill:#82b3d8;fill-opacity:1;stroke:none;stroke-width:0.132292"
       inkscape:export-filename="..\..\Developing\VanillaPortfolio\assets\images\bookclub.svg"
       inkscape:export-xdpi="300"
       inkscape:export-ydpi="300"
       transform="translate(76.771608,53.767055)"><path
         d="m 616.63131,216.79958 q 0.92156,0 1.34359,-0.72347 0.42202,-0.73209 0.42202,-1.59336 0,-1.18856 -0.79237,-1.89481 -0.78376,-0.71485 -2.11873,-0.71485 -1.79146,0 -3.22117,1.04214 -1.42972,1.03353 -1.42972,2.29099 0,0.74931 0.8096,1.09382 0.20671,0.0861 0.20671,0.16364 v 0.26699 q 0,0.18948 -0.68902,0.47371 -0.68041,0.28422 -0.89573,0.28422 -0.3359,0 -0.6804,-0.54261 -0.34451,-0.55121 -0.34451,-1.13688 0,-1.02492 0.83543,-2.14457 0.84405,-1.11966 2.36851,-1.80007 1.53306,-0.6804 3.514,-0.6804 2.11873,0 3.42787,0.88711 1.31775,0.88711 1.31775,2.27376 0,2.06706 -2.92833,2.82498 2.2996,0.71486 2.2996,2.81637 0,1.53307 -1.15411,2.6355 -1.14549,1.09382 -2.74747,1.09382 -0.70624,0 -1.17994,-0.28422 -0.4737,-0.28422 -0.4737,-0.68902 0,-0.26699 0.30144,-0.72347 0.30145,-0.45648 0.55983,-0.45648 0.35312,0 0.42203,0.82683 0.0517,0.65457 0.4048,0.65457 0.57705,0 1.0163,-1.2833 0.44786,-1.2833 0.44786,-2.58383 0,-1.57613 -1.12827,-1.74838 z m 0.28422,-3.33314 q -0.49954,0.44787 -0.75792,1.02492 -0.24977,0.56844 -0.44786,2.23931 -0.18948,1.67088 -0.48232,2.80776 -0.29283,1.12827 -1.02491,2.11012 -0.72347,0.97324 -1.84313,1.53307 -1.11105,0.55122 -2.39434,0.55122 -1.1455,0 -1.757,-0.48232 -0.6029,-0.48231 -0.6029,-1.36942 0,-0.31868 0.0517,-0.53399 0.4048,-0.37035 0.96463,-0.64596 0.55983,-0.28422 0.74931,-0.28422 0.31006,0 0.31006,0.4737 0,0.0775 -0.0689,0.5426 -0.0689,0.45648 -0.0689,0.55122 0,1.05937 0.91295,1.05937 0.92157,0 1.60197,-1.19718 0.68041,-1.20578 0.97324,-3.59151 0.30145,-2.38573 0.82683,-3.29007 0.53399,-0.91295 1.34358,-1.39526 0.8096,-0.49093 1.25747,-0.49093 0.22393,0 0.45647,0.38757 z"
         id="path264817"
         style="fill:#82b3d8;fill-opacity:1;stroke:none" /><path
         d="m 628.66331,221.6141 q -0.43925,0.38757 -0.85266,0.55122 -0.41341,0.15503 -0.65457,0.15503 -0.62011,0 -1.23162,-0.48232 -1.24023,1.87758 -2.8422,1.87758 -0.99908,0 -1.6192,-0.74931 -0.62012,-0.74931 -0.62012,-1.98954 0,-1.96371 1.39527,-3.36759 1.39526,-1.41249 3.33313,-1.41249 0.73208,0 1.06798,0.16365 0.34451,0.15503 0.42202,0.37034 0.0775,0.21532 0.0775,0.54261 0,1.61058 -0.8785,3.95325 0.43925,0.4048 0.92156,0.4048 0.57706,0 1.48139,-1.0077 z m -2.8422,-4.81452 q -0.12919,-0.0517 -0.37035,-0.0517 -1.11966,0 -1.757,1.17133 -0.62873,1.17134 -0.62873,2.73886 0,0.86988 0.27561,1.3522 0.27561,0.48231 0.76653,0.48231 0.61151,0 1.32636,-1.12827 -0.80959,-1.0163 -0.80959,-2.18764 0,-1.37804 1.19717,-2.37711 z"
         id="path264819"
         style="fill:#82b3d8;fill-opacity:1;stroke:none" /><path
         d="m 636.38895,221.6141 q -0.43925,0.38757 -0.85267,0.55122 -0.41341,0.15503 -0.65456,0.15503 -0.62012,0 -1.23163,-0.48232 -1.24023,1.87758 -2.8422,1.87758 -0.99908,0 -1.6192,-0.74931 -0.62012,-0.74931 -0.62012,-1.98954 0,-1.96371 1.39527,-3.36759 1.39526,-1.41249 3.33313,-1.41249 0.73208,0 1.06798,0.16365 0.34451,0.15503 0.42203,0.37034 0.0775,0.21532 0.0775,0.54261 0,1.61058 -0.8785,3.95325 0.43925,0.4048 0.92156,0.4048 0.57706,0 1.4814,-1.0077 z m -2.84221,-4.81452 q -0.12919,-0.0517 -0.37035,-0.0517 -1.11965,0 -1.757,1.17133 -0.62873,1.17134 -0.62873,2.73886 0,0.86988 0.27561,1.3522 0.27561,0.48231 0.76653,0.48231 0.61151,0 1.32637,-1.12827 -0.8096,-1.0163 -0.8096,-2.18764 0,-1.37804 1.19717,-2.37711 z"
         id="path264821"
         style="fill:#82b3d8;fill-opacity:1;stroke:none" /><path
         d="m 644.83805,221.59688 q -1.9551,2.13596 -3.24701,2.13596 -0.62011,0 -1.04214,-0.43064 -0.42202,-0.43925 -0.42202,-1.07659 0,-0.30145 0.10335,-0.90434 0.10335,-0.60289 0.10335,-0.68041 0,-0.39619 -0.44786,-0.4048 -0.44786,-0.0172 -0.44786,-0.35312 0,-0.29283 0.12058,-0.4048 0.12919,-0.12058 0.4737,-0.12058 0.9474,-0.0258 1.41249,-0.38757 0.46508,-0.37035 0.46508,-0.86989 0,-0.35312 -0.25838,-0.57705 -0.24977,-0.23255 -0.64595,-0.23255 -0.21532,0 -0.41342,0.0517 -0.2067,0.0517 -0.39618,0.15503 -0.19809,0.11196 -0.41341,0.28422 -0.20671,0.18087 -0.43925,0.43925 -0.22393,0.24977 -0.49093,0.59428 -0.1378,0.18087 -0.34451,1.69671 -0.10335,0.78376 -0.1378,1.44694 -0.0344,0.62012 -0.009,1.40388 l -1.95509,0.32728 q -0.11196,-0.65457 -0.11196,-1.60197 0,-2.58382 0.69763,-4.9351 0.69763,-2.35128 2.28237,-4.83175 1.23163,-0.49954 2.12735,-0.77515 0.89573,-0.28422 0.99908,-0.28422 0.20671,0 0.4048,0.41341 0.19809,0.41342 0.19809,0.86989 0,0.76653 -0.50815,1.67949 -0.50815,0.90433 -1.57613,2.18763 0.73208,-0.21532 1.2144,-0.21532 0.80098,0 1.30913,0.41342 0.50816,0.40479 0.50816,1.03353 0,1.42971 -2.57522,2.1015 1.0077,0.23255 1.0077,1.17995 l -0.0517,0.77515 q 0,0.52538 0.49093,0.52538 0.34451,0 0.78376,-0.3359 0.43925,-0.3359 1.23162,-1.2833 z m -5.64996,-4.15135 0.56844,-0.62873 q 2.52353,-2.8422 2.52353,-4.00492 0,-0.53399 -0.46509,-0.53399 -0.53399,0 -1.23162,1.25746 -0.68902,1.25746 -1.39526,3.91018 z"
         id="path264823"
         style="fill:#82b3d8;fill-opacity:1;stroke:none" /><path
         d="m 659.17827,221.6141 q -2.04122,2.11874 -4.92649,2.11874 -2.06706,0 -3.39342,-1.29192 -1.31775,-1.30052 -1.31775,-3.33313 0,-2.02399 0.95601,-3.84989 0.95602,-1.82591 2.4977,-2.91973 1.55029,-1.09381 3.0403,-1.09381 1.24884,0 2.0326,0.7493 0.79238,0.74931 0.79238,1.94649 0,1.5589 -0.95602,2.7044 -0.9474,1.13688 -2.22209,1.13688 -0.67179,0 -1.10243,-0.34451 -0.43064,-0.34451 -0.43064,-0.88711 0,-0.46509 0.37035,-0.86128 0.27561,0.50815 0.75792,0.50815 0.68902,0 1.27469,-0.86127 0.59428,-0.86127 0.59428,-1.88619 0,-0.71486 -0.3359,-1.13688 -0.32728,-0.42203 -0.8785,-0.42203 -0.80098,0 -1.71393,0.99908 -0.90434,0.99908 -1.51585,2.5666 -0.60289,1.56752 -0.60289,2.98001 0,1.80006 1.01631,2.95417 1.02491,1.15411 2.60104,1.15411 0.99908,0 1.80007,-0.46509 0.80098,-0.46509 1.66226,-1.45556 z"
         id="path264825"
         style="fill:#82b3d8;fill-opacity:1;stroke:none" /><path
         d="m 664.87129,221.6141 q -1.17133,1.07659 -2.05845,1.59336 -0.8785,0.50815 -1.67948,0.50815 -0.92157,0 -1.49001,-0.71486 -0.55982,-0.71486 -0.55982,-1.92064 0,-1.80868 0.78376,-4.34082 0.78375,-2.53215 1.90341,-4.66811 l 2.18764,-0.8096 q 0.10335,-0.0345 0.15503,-0.0345 0.24977,0 0.4048,0.37035 0.16364,0.36173 0.16364,0.98185 0,1.757 -0.8096,3.40204 -0.8096,1.64503 -2.53215,3.514 -0.0689,0.89572 -0.0689,1.23162 0,0.74931 0.27561,1.18856 0.27561,0.43925 0.73208,0.43925 0.46509,0 0.99047,-0.3359 0.52538,-0.3359 1.60197,-1.39527 z m -3.29868,-3.36758 q 1.09382,-1.2144 1.77422,-2.72163 0.68041,-1.50723 0.68041,-2.59244 0,-0.31867 -0.0947,-0.50815 -0.0947,-0.19809 -0.24116,-0.19809 -0.31867,0 -0.93017,1.58474 -0.60289,1.58475 -1.18856,4.43557 z"
         id="path264827"
         style="fill:#82b3d8;fill-opacity:1;stroke:none" /><path
         d="m 674.0697,221.6141 q -1.13688,1.07659 -1.90342,1.59336 -0.76653,0.50815 -1.37803,0.50815 -0.68041,0 -1.05076,-0.5426 -0.36173,-0.54261 -0.36173,-1.47278 -0.94741,1.04214 -1.69672,1.54168 -0.7493,0.49093 -1.46416,0.49093 -0.65457,0 -1.05076,-0.54261 -0.39618,-0.5426 -0.39618,-1.47278 0,-1.79145 1.20578,-5.04706 l 2.29099,-0.45648 q -1.41249,4.1255 -1.41249,5.29684 0,0.82682 0.62012,0.82682 0.44786,0 1.11104,-0.72347 0.66318,-0.73208 0.82683,-1.27469 l 1.12827,-3.66902 2.34266,-0.47371 q -0.8096,2.59244 -1.11104,3.6432 -0.30145,1.05075 -0.30145,1.47277 0,0.8096 0.55122,0.8096 0.44786,0 1.32636,-0.81821 l 0.72347,-0.68041 z"
         id="path264829"
         style="fill:#82b3d8;fill-opacity:1;stroke:none" /><path
         d="m 681.79533,221.6141 q -0.59428,0.63734 -1.44694,0.63734 -0.67179,0 -1.42972,-0.63734 -0.92156,1.05937 -1.63642,1.56752 -0.70624,0.50815 -1.54168,0.50815 -0.74931,0 -1.25746,-0.62012 -0.50815,-0.62011 -0.50815,-1.54168 0,-1.80006 1.05075,-4.84897 1.05076,-3.05753 2.05845,-4.62505 1.13688,-0.36173 1.99816,-0.58566 0.86988,-0.22393 0.99907,-0.22393 0.24977,0 0.43064,0.33589 0.18948,0.32729 0.18948,0.79238 0,0.96462 -0.80098,2.26515 -0.80099,1.29191 -2.07567,2.5666 l -1.12827,1.12826 q -0.53399,1.87758 -0.53399,2.7647 0,0.49092 0.22393,0.78376 0.22393,0.29283 0.58566,0.29283 0.42203,0 0.75793,-0.267 0.34451,-0.26699 0.76653,-0.82682 -0.43064,-0.7407 -0.43064,-1.51584 0,-1.24885 0.6718,-2.30822 0.6804,-1.05937 1.44694,-1.05937 0.30144,0 0.49092,0.267 0.1981,0.26699 0.1981,0.70624 0,1.41249 -1.58475,3.85851 0.4737,0.58567 1.0766,0.58567 0.37896,0 0.65456,-0.17225 0.27561,-0.18087 0.77515,-0.81822 z m -4.67672,-4.60782 q 1.39527,-1.36942 2.11874,-2.52353 0.72347,-1.16272 0.72347,-1.757 0,-0.24116 -0.11197,-0.39619 -0.10335,-0.15503 -0.25838,-0.15503 -1.00769,0 -2.47186,4.83175 z"
         id="path264831"
         style="fill:#82b3d8;fill-opacity:1;stroke:none" /><path
         d="m 698.14232,221.6141 q -1.98093,2.11874 -3.63457,2.11874 -0.91296,0 -1.44695,-0.64596 -0.53399,-0.64596 -0.59427,-1.84313 -1.04215,1.26608 -1.85174,1.87758 -0.80099,0.61151 -1.71394,0.61151 -1.17133,0 -1.88619,-1.0077 -0.70625,-1.0163 -0.70625,-2.7044 0,-2.01538 0.93018,-4.15134 0.93018,-2.14457 2.75608,-3.38481 1.8259,-1.24023 4.42695,-1.24023 1.94648,0 3.52261,0.52537 v 0.56844 q -1.2833,1.49862 -2.15319,4.19441 -0.86127,2.69579 -0.86127,4.10828 0,0.68902 0.27561,1.06798 0.28422,0.37896 0.78376,0.37896 0.89572,0 2.15318,-1.46417 z m -2.5063,-9.27593 q -0.79238,-0.43063 -1.70533,-0.43063 -1.43833,0 -2.59243,1.20578 -1.15411,1.19717 -1.82591,3.1781 -0.66318,1.98094 -0.66318,3.43649 0,0.97324 0.37035,1.58474 0.37896,0.6029 0.96463,0.6029 1.0163,0 2.33405,-1.85174 0.5426,-4.85759 3.11782,-7.72564 z"
         id="path264833"
         style="fill:#82b3d8;fill-opacity:1;stroke:none" /><path
         d="m 702.2506,217.67808 q 0.62012,-0.74931 1.17134,-1.10243 0.55121,-0.36174 1.22301,-0.36174 0.86988,0 1.41249,0.67179 0.55121,0.66319 0.55121,1.74839 0,1.90342 -1.31775,3.49678 -1.30914,1.58474 -2.85082,1.58474 -0.43063,0 -0.6804,-0.0947 -0.24977,-0.0947 -0.65457,-0.43925 -0.62012,2.73024 -0.80099,4.37527 l -2.18763,0.38758 q 0.6115,-4.03077 1.5589,-8.16488 -1.13688,1.49 -1.53307,1.83451 h -0.19809 v -0.77515 q 1.63642,-1.76561 2.69579,-4.28914 l 1.94648,-0.35313 z m -0.99046,4.60781 q 0.44786,0.7407 0.99046,0.7407 0.86989,0 1.53307,-1.31775 0.6718,-1.32636 0.6718,-2.58382 0,-0.66318 -0.27561,-1.06798 -0.267,-0.41341 -0.69763,-0.41341 -0.3359,0 -0.70625,0.30144 -0.37035,0.30145 -0.55983,0.70625 -0.18948,0.39618 -0.43064,1.39526 z"
         id="path264835"
         style="fill:#82b3d8;fill-opacity:1;stroke:none" /><path
         d="m 711.47485,217.67808 q 0.62012,-0.74931 1.17134,-1.10243 0.55121,-0.36174 1.22301,-0.36174 0.86988,0 1.41249,0.67179 0.55121,0.66319 0.55121,1.74839 0,1.90342 -1.31775,3.49678 -1.30913,1.58474 -2.85082,1.58474 -0.43063,0 -0.6804,-0.0947 -0.24977,-0.0947 -0.65457,-0.43925 -0.62012,2.73024 -0.80099,4.37527 l -2.18763,0.38758 q 0.6115,-4.03077 1.5589,-8.16488 -1.13688,1.49 -1.53307,1.83451 h -0.19809 v -0.77515 q 1.63642,-1.76561 2.69579,-4.28914 l 1.94648,-0.35313 z m -0.99046,4.60781 q 0.44786,0.7407 0.99046,0.7407 0.86989,0 1.53307,-1.31775 0.6718,-1.32636 0.6718,-2.58382 0,-0.66318 -0.27561,-1.06798 -0.267,-0.41341 -0.69763,-0.41341 -0.3359,0 -0.70625,0.30144 -0.37035,0.30145 -0.55983,0.70625 -0.18948,0.39618 -0.43063,1.39526 z"
         id="path264837"
         style="fill:#82b3d8;fill-opacity:1;stroke:none" /></g></g></svg>
