<?xml version="1.0" encoding="UTF-8" standalone="no"?>
<!-- Created with Inkscape (http://www.inkscape.org/) -->

<svg
   width="88.63385mm"
   height="16.700104mm"
   viewBox="0 0 88.63385 16.700104"
   version="1.1"
   id="svg5"
   xml:space="preserve"
   inkscape:version="1.2.2 (732a01da63, 2022-12-09)"
   sodipodi:docname="VanillaJs.svg"
   xmlns:inkscape="http://www.inkscape.org/namespaces/inkscape"
   xmlns:sodipodi="http://sodipodi.sourceforge.net/DTD/sodipodi-0.dtd"
   xmlns="http://www.w3.org/2000/svg"
   xmlns:svg="http://www.w3.org/2000/svg"><sodipodi:namedview
     id="namedview7"
     pagecolor="#ffffff"
     bordercolor="#000000"
     borderopacity="0.25"
     inkscape:showpageshadow="2"
     inkscape:pageopacity="0.0"
     inkscape:pagecheckerboard="0"
     inkscape:deskcolor="#d1d1d1"
     inkscape:document-units="mm"
     showgrid="false"
     inkscape:zoom="0.36925856"
     inkscape:cx="1624.8777"
     inkscape:cy="777.23317"
     inkscape:window-width="2560"
     inkscape:window-height="1009"
     inkscape:window-x="-8"
     inkscape:window-y="-8"
     inkscape:window-maximized="1"
     inkscape:current-layer="layer1" /><defs
     id="defs2" /><g
     inkscape:label="Layer 1"
     inkscape:groupmode="layer"
     id="layer1"
     transform="translate(-694.43208,-320.66128)"><g
       aria-label="Coming Soon"
       id="text30936"
       style="font-weight:bold;font-size:17.6389px;font-family:'Script MT Bold';-inkscape-font-specification:'Script MT Bold,  Bold';text-align:center;text-anchor:middle;fill:#3f99d2;stroke-width:0.264583"><path
         d="m 704.06977,331.031 q -2.04122,2.11874 -4.92649,2.11874 -2.06705,0 -3.39342,-1.29192 -1.31775,-1.30052 -1.31775,-3.33313 0,-2.02399 0.95602,-3.84989 0.95601,-1.82591 2.49769,-2.91972 1.5503,-1.09382 3.0403,-1.09382 1.24885,0 2.03261,0.74931 0.79237,0.7493 0.79237,1.94648 0,1.5589 -0.95601,2.7044 -0.9474,1.13688 -2.22209,1.13688 -0.67179,0 -1.10243,-0.34451 -0.43064,-0.34451 -0.43064,-0.88711 0,-0.46509 0.37035,-0.86128 0.27561,0.50815 0.75792,0.50815 0.68902,0 1.27469,-0.86127 0.59428,-0.86127 0.59428,-1.88619 0,-0.71486 -0.3359,-1.13688 -0.32729,-0.42203 -0.8785,-0.42203 -0.80099,0 -1.71394,0.99908 -0.90434,0.99908 -1.51584,2.5666 -0.60289,1.56752 -0.60289,2.98001 0,1.80006 1.0163,2.95417 1.02492,1.15411 2.60105,1.15411 0.99908,0 1.80006,-0.46509 0.80099,-0.46509 1.66226,-1.45555 z"
         id="path290908" /><path
         d="m 711.79541,331.031 q -0.43925,0.38757 -0.85267,0.55122 -0.41341,0.15503 -0.65456,0.15503 -0.62012,0 -1.23163,-0.48232 -1.24023,1.87758 -2.8422,1.87758 -0.99908,0 -1.6192,-0.74931 -0.62012,-0.74931 -0.62012,-1.98954 0,-1.96371 1.39527,-3.36759 1.39526,-1.41249 3.33313,-1.41249 0.73208,0 1.06798,0.16365 0.34451,0.15503 0.42203,0.37035 0.0775,0.21531 0.0775,0.5426 0,1.61058 -0.8785,3.95325 0.43925,0.4048 0.92156,0.4048 0.57706,0 1.4814,-1.00769 z m -2.84221,-4.81452 q -0.12919,-0.0517 -0.37035,-0.0517 -1.11965,0 -1.757,1.17133 -0.62873,1.17134 -0.62873,2.73886 0,0.86988 0.27561,1.3522 0.27561,0.48231 0.76653,0.48231 0.61151,0 1.32637,-1.12827 -0.8096,-1.0163 -0.8096,-2.18764 0,-1.37803 1.19717,-2.37711 z"
         id="path290910" /><path
         d="m 724.47337,331.031 q -1.0766,1.05076 -1.84313,1.57613 -0.76654,0.52538 -1.49001,0.52538 -0.56844,0 -0.90433,-0.38757 -0.32729,-0.39619 -0.32729,-1.05937 0,-0.93018 0.46509,-2.35989 0.46509,-1.42972 0.46509,-1.73978 0,-0.2756 -0.28422,-0.2756 -0.0861,0 -0.20671,0.0603 -0.12919,0.0603 -0.29283,0.17226 -0.16364,0.12058 -0.35312,0.29283 -0.18949,0.17226 -0.39619,0.39619 -0.22393,0.22393 -0.44786,0.49093 -0.37896,0.44786 -0.44787,0.7493 l -0.28422,1.23163 -0.51676,2.0326 -2.18764,0.39619 0.83544,-3.54845 q 0.0947,-0.38757 0.22393,-1.13688 0.12919,-0.74931 0.12919,-0.89573 0,-0.29283 -0.19809,-0.29283 -0.0603,0 -0.17226,0.0603 -0.12919,0.0603 -0.29283,0.18087 -0.18948,0.1378 -0.4048,0.32728 -0.23254,0.20671 -0.49954,0.4737 -0.28422,0.28422 -0.58567,0.62873 -0.41341,0.46509 -0.51676,1.08521 -0.1378,0.74069 -0.18948,1.32636 -0.0603,0.58567 -0.0689,1.30914 l -1.91203,0.45647 q -0.0689,-0.99046 -0.0689,-1.65364 0,-1.57614 0.32728,-2.73886 0.32728,-1.17133 1.06798,-2.73024 l 2.08428,-0.4048 q -0.55982,1.40388 -0.86988,2.71302 2.31683,-2.69579 3.54845,-2.69579 0.44786,0 0.72347,0.37035 0.28422,0.36173 0.28422,0.95601 0,0.27561 -0.0861,1.01631 1.45556,-1.45556 2.08429,-1.89481 0.63734,-0.44786 1.17133,-0.44786 0.4737,0 0.77515,0.37896 0.30144,0.37896 0.30144,0.96463 0,0.92156 -0.50815,2.3685 -0.50815,1.44694 -0.50815,1.91203 0,0.48232 0.35312,0.48232 0.22393,0 0.62012,-0.29284 0.4048,-0.30144 1.40388,-1.36942 z"
         id="path290912" /><path
         d="m 728.53858,322.26323 q 0,2.06706 -1.52445,2.06706 -0.7407,0 -1.26608,-0.44787 0.49954,-0.75792 0.77515,-1.70532 0.68041,0.42202 1.09382,0.42202 0.46509,0 0.92156,-0.33589 z m 0.17226,8.76777 q -2.01539,2.11874 -3.01446,2.11874 -0.55122,0 -0.93018,-0.55983 -0.37896,-0.56844 -0.37896,-1.4211 0,-1.83452 1.24023,-5.08152 l 2.18764,-0.45648 h 0.10335 l -0.86127,2.69579 q -0.53399,1.67087 -0.53399,2.38573 0,0.28422 0.12058,0.46509 0.12919,0.17225 0.31867,0.17225 0.3359,0 0.67179,-0.24115 0.34451,-0.24977 1.0766,-1.06798 z"
         id="path290914" /><path
         d="m 737.16855,331.031 q -1.98954,2.10151 -3.41065,2.10151 -0.57705,0 -0.93017,-0.4048 -0.35312,-0.4048 -0.35312,-1.0852 0,-0.92157 0.75792,-2.81637 0.4048,-1.01631 0.4048,-1.29191 0,-0.27561 -0.21532,-0.27561 -0.12058,0 -0.31867,0.12058 -0.18087,0.12058 -0.42203,0.33589 -0.21532,0.1981 -0.48231,0.48232 -0.23255,0.24116 -0.49954,0.55121 l -0.48231,0.55983 q -0.31868,0.38758 -0.39619,0.81821 -0.12919,0.73209 -0.17226,1.34359 -0.0258,0.45648 -0.0258,1.23162 l -1.90342,0.44787 q -0.0947,-1.16272 -0.0947,-1.73117 0,-1.38665 0.31867,-2.62688 0.32728,-1.24024 1.04214,-2.79053 l 2.10151,-0.4048 q -0.66318,1.78284 -0.86988,2.80775 1.41249,-1.57613 2.23931,-2.17902 0.83543,-0.61151 1.48139,-0.61151 0.43925,0 0.73208,0.3359 0.29284,0.32729 0.29284,0.82683 0,0.82682 -0.7407,2.72162 -0.50815,1.30053 -0.50815,1.6881 0,0.51677 0.42202,0.51677 0.62873,0 2.03261,-1.66226 z"
         id="path290916" /><path
         d="m 745.61765,331.031 q -1.09382,1.1455 -2.61827,1.6881 -0.71486,2.2307 -1.81729,3.43648 -1.09382,1.20579 -2.32544,1.20579 -0.6718,0 -1.08521,-0.42203 -0.41341,-0.42202 -0.41341,-1.11104 0,-0.92156 0.81821,-1.65365 0.82682,-0.73208 2.79914,-1.41249 l 0.37035,-1.69671 q -0.82682,0.93018 -1.42971,1.36943 -0.6029,0.43064 -1.2144,0.43064 -0.71486,0 -1.17133,-0.6718 -0.45648,-0.67179 -0.45648,-1.74839 0,-1.757 1.33497,-3.29006 1.34359,-1.54169 2.85082,-1.54169 0.83544,0 1.4814,0.70625 0.38757,-0.1378 1.00769,-0.41341 l 0.6115,-0.27561 h 0.19809 q -0.33589,1.0163 -0.51676,1.98093 l -0.8096,4.31499 q 1.16272,-0.43925 2.38573,-1.88619 z m -5.54661,0.28422 q 0.61151,0 1.08521,-0.72347 0.4737,-0.72347 0.73208,-1.83451 0.267,-1.11105 0.267,-1.54168 0,-0.4048 -0.20671,-0.66319 -0.19809,-0.26699 -0.49954,-0.26699 -0.91295,0 -1.59335,1.23162 -0.68041,1.23162 -0.68041,2.50631 0,0.59428 0.24116,0.9474 0.24977,0.34451 0.65456,0.34451 z m 0.72348,2.20486 q -2.78192,0.99908 -2.78192,2.30822 0,0.38757 0.23254,0.62873 0.23255,0.24977 0.59428,0.24977 0.62012,0 1.0766,-0.78376 0.45647,-0.78376 0.8785,-2.40296 z"
         id="path290918" /><path
         d="m 759.01908,322.21155 q 0,0.3359 -1.11104,1.65365 h -0.15503 q -0.17225,-0.0689 -0.21532,-0.50815 -0.0947,-0.88712 -0.6115,-1.44695 -0.51677,-0.56844 -1.24024,-0.56844 -0.6804,0 -1.17133,0.49954 -0.49093,0.49093 -0.49093,1.17995 0,0.49954 0.31006,1.07659 0.31006,0.56844 1.61058,1.80868 1.30914,1.24023 1.67949,1.98093 0.37035,0.73208 0.37035,1.39526 0,1.53307 -1.33498,2.70441 -1.32636,1.16272 -3.1092,1.16272 -1.47278,0 -2.42879,-0.68041 -0.95602,-0.68902 -0.95602,-1.11966 0,-0.24115 0.52538,-1.11965 0.52538,-0.8785 0.60289,-0.8785 0.27561,0 0.38758,0.16364 0.12057,0.15503 0.16364,0.58566 0.12919,1.34359 0.64595,1.85174 0.52538,0.50816 1.36082,0.50816 0.91295,0 1.59336,-0.62873 0.6804,-0.63735 0.6804,-1.47278 0,-0.43064 -0.26699,-0.91295 -0.25839,-0.49093 -1.49001,-1.65365 -1.22301,-1.17133 -1.60197,-1.98093 -0.37896,-0.8096 -0.37896,-1.57613 0,-1.33498 1.00769,-2.45464 1.00769,-1.11965 2.67857,-1.11965 1.26607,0 2.10151,0.58566 0.84404,0.57706 0.84404,0.96463 z"
         id="path290920" /><path
         d="m 766.89113,331.031 q -0.43925,0.38757 -0.85266,0.55122 -0.41341,0.15503 -0.65457,0.15503 -0.62011,0 -1.23162,-0.48232 -1.24023,1.87758 -2.8422,1.87758 -0.99908,0 -1.6192,-0.74931 -0.62012,-0.74931 -0.62012,-1.98954 0,-1.96371 1.39527,-3.36759 1.39526,-1.41249 3.33313,-1.41249 0.73208,0 1.06798,0.16365 0.34451,0.15503 0.42202,0.37035 0.0775,0.21531 0.0775,0.5426 0,1.61058 -0.8785,3.95325 0.43925,0.4048 0.92156,0.4048 0.57706,0 1.48139,-1.00769 z m -2.8422,-4.81452 q -0.12919,-0.0517 -0.37035,-0.0517 -1.11966,0 -1.757,1.17133 -0.62873,1.17134 -0.62873,2.73886 0,0.86988 0.27561,1.3522 0.27561,0.48231 0.76653,0.48231 0.61151,0 1.32636,-1.12827 -0.80959,-1.0163 -0.80959,-2.18764 0,-1.37803 1.19717,-2.37711 z"
         id="path290922" /><path
         d="m 774.61677,331.031 q -0.43925,0.38757 -0.85267,0.55122 -0.41341,0.15503 -0.65456,0.15503 -0.62012,0 -1.23163,-0.48232 -1.24023,1.87758 -2.8422,1.87758 -0.99908,0 -1.6192,-0.74931 -0.62012,-0.74931 -0.62012,-1.98954 0,-1.96371 1.39527,-3.36759 1.39526,-1.41249 3.33313,-1.41249 0.73208,0 1.06798,0.16365 0.34451,0.15503 0.42202,0.37035 0.0775,0.21531 0.0775,0.5426 0,1.61058 -0.8785,3.95325 0.43925,0.4048 0.92156,0.4048 0.57706,0 1.4814,-1.00769 z m -2.84221,-4.81452 q -0.12919,-0.0517 -0.37035,-0.0517 -1.11966,0 -1.757,1.17133 -0.62873,1.17134 -0.62873,2.73886 0,0.86988 0.27561,1.3522 0.27561,0.48231 0.76653,0.48231 0.61151,0 1.32637,-1.12827 -0.8096,-1.0163 -0.8096,-2.18764 0,-1.37803 1.19717,-2.37711 z"
         id="path290924" /><path
         d="m 783.06587,331.031 q -1.98955,2.10151 -3.41065,2.10151 -0.57705,0 -0.93018,-0.4048 -0.35312,-0.4048 -0.35312,-1.0852 0,-0.92157 0.75792,-2.81637 0.4048,-1.01631 0.4048,-1.29191 0,-0.27561 -0.21532,-0.27561 -0.12057,0 -0.31867,0.12058 -0.18087,0.12058 -0.42202,0.33589 -0.21532,0.1981 -0.48232,0.48232 -0.23254,0.24116 -0.49954,0.55121 l -0.48231,0.55983 q -0.31867,0.38758 -0.39619,0.81821 -0.12919,0.73209 -0.17225,1.34359 -0.0258,0.45648 -0.0258,1.23162 l -1.90341,0.44787 q -0.0947,-1.16272 -0.0947,-1.73117 0,-1.38665 0.31867,-2.62688 0.32728,-1.24024 1.04214,-2.79053 l 2.10151,-0.4048 q -0.66318,1.78284 -0.86989,2.80775 1.41249,-1.57613 2.23931,-2.17902 0.83544,-0.61151 1.4814,-0.61151 0.43925,0 0.73208,0.3359 0.29283,0.32729 0.29283,0.82683 0,0.82682 -0.74069,2.72162 -0.50815,1.30053 -0.50815,1.6881 0,0.51677 0.42202,0.51677 0.62873,0 2.03261,-1.66226 z"
         id="path290926" /></g></g></svg>
