<?xml version="1.0" encoding="UTF-8" standalone="no"?>
<!-- Created with Inkscape (http://www.inkscape.org/) -->

<svg
   width="56.109619mm"
   height="13.321503mm"
   viewBox="0 0 56.109619 13.321503"
   version="1.1"
   id="svg5"
   xml:space="preserve"
   inkscape:version="1.2.2 (732a01da63, 2022-12-09)"
   sodipodi:docname="VanillaJs.svg"
   xmlns:inkscape="http://www.inkscape.org/namespaces/inkscape"
   xmlns:sodipodi="http://sodipodi.sourceforge.net/DTD/sodipodi-0.dtd"
   xmlns="http://www.w3.org/2000/svg"
   xmlns:svg="http://www.w3.org/2000/svg"><sodipodi:namedview
     id="namedview7"
     pagecolor="#ffffff"
     bordercolor="#000000"
     borderopacity="0.25"
     inkscape:showpageshadow="2"
     inkscape:pageopacity="0.0"
     inkscape:pagecheckerboard="0"
     inkscape:deskcolor="#d1d1d1"
     inkscape:document-units="mm"
     showgrid="false"
     inkscape:zoom="0.36925856"
     inkscape:cx="1624.8777"
     inkscape:cy="777.23317"
     inkscape:window-width="2560"
     inkscape:window-height="1009"
     inkscape:window-x="-8"
     inkscape:window-y="-8"
     inkscape:window-maximized="1"
     inkscape:current-layer="layer1" /><defs
     id="defs2" /><g
     inkscape:label="Layer 1"
     inkscape:groupmode="layer"
     id="layer1"
     transform="translate(-688.26894,-239.53292)"><g
       aria-label="CoreUI"
       id="text147331"
       style="font-weight:bold;font-size:17.6389px;font-family:ARIAL;-inkscape-font-specification:'ARIAL Bold';text-align:center;text-anchor:middle;fill:#f9f9f9;stroke:#140655;stroke-width:0.264583"><path
         d="m 696.92789,247.86455 2.47186,0.78376 q -0.56844,2.06706 -1.89481,3.07475 -1.31775,0.99908 -3.35035,0.99908 -2.51492,0 -4.13412,-1.71394 -1.6192,-1.72255 -1.6192,-4.70256 0,-3.15226 1.62781,-4.89203 1.62781,-1.74839 4.28054,-1.74839 2.31682,0 3.76377,1.36942 0.86127,0.8096 1.29191,2.32545 l -2.52354,0.60289 q -0.22393,-0.98185 -0.93879,-1.5503 -0.70624,-0.56844 -1.72254,-0.56844 -1.40388,0 -2.28238,1.00769 -0.86989,1.0077 -0.86989,3.26423 0,2.39435 0.86128,3.41065 0.86127,1.0163 2.23931,1.0163 1.0163,0 1.74839,-0.64595 0.73208,-0.64596 1.05075,-2.03261 z"
         id="path290878" /><path
         d="m 701.01033,247.80426 q 0,-1.20578 0.59428,-2.33405 0.59428,-1.12827 1.67949,-1.72255 1.09381,-0.59428 2.4374,-0.59428 2.07567,0 3.40204,1.3522 1.32636,1.34359 1.32636,3.40204 0,2.07567 -1.34359,3.44509 -1.33497,1.36082 -3.36758,1.36082 -1.25746,0 -2.40296,-0.56844 -1.13688,-0.56845 -1.73116,-1.66226 -0.59428,-1.10244 -0.59428,-2.67857 z m 2.48047,0.12919 q 0,1.36082 0.64596,2.08429 0.64595,0.72347 1.59336,0.72347 0.9474,0 1.58474,-0.72347 0.64596,-0.72347 0.64596,-2.10151 0,-1.34359 -0.64596,-2.06706 -0.63734,-0.72347 -1.58474,-0.72347 -0.94741,0 -1.59336,0.72347 -0.64596,0.72347 -0.64596,2.08428 z"
         id="path290880" /><path
         d="m 714.66153,252.50682 h -2.42018 v -9.14673 h 2.24793 v 1.30052 q 0.57705,-0.92156 1.03353,-1.2144 0.46508,-0.29283 1.05075,-0.29283 0.82682,0 1.59336,0.45648 l -0.74931,2.11012 q -0.6115,-0.39619 -1.13688,-0.39619 -0.50815,0 -0.86128,0.28422 -0.35312,0.27561 -0.55983,1.00769 -0.19809,0.73209 -0.19809,3.06614 z"
         id="path290882" /><path
         d="m 724.5059,249.59571 2.41157,0.4048 q -0.46509,1.32636 -1.47278,2.024 -0.99908,0.68902 -2.50631,0.68902 -2.38573,0 -3.53123,-1.55891 -0.90433,-1.24885 -0.90433,-3.15226 0,-2.27377 1.18855,-3.55707 1.18856,-1.29191 3.00585,-1.29191 2.04122,0 3.22117,1.3522 1.17994,1.34359 1.12827,4.12551 h -6.06337 q 0.0258,1.07659 0.58566,1.67948 0.55983,0.59428 1.39527,0.59428 0.56844,0 0.95601,-0.31006 0.38758,-0.31006 0.58567,-0.99908 z m 0.1378,-2.44602 q -0.0258,-1.05075 -0.5426,-1.59335 -0.51677,-0.55122 -1.25746,-0.55122 -0.79237,0 -1.30914,0.57705 -0.51676,0.57706 -0.50815,1.56752 z"
         id="path290884" /><path
         d="m 729.01898,239.88054 h 2.54937 v 6.83852 q 0,1.62781 0.0947,2.11012 0.16364,0.77515 0.77515,1.24885 0.62011,0.46508 1.68809,0.46508 1.08521,0 1.63642,-0.43925 0.55122,-0.44786 0.66319,-1.09381 0.11196,-0.64596 0.11196,-2.14458 v -6.98493 h 2.54937 v 6.63181 q 0,2.27377 -0.2067,3.21255 -0.20671,0.93879 -0.76654,1.58475 -0.55121,0.64596 -1.48139,1.03353 -0.93017,0.37896 -2.42879,0.37896 -1.80868,0 -2.74747,-0.41341 -0.93017,-0.42203 -1.47278,-1.08521 -0.5426,-0.67179 -0.71485,-1.40388 -0.24977,-1.0852 -0.24977,-3.20394 z"
         id="path290886" /><path
         d="m 741.69694,252.50682 v -12.62628 h 2.54937 v 12.62628 z"
         id="path290888" /></g></g></svg>
