<?xml version="1.0" encoding="UTF-8" standalone="no"?>
<!-- Created with Inkscape (http://www.inkscape.org/) -->

<svg
   width="68.917542mm"
   height="12.649261mm"
   viewBox="0 0 68.917542 12.649261"
   version="1.1"
   id="svg5"
   xml:space="preserve"
   inkscape:version="1.2.2 (732a01da63, 2022-12-09)"
   sodipodi:docname="VanillaJs.svg"
   xmlns:inkscape="http://www.inkscape.org/namespaces/inkscape"
   xmlns:sodipodi="http://sodipodi.sourceforge.net/DTD/sodipodi-0.dtd"
   xmlns="http://www.w3.org/2000/svg"
   xmlns:svg="http://www.w3.org/2000/svg"><sodipodi:namedview
     id="namedview7"
     pagecolor="#ffffff"
     bordercolor="#000000"
     borderopacity="0.25"
     inkscape:showpageshadow="2"
     inkscape:pageopacity="0.0"
     inkscape:pagecheckerboard="0"
     inkscape:deskcolor="#d1d1d1"
     inkscape:document-units="mm"
     showgrid="false"
     inkscape:zoom="0.36925856"
     inkscape:cx="1624.8777"
     inkscape:cy="777.23317"
     inkscape:window-width="2560"
     inkscape:window-height="1009"
     inkscape:window-x="-8"
     inkscape:window-y="-8"
     inkscape:window-maximized="1"
     inkscape:current-layer="layer1" /><defs
     id="defs2" /><g
     inkscape:label="Layer 1"
     inkscape:groupmode="layer"
     id="layer1"
     transform="translate(-694.06337,-296.75054)"><g
       aria-label="LunaTrix"
       id="text147335"
       style="font-weight:bold;font-size:17.6389px;font-family:script;-inkscape-font-specification:'script Bold';text-align:center;text-anchor:middle;fill:#8f00dc;stroke:#8f00dc;stroke-width:0.264583"
       transform="translate(-0.2407865)"><path
         d="m 702.29131,309.21584 q -0.7407,0 -1.92925,-0.0344 -1.5503,-0.0345 -1.92926,-0.0431 l -2.57521,-0.0344 q -0.38757,0.009 -1.11104,-0.0344 -0.24977,-0.0431 -0.24977,-0.267 0,-0.93879 0.0258,-2.80775 0.0345,-1.87758 0.0345,-2.81637 0,-0.99908 -0.0603,-2.98862 -0.0603,-1.99816 -0.0603,-2.99724 0,-0.18948 0.25838,-0.18948 0.25838,0 0.76653,0.0258 0.51677,0.0258 0.76654,0.0258 0.28422,0 0.84405,-0.0258 0.55983,-0.0345 0.84405,-0.0345 0.12919,0 0.12057,0.16364 l -0.009,0.11197 q -0.10335,1.61919 -0.23254,4.8662 l -0.009,2.27376 q 0,1.10243 0.009,1.61059 0.009,0.10335 0.0172,0.2067 0.009,0.10335 0.12919,0.12919 0.009,0 0.22394,0 0.77514,0 2.31682,-0.0775 1.5503,-0.0861 2.32544,-0.0861 0.23255,0 0.23255,0.19809 0,1.47278 -0.21532,2.54076 -0.0431,0.22393 -0.18087,0.267 -0.0431,0.0172 -0.35312,0.0172 z"
         style="font-family:'Berlin Sans FB Demi';-inkscape-font-specification:'Berlin Sans FB Demi Bold'"
         id="path290891" /><path
         d="m 712.8247,301.24044 q 0,0.63735 -0.0603,1.91203 -0.0603,1.27469 -0.0603,1.91203 0,0.62012 0.0431,1.86035 0.0431,1.24024 0.0431,1.85174 0,0.23255 -0.21532,0.29284 -0.32729,0.0861 -1.38666,0.0861 -0.93878,0 -1.30913,-0.0517 -0.16364,-0.0258 -0.20671,-0.20671 -0.0258,-0.25838 -0.0517,-0.51676 -0.0431,-0.39619 -0.12058,-0.39619 0.12058,0 -0.86989,0.58567 -0.99047,0.58566 -1.80006,0.58566 -2.28238,0 -2.70441,-2.05844 -0.18948,-0.95602 -0.18948,-2.7733 0,-1.96371 0.31868,-3.10059 0.0947,-0.35313 0.35312,-0.35313 0.39618,0 1.20578,0.009 0.8096,0.009 1.20579,0.009 0.26699,0 0.26699,0.22393 0,0.0603 -0.0172,0.18087 -0.18087,1.17133 -0.18087,2.37712 0,1.49861 0.0947,2.04983 0.15503,0.9474 1.12827,0.9474 0.37896,0 0.81821,-0.3359 0.44786,-0.33589 0.46509,-0.69763 0.0172,-0.31867 0.0172,-4.3236 0,-0.28422 0.0431,-0.33589 0.0517,-0.0861 0.31006,-0.0861 0.42202,0 1.26607,0.009 0.85266,0.009 1.27468,0.009 0.25839,0 0.30145,0.12919 0.0172,0.0689 0.0172,0.2067 z"
         style="font-family:'Berlin Sans FB Demi';-inkscape-font-specification:'Berlin Sans FB Demi Bold'"
         id="path290893" /><path
         d="m 722.80687,308.81966 q 0,0.23254 -0.24116,0.26699 -0.24116,0.0344 -1.25746,0.0344 -1.08521,0 -1.34359,-0.0517 -0.25838,-0.0517 -0.25838,-0.35313 0,-0.40479 0.0258,-1.223 0.0258,-0.81822 0.0258,-1.23163 0,-0.31867 -0.0172,-0.9474 -0.0172,-0.63734 -0.0172,-0.95601 0,-1.17995 -1.02491,-1.17995 -0.3359,0 -0.78376,0.29283 -0.48232,0.32729 -0.48232,0.64596 v 4.65088 q 0,0.28422 -0.26699,0.31867 -0.30145,0.0344 -1.23162,0.0344 -1.00769,0 -1.30914,-0.0517 -0.267,-0.0431 -0.267,-0.28422 0,-0.6718 0.009,-2.024 0.009,-1.3522 0.009,-2.03261 0,-2.14457 -0.3359,-3.36758 -0.0172,-0.0775 -0.0172,-0.12919 0,-0.1378 0.12919,-0.18948 0.5426,-0.0603 1.44694,-0.18948 1.36943,-0.267 1.54168,-0.267 0.0947,0 0.14642,0.58567 0.0517,0.57705 0.14641,0.57705 -0.0947,0 0.92157,-0.59427 1.02491,-0.6029 1.79145,-0.6029 1.09382,0 1.8259,0.51677 0.81821,0.59428 0.81821,1.65364 v 2.74747 q 0,0.55983 0.009,1.67949 0.009,1.11104 0.009,1.67087 z"
         style="font-family:'Berlin Sans FB Demi';-inkscape-font-specification:'Berlin Sans FB Demi Bold'"
         id="path290895" /><path
         d="m 732.901,304.76306 q 0,0.66318 0.0775,1.97231 0.0775,1.30914 0.0775,1.96371 0,0.34451 -0.30144,0.37035 -1.06798,0.0775 -2.44602,0.0775 -0.16364,0 -0.22393,-0.49092 -0.0517,-0.49954 -0.12919,-0.50816 -0.0689,0.0344 -0.18087,0.14642 -0.96463,0.97324 -2.06706,0.97324 -1.67949,0 -2.78192,-1.32636 -1.04214,-1.24024 -1.04214,-2.96279 0,-1.98954 1.07659,-3.20394 1.11966,-1.25746 3.06614,-1.25746 1.3522,0 2.13596,0.9474 0.0344,0.0431 0.0603,0.0431 0.0775,0 0.17226,-0.41341 0.10335,-0.42203 0.24115,-0.42203 0.31867,0 1.2144,0.18087 0.85266,0.17225 1.22301,0.29283 0.12919,0.0517 0.12919,0.13781 0,0.0345 -0.0258,0.18086 -0.27561,1.55891 -0.27561,3.29869 z m -2.7733,0.0517 q 0,-0.73208 -0.46509,-1.20578 -0.45647,-0.48232 -1.19717,-0.48232 -0.7407,0 -1.19717,0.4737 -0.45648,0.47371 -0.45648,1.2144 0,0.69763 0.48232,1.19717 0.48231,0.49954 1.17133,0.49954 0.73208,0 1.19717,-0.4737 0.46509,-0.48231 0.46509,-1.22301 z"
         style="font-family:'Berlin Sans FB Demi';-inkscape-font-specification:'Berlin Sans FB Demi Bold'"
         id="path290897" /><path
         d="m 743.06404,299.62125 q 0,0.17225 -0.18948,0.17225 -0.32728,0 -2.59244,-0.12919 -0.0517,2.17902 -0.0517,3.0403 0,1.0163 0.0775,3.05752 0.0861,2.04122 0.0861,3.05753 0,0.16364 -0.0775,0.2067 -0.0258,0.0172 -0.24116,0.0431 -0.51677,0.0689 -1.51584,0.0689 -1.11105,0 -1.55891,-0.0689 -0.24116,-0.0431 -0.24116,-0.267 0,-1.0163 0.0861,-3.04891 0.0861,-2.03261 0.0861,-3.04891 0,-0.67179 -0.0689,-2.99724 -1.72255,0.17226 -2.74747,0.17226 -0.1378,0 -0.1378,-0.0861 0,-0.11196 0.12057,-0.66318 0.13781,-0.60289 0.15503,-0.73208 0.0258,-0.4048 0.0603,-0.8096 0.0603,-0.64596 0.20671,-0.64596 0.0172,0 0.12058,0.009 1.39526,0.18086 4.1255,0.18086 0.77515,0 2.85943,-0.16364 1.11966,-0.0861 1.12827,-0.0861 0.17226,0 0.1981,0.0258 0.0258,0.0172 0.0344,0.16364 0,0.23255 -0.0172,0.64596 -0.0172,0.45648 -0.0172,0.64596 0,0.21531 0.0517,0.63734 0.0603,0.41341 0.0603,0.62012 z"
         style="font-family:'Berlin Sans FB Demi';-inkscape-font-specification:'Berlin Sans FB Demi Bold'"
         id="path290899" /><path
         d="m 749.63557,303.70369 q 0,0.33589 -0.37035,0.33589 -0.16364,0 -0.48231,-0.0172 -0.31006,-0.0258 -0.46509,-0.0258 -0.71486,0 -0.97324,0.22393 -0.25838,0.22393 -0.25838,0.90434 0,0.37035 0.009,1.12827 0.0172,0.74931 0.0172,1.11966 0,0.24977 0.0344,0.74931 0.0345,0.49092 0.0345,0.73208 0,0.2067 -0.28423,0.23254 -0.41341,0.0344 -1.26607,0.0344 -0.81821,0 -1.30914,-0.0517 -0.28422,-0.0344 -0.28422,-0.28422 0,-0.68902 0.009,-2.05845 0.009,-1.37804 0.009,-2.06706 0,-2.02399 -0.37035,-3.33313 -0.0172,-0.0775 -0.0172,-0.12919 0,-0.12919 0.12919,-0.17226 0.4737,-0.0517 1.38665,-0.18948 1.36081,-0.26699 1.40388,-0.26699 0.15503,0 0.19809,0.5426 0.0431,0.5426 0.15503,0.5426 -0.12058,0 0.70624,-0.44786 0.82683,-0.45647 1.59336,-0.45647 0.48231,0 0.48231,0.2067 0,0.24977 -0.0517,0.70625 -0.0517,0.49092 -0.0603,0.70624 0,0.24977 0.009,0.66318 0.0172,0.50816 0.0172,0.6718 z"
         style="font-family:'Berlin Sans FB Demi';-inkscape-font-specification:'Berlin Sans FB Demi Bold'"
         id="path290901" /><path
         d="m 754.05391,298.71691 q 0,1.49862 -1.6881,1.49862 -0.72347,0 -1.19717,-0.37896 -0.51677,-0.41342 -0.51677,-1.11966 0,-0.6718 0.53399,-1.10243 0.49093,-0.39619 1.17995,-0.39619 0.67179,0 1.16272,0.4048 0.52538,0.43064 0.52538,1.09382 z m -0.22394,6.39927 q 0,0.62873 0.0258,1.87758 0.0258,1.24023 0.0258,1.86035 0,0.18087 -0.21532,0.21532 -0.29283,0.0517 -1.31775,0.0517 -1.03353,0 -1.32636,-0.0517 -0.18948,-0.0344 -0.23254,-0.11197 -0.0172,-0.0345 -0.0172,-0.25838 0,-0.59428 0.0258,-1.78284 0.0258,-1.19717 0.0258,-1.80006 0,-2.44602 -0.18948,-3.89296 -0.0172,-0.13781 -0.0172,-0.18087 0,-0.17226 0.23255,-0.17226 0.24115,0 0.73208,0.0517 0.49954,0.0517 0.74931,0.0517 0.24977,0 0.74931,-0.0431 0.49954,-0.0431 0.7493,-0.0431 0.20671,0 0.20671,0.17226 0,0.0344 -0.0172,0.16364 -0.18949,1.67948 -0.18949,3.89296 z"
         style="font-family:'Berlin Sans FB Demi';-inkscape-font-specification:'Berlin Sans FB Demi Bold'"
         id="path290903" /><path
         d="m 763.08867,308.83688 q 0,0.18948 -0.28422,0.23255 -0.50815,0.0689 -1.07659,0.0689 -0.60289,0 -1.00769,-0.0689 -0.10336,-0.0172 -0.31867,-0.17226 -0.42203,-0.60289 -1.2833,-1.80006 -0.21532,0.25838 -1.41249,1.77422 -0.11197,0.15503 -0.31867,0.1981 -0.30145,0.0689 -0.94741,0.0689 -1.36081,0 -1.36081,-0.30145 0,-0.24977 0.009,-0.75792 0.009,-0.51676 0.009,-0.77515 0,-0.14641 0.15502,-0.31867 0.6718,-0.69763 1.98094,-2.11012 -0.6029,-0.57705 -1.19718,-1.15411 -0.95601,-0.93879 -0.95601,-1.11104 v -1.51584 q 0,-0.22394 0.30145,-0.22394 0.34451,0 1.02491,0.0258 0.68902,0.0258 1.03353,0.0258 0.17226,0 0.31867,0.18948 0.4737,0.62873 1.32637,1.59336 0.77514,-0.93879 1.23162,-1.59336 0.12919,-0.17225 0.31867,-0.17225 0.36174,0 1.07659,-0.0345 0.71486,-0.0345 1.0766,-0.0345 0.30144,0 0.30144,0.22394 v 1.51584 q 0,0.16364 -0.14641,0.30145 -0.65457,0.66318 -1.93787,2.01538 0.65457,0.6804 1.93787,2.07567 0.14641,0.16364 0.14641,0.31867 z"
         style="font-family:'Berlin Sans FB Demi';-inkscape-font-specification:'Berlin Sans FB Demi Bold'"
         id="path290905" /></g></g></svg>
